<mxfile host="Electron" agent="Mozilla/5.0 (Windows NT 10.0; Win64; x64) AppleWebKit/537.36 (KHTML, like Gecko) draw.io/25.0.1 Chrome/128.0.6613.186 Electron/32.2.6 Safari/537.36" version="25.0.1" pages="2">
  <diagram name="Seite-1" id="V88yjMsuqJhNC9M2szsc">
    <mxGraphModel dx="757" dy="571" grid="1" gridSize="10" guides="1" tooltips="1" connect="1" arrows="1" fold="1" page="1" pageScale="1" pageWidth="1169" pageHeight="827" math="0" shadow="0">
      <root>
        <mxCell id="0" />
        <mxCell id="1" parent="0" />
        <mxCell id="U1V3mUfAhHY3gY_KVcL6-5" value="" style="group;fontSize=14;fontStyle=1;strokeColor=none;fillColor=none;" parent="1" vertex="1" connectable="0">
          <mxGeometry x="230" y="160" width="140" height="50" as="geometry" />
        </mxCell>
        <mxCell id="U1V3mUfAhHY3gY_KVcL6-1" value="&lt;span style=&quot;white-space: pre;&quot;&gt;&#x9;&lt;/span&gt;Paperless-ngx&lt;br&gt;&lt;span style=&quot;font-weight: normal;&quot;&gt;&lt;span style=&quot;white-space: pre;&quot;&gt;&#x9;&lt;/span&gt;(Webserver)&lt;/span&gt;" style="rounded=1;whiteSpace=wrap;html=1;verticalAlign=middle;align=left;fontSize=14;fontStyle=1;strokeWidth=1;" parent="U1V3mUfAhHY3gY_KVcL6-5" vertex="1">
          <mxGeometry width="140" height="50" as="geometry" />
        </mxCell>
        <mxCell id="U1V3mUfAhHY3gY_KVcL6-2" value="" style="shape=image;aspect=fixed;image=data:image/png,iVBORw0KGgoAAAANSUhEUgAAAgAAAAIACAYAAAD0eNT6AAAABHNCSVQICAgIfAhkiAAAAAlwSFlzAAAIZgAACGYBOpMpHQAAABl0RVh0U29mdHdhcmUAd3d3Lmlua3NjYXBlLm9yZ5vuPBoAACAASURBVHic7N17YFxlnT7w53tmkt6hlyQzTdOZ6UVuAVQqIKxCRVRQirTJ0CJXUfpbvCwrsKDoSlVE0V1XXRUt9ztlkpYFgV1BQBFcUFxRqoKlzaRpmknaglDaNDPnfH9/tGBpm2Rmzpl555zzfP5xmznzvg9r5Tx5zznvAYiIiIiIiIhoH5bBMh3BS4H6hyEiIqqExvaZ7238Y/LtpnN4iQWAiIhoFBasyyKQw03n8FLUdAAiIqJa1tyWOsiGfhjQF01n8RJXAIiIiEZQEOfzACy1EKgVABYAIiKiYUxLt8wQyBkAAAXvASAiIgqDOidyMYD6XX9sbFiUnG4yj5dYAIiIiPZh8mmpySq4YPefWRKcGwFZAIiIiPZhTFQvATBp959Z4gTmMgALABER0R7i6bmNAC7a8+caoEcBWQCIiIj2oE7hi9jjt/+dglMAxHQAIiKiWtKcnp2w1X4RwJh9fFyY9HrdxDUPrdlR7Vxe4woAERHRbmy1r8S+T/4AEP3bxMLB1cxTKSwAREREuzQsnn0AgHNGOkbUCcRlABYAIiKiXSK2cxVG2SbfCsh9ACwAREREABrTifcA2j7acQocWI08lcYCQERElEbEgvwARdwcr8DbqpCo4lgAiIgo9OJIXljsXv8CzMJ8/79NlwWAiIhCrSXdMlUVy0r4Sn1sWiJRqTzVwgJAREShltfINwFMK+U7Csv3lwFYAIiIKLSaFyWPAHB+qd+zLPV9AfD9NQwiIqKypBGxFT8CECn1q6o4oAKJqoorAEREFEpNmvxnAEeX810F5nocp+pYAIiIKHRi6eQsAb5S7vclAI8CsgAQEVHYCIDlACa4GCPVmm6t9yiPESwAREQUKk3p1D9CcaLLYaL9zt+SngQyhAWAiIhCY1q6ZYaoXu3FWBFEfH0ZgAWAiIjCQqKILAcw2YvBVMTXTwKwABARUSjE25MXQvFhr8ZTqK+fBGABICKiwIu3JVoV+DePh53t8XhVxQJARESBNvfkuWPUkjsAjPNyXIG0eDletbEAEBFRoL02If/tYt/0Vxr1dQEY9b3HREREftWYTp1kqT6ISp3vxg1OzN2We70iY1cYVwCIiCiQYgvnNFmqN6GCv+zaQxNmVGrsSmMBICKi4JmPKCKFuwDEKzlNxLF9exmABYCIiAKnaVryagAnVHoehfp2BYCvAyYiokCJtac+Cuil1ZhL1OIKABERkWkNi2cfAOgtqNJN7lwBICIiMqwx3TjRsu2VAPav1pzi40cBuQJARERBIJZOuAFAa5Wn9e0KAAsAERH5Xrw9cRmgpxuY2rcrANwIiIiIfK2pPblIgAzM/FLrNMjEcaszq4cMzO0KVwCIiMi3mhcljxDgVpg7n1lb7G3TDc3tCgsAERH50oxFM1psC/cDmGAyhw1/bgbEAkBERL7TvKB5fCFStxJAs+ksiEiT6QjlYAEgIiJ/WQbLHhO9E6pHmo4CAKKYZjpDObgPABER+Urs+eR3AXzUdI43CHSq6Qzl4AoAERH5Riyd/CKAz5rOsTsHli9XAFgAiIjIF5raE+dA8TXTOfbk1xUAXgIgIqKaF2tLLADkBtTm/jW+XAFgASAioprWlE4eA8XdqNFzloqyABAREXkptnDmoVA8AGC86SzDEYgvLwHwHgAiIqpJDYtnH4CI9TMAU0xnGREfAyQiIvLG9EWzko5t/wyAH7bZ9WUB4AoAERHVlOYlc2Y6lvMYgKTpLEWqb0w3TjQdolQsAEREVDNmLJrRYucLjwGYZTpLKeowyXf3AbAAEBFRTWg6Y1asINGfQTDHdJZS5R3bd5cBWACIiMi4pjNmxWTIeQyCg01nKYcl/tsMiAWAiIiMakyn4lJwHvHryR/w5wuBWACIiMiY5vTshKXOL6E41HQWN1RkP9MZSsUCQERERsSXpFK22o8B8jbTWdzTcaYTlIoFgIiIqq45PetAp6BPAJhtOosXBGABICIiGsn0xcmDbXUeFaDFdBbvWDW7VfFwWACIiKhqpqcT8xwbvwTQbDqLlxyuABAREe1bfFHyfY7KowAaTGfxmvAeACIior01taVOUwsPAvDd3fJFYgEgIiLaXbw99XERzQAYazpLBbEAEBERvSHenrhcoTci+G+f9d1NgEH/L4SIiMyQWHvy3xX4nOkg1eDHxwBZAIiIyFNzT5475rXxQ7cAWGw6S7UoCwAREYXZjIUzpm2N5O8F5D2ms1SVCC8BEBFRODUtnjnHLlgPKnCA6SzVx8cAiYgohJrSyWPEtn6tEsaTPwDHf5cAWACIiMiVprZkmyh+DqDRdBZjxH9PAbAAEBFRuSTWnvqCCDLw4U1wHhtjOkCpeA8AERGVbO7Jc8dsnVBYrtBzTGepEWI6QKlYAIiIqCQNi5LTX7PyqwAcbToLlY8FgIiIita0cNbbxXLuA5AwnYXc4T0ARERUlHg60S4R5ynw5B8ILABERDQaibenlqnKPfDhnvdVwnsAiIgoOBpOPXBStH7wZoUuMp2lxqnpAKViASAion1qWDz7gIg9uEqBQ0xnIe/xEgAREe0l1p44JWLbz4An/2L57hIACwAREe1O4u2JywH5LwD7mw5DlcNLAEREBABIfCwxZXBI7lDgZNNZqPJYAIiICNPTiXk7dsgKEcwxnYWqg5cAiIhCLpZOLHVUngJP/qHCFQAiopCaeubc/ep2FK6D6umms1D1sQAQEYVQ86LkEfZg/h7+1h9evARARBQyTe2Jc2wLv+LJP9y4AkBEFBINpx44KVI/uBzAEtNZAqhgOkCpWACIiEKgsS35TksG7wEw13SWQFLdbjpCqXgJgIgo4JraE+dYgifBk3/FCMR3BYArAEREAbVryf8nAM4wnSXo1AILABERmRdPJw5RHcyAe/lXh2Kb6Qil4iUAIqJgkVhb4p9U5Vnw5F89gkHTEUrFFQAiooCILZzThEjhBgCnmM4SOj5cAWABICIKgMZ06iRo4SYAcdNZwkjBewCIiKiKWtIt4/Ia/SZUPwsfvpM+KCxlASAioiqZ3jbzXUNq3S7QA01nCTsV9d0lAN4ESETkPxJLJy5yxHpSAJ78awNXAIiIqHKa07MTttq3QnG86Sz0Fr4rAFwBICLyiXh7Im2r/XuAJ/9ao9wJkIiIvDb1zLn71Q0Wvq3Qpaaz0LBYAIiIyDuxRal3YzB/O1/dW9sscB8AIiLyQOq81NhtW/EVQC8BEDGdh0amyp0AiYjIpaa2WYdv3+rcIsA7TGeh4qiFl01nKBULABFRrZiPaLwhcYnC+SqAetNxqHgR29psOkOpWACIiGpAvC3RqiK3KDDPdBYqnYrNAkBERCV487d++QqAMabjUHkKKltMZygVCwARkSFNi2fOgR25SaHvNZ2F3Jm8vW7LJtMhSsSNgIiIqk9i6cRSsa3nhCf/INi65qE1O0yHKBVXAIiIqii+JJXSgt4ExXzTWcgzvrv+D3AFgIioWiSWTizVgv4R4Mk/SFT8WQC4AkBEVGHN6dkJG/YNUJxoOgt5TwDf3QAIcAWAiKiSJJZOLLXV/iNP/gHmKFcAiIhop/iSVEptvY4n/uBTEV8WAK4AEBF56+/X+nnyDwXLpzcBcgWAiMgjTYtnzhHbup53+IeLwn+bAAEsAERE7i2DFVud+CRs+Q6ACabjUHWpOFwBICIKm3hbolWfx42AHGU6C5lhOf68B4AFgIioHEvn1cW2bLpcgS+Be/iHmvrwPQAACwARUcma2mYdLls23QDgXaazkHkWZKPpDOVgASAiKtbSeXXxLQMXK5yvAqg3HYdqgk7YHukzHaIcYjoAEZEfxNpSR0P0BgCtprNQTdmU68g2mg5RDq4AEBGNoCXdMi6v0SsBvRRAxHQeqjGCDaYjlIsFgIhoGI3tM99bcKzrIXqA6SxUm1TRazpDuVgAiIj2MCU9e/96db4K6GdUuGMqDU/AFQAiokCIp5MfUadwLURmms5CtU9UuAJARORnsYVzmmDlv6+KxRDeH03FcQBfPgIIsAAQESHenkgrCj8ExJd3c5M5FrTbdIZysQAQUWg1LEpOj0TwI1WcZjoL+ZVmTScoF29uIaIwklg6sTRi4S/gyZ9cKOTHcQWAiMgPYm2J2RC5DooTTGch39u86b4XXjMdolwsAEQUDvMRjTckLlbIMgDjTMch/1OBb5f/ARYAIgqBWLrlMCB6g6oeaToLBYel6DKdwQ0WACIKrjde3qPyVUD58h7ylIIrAERENaepPXmsbN50vYocbDoLBZT49wkAgAWAiAKmeUHzeHtM/ZcBvRTCl/dQBSleMh3BDRYAIgqMeDp1vK3OdYC+zXQWCr6IWmtMZ3CDBYCIfG/yaanJYyK4RlUvAPfxpepwxm+LrjMdwg0WACLytVhbYgFErwUww3QWCpXsmofW7DAdwg0WACLypaYzZsUkr/8JaNp0Fgoj8fXyP8CtgInIh+Lp1HmSd/7Mkz+ZIqq+LwBcASAi32hYlJweseTHqnqq6SwUbgr5q+kMbnEFgIj84O8v7wFP/lQLHK4AEBFVUnxJKqW2XgfFiaazEL3BgfMX0xnc4goAEdUqiaUTS7Wgf+DJn2rM0MDmHl8/AghwBYCIalCsLTEbllwPxftMZyHam7yAx1EwncItrgAQUS2RWDqxFCLP8eRPNezPpgN4gSsARFQTmhbPnCO2dQMUx5vOQjQSYQEgIvLAfERjjYlPw5arAYw3HYdoVOr8yXQEL7AAEJEx8bZEqwpuhMpRprMQFUsthysARERlmY9orCF5mQJfBjDGdByiEtjjJkR9vwkQwAJARFXWtHjmHMu2blbgPaazEJXhr103dw2aDuEFPgVARNUisXRiqdjWczz5k2+pPmc6gle4AkBEFbdrN78b+Wgf+Z5YgSkAXAEgoopqak+cs2s3P578yfcE+nvTGbzCFQAiqojGdCpuAcuhusB0FiKvFKJOYFYAxHQAIgqeeHsirZBrAUwznYXIQ5tzHdkG0yG8whUAIvJMPD23EZr/sQKLTGchqoDA/PYPsAAQkUfibckPq+avBzDddBaiShBFYK7/AywAROTS5NNSk8dG9PsqONt0FqJKcqzg3AAIsAAQkQuxdPIEVb1FgRbTWYgqLWLJb01n8BILABGVbj6i8YbUl1T1X4WPE1M4vLbx4OwLpkN4iQWAiErSnJ51YAHOnap6hOksRFUj+C2WwTEdw0ts7kRUtFhb4gJbnWdFwZM/hYoofmc6g9e4AkBEo5p8WmrymKheC2CJ6SxEJqjIb0xn8BoLABGNKJZOngDVWwHMMJ2FyBjHCVwB4E6ARLRPrenW+s269esKXAxeLqRw27JrB0A1HcRLXAEgor00t6UO2qxb71TgnaazEJkmor9BwE7+AFs9Ee2hqT1xji36W578iXZygKdMZ6gErgAQEQCg+YzmBjsfvR6Qj5rOQlRLRPGk6QyVwAJARIinU8fbeb0TQLPpLEQ1xraHxj1jOkQl8BIAUbhJLJ24SFUfBk/+RHsR4A+b7nvhNdM5KoErAEQhNWPhjGmFaPRWKD5sOgtRrQrq9X+ABYAolOKLZh5ZsKwVUMwynYWoxv3adIBK4SUAonCRpnTyYrWsJwGe/IlGI6qBLQDcCIgoJBIfS0zZMYSbeJc/UdF6cx3ZwO6AyUsARCEwvW3mu3YMyT3gb/1EpfiF6QCVxEsARAHX1J44xxHrl+DJn6g0oo+bjlBJXAEgCqiGUw+cFKkfXA6+wY+oLLYVfdx0hkriPQBEAdS0cNbbLcu5RwUHmM5C5FMbcx3ZQO+NwUsARAETa0ueLxHn1zz5E7kS6Ov/AC8BEAXHfERjDamrAL3cdBQiv1MVFgAiqn3x9NxGRX4FVN9nOgtREESBx01nqDTeA0Dkc7G21NEQ7QQQ2OeViaps467n/9V0kEriPQBEPhZrS54P0V+AJ38izwjkYQT85A/wEgCRPy2dV9e0ZdN3AXzKdBSioHGgPzOdoRpYAIh8piXdMjX/8qYOALzeT+Q9RZ31iOkQ1cACQOQjjemWuXmN3A/gINNZiIJIgN/n7lqXM52jGngPAJFPxNoSJ1oaeQY8+RNVjEJCsfwPsAAQ+UJTOnUhRB4CMMV0FqJAUycUy/8ALwEQ1bY0IjFNfR3KzX2IqmB7neU8aTpEtbAAENWoxnTjRNHx9wB6suksRGGgwOM9mZ7tpnNUCwsAUQ1qTKfilupPAcwznYUoLCzgp6YzVBMLAFGNiacTh6jqgwCSprMQhUpUHjQdoZp4EyBRDWlqTx676yUkPPkTVdcf+u7u6jIdoppYAIhqRKwtdYYAjwJoMJ2FKHR2rrqFCgsAUQ2Itycug+gdAMaYzkIURqrhuv4P8B4AItOkqS15jQL/YjoIUYht6Y90/6/pENXGAkBkShqRmCZ/DOCTpqMQhZkoHkAHbNM5qo0FgMiA1Hmpsdtf17sAnGY6CxFp6Jb/ARYAoqprTDdO3L4VKwF8wHQWIsJgIT/uIdMhTGABIKqieHpuo2r+QUDfZToLEQEQeXjTfS+8ZjqGCSwARFXSsGRmsxbyPwff5kdUM8RBp+kMpvAxQKIqaF4yZ2akII+DJ3+iWpKPWoX7TYcwhSsARBU2fdGspF0oPArIbNNZiGg3gl/0ZHq2mI5hClcAiCooviSVciznMQA8+RPVGHUktMv/AAsAUcU0LJ59gFPQJwDMMp2FiPbiOKr/ZTqESbwEQFQB0xcnD3Zs++cAppvOQkR7U8iTm1Z2bTSdwySuABB5rDHdMtex8Qh48ieqXYK7TEcwjQWAyEPNS+bMtJzIwwCaTWchomEVpBAJ9fV/gAWAyDNNZ8yKFQqFhyFImc5CRMMT0Z/nVr3UbzqHaSwARB6Ip+c2St55VIADTWchotFYd5tOUAtYAIhcmnxaarKD/H8DOMR0FiIa1Y7BPO41HaIWsAAQudBw6oGTxkSd/xHFEaazEFERBA+9cm/XK6Zj1AIWAKIytaZb6yP1g6sAOcp0FiIqlnD5fxcWAKJyLIO1SbfeAuD9pqMQUdFejQwOhXbv/z2xAOxDU9usw01noNoWez7x7wCWmM5BRCVQZHrv791mOkatYAHYQ8Pi2QcI7CtM56DaFW9PXA7IP5vOQUSlcSy92XSGWsKtgPcQte1vqEjCdA6qTbF08mOq+IbpHERUsnUDme4nTYeoJSwAu4m1pY5W6EIAm01nodrT1Jb6EFRvBiCmsxBRaRS4aed/0Bt4CWB3oldj57/cG2YsnDHNdByqHc1tqYNE9G4AdaazEFHJVAS3mw5Ra1gAdomnkx8BcMIbf3akvtVgHKohMxbOmGaL3g9gsuksRFSWx3KZ7DrTIWoNC8BOAsXXdv+BinOYqTBUO1rTrfX5aGQlgLmmsxBReRR6i+kMtYj3AACItSVOUeCdu/9MRVkACJt067UCOc50DiIq299k3I7Qv/lvX7gCAACW9a97/1COrn4QqiVN7clLAZxvOgcRlU+BO3K35V43naMWhb4ANKZTJ0H1yH18dFhjunFi1QNRTYinkx8R4JumcxCRS7a13HSEWhX6AhBR/eJwH0Xs8fsqBhRw8SWplCpuBRAxnYWIXHm6f9W650yHqFWhLgCx9sT7FXjPcJ87lvLab8i0pFvGaUFXAZhqOgsRuSS4znSEWhbqAgDIl0b8VOQD1UpCtSGvkR8CeIfpHETk2qsYO8g3/40gtAVgejoxD8D8EQ9SHD0lPXv/qgQi42LpxFIAHzedg4jcU+B23vw3stAWAMeRi4s4LFqnNl/3GgLNi5JHQOV7pnMQkTdUhMv/owhlAWheMmcmBOnijtZTK5uGTEt8LDHFttABYKzpLETkiacGMl2/Nx2i1oWyABTyhc+iyD3dBfLR1nRrfYUjkUE7hqwfA5hlOgcReUTk+6Yj+EHoCkDDqQdOEsEFJXxl8gBeO75igcioWDr5CUBPN52DiDzTm5sybaXpEH4QugIQGbP9fJT4UhdxrPYKxSGDGtMtc6H4rukcROSpa7H82bzpEH4QtgIgUHy69G9pOnVeiteHg2Q+opZGbgfA3R6JgmMH7Ch3/itSqApArC3xfkDeVsZXpwy+7pzieSAyJt6Q/DIAvu+BKEAUendu1Uv9pnP4RagKAMRaWu5XFdY5XkYhc5oWJf5BgStM5yAib0VUf2A6g5+I6QDV0nTGrJjknfUo8u7/fbAtx5qzceW6rJe5qLpiZ8cmYPvYPwCYbToLEXnqqVxH9h9Mh/CT0KwASF7PR/knfwCI2OKUfv8A1ZbtY64CT/5EgaOK75jO4DdhKQACqOv3uovggtjZsQleBKLqi7Wljgbks6ZzEJHn1vZb2XtNh/CbUBSAprbUBwHM9WCoybp93FkejENV1ppurYfoDeArfokCR1W+jQxs0zn8JhQFQETP82ws6D8hRPdOBMVmff0KAK2mcxCR5wbqrcItpkP4UeALwNQz5+4HwMv9/A9pSidO9HA8qrDmttRBCv286RxE5D0F/rMn07PddA4/CnwBqN9RaAMw3ssxReUiL8ejCloGy7b0JgBjTEchIs9ti9blrzUdwq8CXwAUWonn9z8cXzTzyAqMSx5rej51ARTvNp2DiCpAcWPvXb2bTMfwq0AXgOb07ASA4yowtKhlXVmBcclDk09LTRbo10znIKKKKAD6H6ZD+FmgC4AN52Oo3D/jR2KLUvzNsoaNiTpXAmg0nYOIvCeQO3Od3WtN5/CzQBcAqJ5d0fEj/O2yVk1fnDwYEG7cRBRMtiVytekQfhfYAhBvS7QCOKSikyhOjLen5ld0DiqL2vgO3O38SES1657ezLoXTIfwu8AWABVZWI15HOCr1ZiHihdrSyxQ4CTTOYioIhxR/brpEEEQ2AIgwKLqzKPvbWqf9cFqzEWj27njH/7ddA4iqgwRrOrr7F5tOkcQBLIAxNLJWQq8s1rzCZz/wNJ5XG6uAZt16ycBeZvpHERUESrQb5gOERSBLAACtFd5ykNimwcurPKctIfUeamxDvAF0zmIqFL0vo2Z7mdNpwiKQBYAVZxW9UlFlsXTc/nImUHbXtdPCdBiOgcRVYRGHOE9Vx4KXAFoWDKzGTCy89sUdQpXGZiXADSmGyeK4nLTOYioMhTo7F2Z/Z3pHEESuAIQKVgfhql/LtFPcotgMyyMvwhAk+kcRFQRdiSCL5sOETSBKwAiRh//stSyvge+LriqpqRn7w/FxaZzEFFlqOptG1dk/2w6R9AEqwDMR1QV7zec4pim9kRldyCktxij9iUApprOQUQVMSQWr/1XQqAKQGPDzGMATDadQyDfaTpjVsx0jjBoXtA8XoFPmc5BRJWhwHW5THad6RxBFKgCYMGqld3fpsmQ/T3TIcLAro9+EsA00zmIqCIGbbH53H+FBKoAqNnr/28lsjiWnnmq6RiBlkYEIheZjkFElaGK/9yc6dlgOkdQBaYAxNNzG0XxDtM53kKtHyc+lphiOkZQxZ1EG4DZpnMQUUW8XG/Z3zQdIsgCUwDUKZyI2vvnmb5jSL5lOkRQqQjv/CcKLPlqT6Zni+kUQVZrJ8yyiTjHmc4wjE80pRMfMB0iaKYvmnUcgKNN5yCiilg76fXotaZDBF1gCoBC3ms6wzBEVH4y9cy5+5kOEiSOZfO3f6KAEtHL1zy0ZofpHEEXiAIwY+GMaQAOMZ1jBLOig0N8KsAjMxbNaAHkFNM5iKginurLdHeaDhEGgSgAeavuvajx3fdE5LxYOrXYdI4gyEci5wOImM5BRJ5TdfQyAGo6SBgEogBY0Fpd/n8r1R83L5kz03QMX1sGS1TONx2DiCpA9Z7+ld1Pmo4RFoEoAGrV7PX/PU22C/YNqPHVilrW9MfUBwAkTecgIs8NArjCdIgw8X0BiJ0dmwDVd5rOUTz9QKw9xc1ryiX6SdMRiMh7Anw719m91nSOMPF9AXC21x8BIGo6R2n0G7F0y2GmU/hNbOGcJgG4uyJR8HRbO/Lc9KfKfF8ARKwjTWcow1ho5O7mBc3jTQfxE4kWzgVQbzoHEXlLoJf23t+7zXSOsPF/AVAcYTpDmQ6xx9T9wHQIP1EVvmaZKGgEj/V1dGdMxwgj3xcAAPNMB3Dh403tiXNMh/CD5vSsAwHlZROiYCmg4PyT6RBh5esCsGt3vQNM53BDID+avjh5sOkctc5WJ206AxF5TX6UW7X+edMpwsrXBaB+R+EI+PyfAcAEx5YVLemWcaaD1DRBu+kIROSp/h0FXGk6RJj5++Qp6scbAPdBD8trhFsFD6Nh8ewDoHi76RxE5B1VveSVe7teMZ0jzHxdAFRxuOkMHrqgqT15pukQtShiO22mMxCRhwSP9Hd23246Rtj5uwBITb8AqGQCXNfYlvTRpkbVoqebTkBEntkRgfUZ0yHI3wVARHGg6RAeG2eJrpiSnr2/6SC1ItaWmA3gHaZzEJFHBF/rzax7wXQM8nEBmL5oVgLABNM5vCdvq4dzG/i+AACAiJxkOgMReWZ1AyZ+23QI2sm3BaAQ0eA+Oqe6INae+rzpGLVABR8wnYGIPOE4ov+4OrN6yHQQ2sm3BcByENwCAADQq5raUh8yncKo+YhC8T7TMYjIC3rdQKb7V6ZT0N/5tgBAArwCsJMlonfG0slZpoOY0tSQPAoA74cg8r/eMfX4gukQ9Fa+LQAKOch0hiqYCsiK1HmpsaaDmKFc/icKAFFc0H1n98umc9Bb+bYACHSO6QxVoXrk4Gu63HQME0SEBYDI5xR6S19n9kHTOWhvviwArenWegBx0zmqRQVnx9pSnzOdo5qmnjl3PyiOMp2DiFzZOLYeofp3l5/4sgAMWK/OhE+zl030W7H2xPtNx6iWuh1DxwGoM52DiNzQpVz6r12+PIlaeSthOoMBUUDuaVo8MxyXPiBHm05AROVT6C25ju6fms5Bw/NlAUBEkqYjGDJVCtb9u16DHHDK5X8iLPOZpQAAIABJREFU/9pYL87FpkPQyHxZABw4YVwB2ElwcHRH/gYEe6dAAeRdpkMQUVlUBBf0ZHq2mA5CI/NlARAN7QoAAECA9lg6eYXpHJXSsHj22wBMNZ2DiEqnwLV9mewDpnPQ6HxZAACZaTqBcYqvxtoTp5iOUQmWbR9pOgMRleUv0R35fzEdgorj0wKgMdMJaoAFyJ3xtkSr6SBeE4A3ABL5T17EOrf3/t5tpoNQcXxaANBgOkCNmATIysmnpSabDuIx3gBI5DciX+7LrHvGdAwqnl8LAK8P76KCA8ZE9XYs8+1/l2+VRgTA203HIKLiqegvc61d3zKdg0rju5NGY7pxIoCQ7o0/rI/Enk9+zXQIL8ScRBL875fIT/4WsSPnYBkc00GoNL4rAFF74jTTGWrUF+LpRLvpEG6JyIGmMxBRCVQu3LhyXdZ0DCqd7woApNBoOkKNElW5tXlR8gjTQdxwBEF/zTNRkFyX6+y6y3QIKo/vCoAtUV7/H94420JmxsIZvl0lEdUDTGcgomLIH+vEvsh0Ciqf7wqAqPr25FYlswvR6N2Yj6jpIOWRg0wnIKJRbY0oTu/J9Gw3HYTK57sCAEvHm45Q8xQnxqclrzEdo0wsAEQ1TqGf7u3s+ovpHOSO7wqAAONMZ/ADFVwcb0993HSOUuzaz4CbPBHVthv7O7pvNR2C3PNdAXCUj4gVS6E/nJ5OzDOdo1hjLfttpjMQ0YhWR3bkP2s6BHnDdwVA+Ix4KcY5DlbFFs5pMh2kGGpFmk1nIKJhbRXR07nVb3D4rgCAlwBKIzITkcKq1nRrvekoo1EBCwBRbVJR/URfpvtPpoOQd3xXACR8lwB2eDDGsQO69T88GKeiLAdx0xmIaG8K+XZfZ/c9pnOQt3xXABC+FYACVFe4HUSAT8XSyU94EahSVHS66QxEtAfBI/3SdYXpGOQ93xUAFYwxnaHKJgCyVRTfcT2S4odN6eQxHmSqFBYAolqi6IoWCkuQgW06CnnPdwUACjUdoeoEH7eB2wFc7XKkMaJYOWPRjBYvYnmN9wAQ1ZRBy9L2Das2bDYdhCrDfwVAtGA6ggGWJfrNXEf2i6r4tsux4gUrek8t3hQoynsAiGqFii7dmOl+1nQOqhzfFQCFhHQpSj7YmE6d1N+ZvQwqy10OdsyAbnV/ScFLy2AB8MXjikTBp9/tz3TfZjoFVZbvCoAgvNeiLOi3kUYkt7nr0wAecDOWAJ9uak+e6VE016asnj0J8Ov7C4iCQ4GHctJ9qekcVHm+KwCAhrYAQHFozEmcj8dRiOzInw7gaTfDCXBdY1vynR6lcyUSyU8wnYEo9BR/zkvkDN70Fw6+KwAS2ksAu4hcNfXMufv13t+7TaRuAYA1LkYbZwnumZKevb9X8coleWUBIDJrs0adBS9n1v7NdBCqDt8VACfsBQBoqt+RvxQA+jJrBqwITgWwxcV4c+vh3AZAPElXLivKAkBkzpCItPWvWP+S6SBUPb4rAIJQPgXwFgpcMi3dMgMANq7I/lkctAMo//8vqgvi7YnLvMpXDlG+5pnIEFXRT/Zlun5hOghVlx8LwKumM9SA8RHHuuqNP/StzD4mAlc7dSnk67F08gT30cplTTQ3N1GIKa7mHf/h5LsC4IjFAgBARM5pTKfe8caf+zLZfxNBp4shI6q4pfmM5gYP4pWOKwBE1ae6IteZ/VfTMcgM3xUAcfCK6Qw1wrIUX9ntz2pj23kAyn5blwAthXzdrTByP4DDFQCi6vrFpG315wIh3F2VAPixAFi8BPB3uiC+aOaRb/xpIDOwVUTTALaWO6IAJze1Jy/xJF5p84btJU9EBskfhyTy0TUPrfHibaPkU74rAI6tXAH4O3Esa/dVAPRluv+kgnPgotUL8I2m9uSxrtOVNKnwtxCi6tgQiUY+wsf9yHcFQCIOVwB2s+s39recrPsz2VUK/MjFsFFR3JH4WGKKy3hFC/3+DkTV8bKofqj37pfWmw5C5vmuAERQz9a6BwG+uufPojvylwH4i4tBU0NDcr2bXKVw4LAAEFXWoAPno32d3atNB6Ha4LsCMFhv8RLA3t4fT6eO3/0Hvff3brPUORtAvtxBFVgUa0ue7zpdUbgCQFRBjirOGuhY/4TpIFQ7fFcAttyx5lW4uMktqBw4e60CbOxc/1sFvuZqYMF3Y22J2a7GKGoaFgCiClGIXtjfmXXzmDAFkO8KAAAosMF0hlojKsfF2hPv3/Pn/Zuy3wDwaxdDT4LIbUgj4mKMUYk6TiXHJworgX4+l+l2+wpxCiBfFgABekxnqE2y92/7j6MA1bMAvOZi4GNjmrzcxfdHxXc8EHlPVL7a19H9LdM5qDb5tAAIVwD27ZjGdOqkPX+Y6+xeq5B/cTn2V3bfc8B7LABEnlL8oK+z60rTMah2+bIAKJQrAMOwdj4RsNdOfv0dXcsBPOpi6KiKdUtLuqUiG/ZYlpZ9syIR7eWmXGf2n0yHoNrmywIgvAdgeKpHNqZTH9rXJ3YkciGA8nf+EhxccCJXjX5g6WwoH+8k8oRkcpK9ANzil0bhywKg4nAFYASW6j6X+zetWPuiQL7pZmwVXBRPzzrKzRj7YhW4wyORBx5okAlnIQNeUqNR+bIARGyLBWBkJ0xPJ+bt64OxE/FNUbzoYuyIql6PpfPqXIyxl6g4LABE7jww6fW6ttWZ1UOmg5A/+LIADI6rWwMub43IcbDPVYCum7sGVfRT7kbXw5q2bPq8uzHeaigyxAJAVL4HJr1e18aX+1ApDLz21Rux9uQGAM2mc9Qw2xH7oIFMz5p9fRhrT94O4EwX4+8Q0SP6Mt1lv354H5mGAHi6skAUdAo8NH6iLOq6uWvQdBbyF1+uAOzyZ9MBalxENPLPw32oddYlAF52Mf4YhdyAZZ7+HeKNgEQl4Mmf3PBtAVA3L7oJCQE+3nxGc8O+Puu/a11OgC+5mkDx7vjqpMvLCW/BywBExRK5v1EmnsaTP5XLtwXAEhaAIox38vWfGe7DPsn+BICrJXxVXN2wKDndzRi7YQEgKobgwUlbo2ne8Edu+LYAqCovARRBoZ9uXtA8fp8fZmCruFwFACZFxOULh94kbi5JEIWE3JOb0nAab/gjt3xbAAricAWgOA3O2LphX+nbn8muEuBXrmYQfNyLbYIVTq/bMYiCTBS35TZ1nYnlz3LnTHLNtwVgc6anF8CrpnP4gSo+N9Lb/BzBZXD3WKUFy/oOXD5VIpD1br5PFGSi+E5fZ/ZcPI6C6SwUDL4tANh5wvqd6RA+MTumiZOH+7A/k/21CFa6mUCB98TaUkvcjAFRFgCifZJr+jqzl4D7n5CH/FwAoJBnTGfwDZELR/q4YEWuAOByWdG5Ztj7DYogyhUAoj0oRP8519Hl6cZbRIDPCwBUWQCKpTgplk7OGu7jTSvWvqjAcldziMx06usvL/frajssAER/ZwvkE7lM9/dMB6Fg8nUBiNZFWQCKZ8HRpSMdoCJXAdjuZhIVvTienttYzneHonUsAEQ7DSpwel9H102mg1Bw+boA9N790noAvHO8WCKfmHvy3DHDfTyQ6epTwO2/cCY6Wri0nC++nFn7N/DGTqKXHTgf7O/Iurovh2g0vi4AO+lvTCfwkcbXJhQWjnRAVCLXwOW9AAL9dNMZs2Jlfp2rABReiq6IyrEDHeufMB2Fgi8ABYA3ApZCxRnxZsDezNpuUdztcpoJ1pBzWTlfVKDb5dxEviTA/9mKY3s7u7jHCVWF/wsAbwQsiagcF29LtI58lF4Dl48bqeDCMrcIXutmXiJ/0p8VhsYev2lldqPpJBQevi8AkaHCUwC4JWYJVOT/jfR5X2f3akDvcznNuIhIyU8E8B0PFDYCuTU3tfGUTfe98JrpLBQuvi8Avff3bgPwa9M5fOac2NmxCSMeodY3XM8i+v8alsxsLuk7Nla7npfIH1RUvtrX0XUet/YlE3xfAHZ52HQAn9lft40Z8WbAXGfX0wAedTnP2EjBGvGegz3ZEeFLnigMBqFyZl9n15Xg7n5kSCAKgIj1iOkMfmOJnDnaMaryLQ+mWjrSo4d7Gsh09QHY4sG8RLVqI1Tm5zq77jIdhMItEAWgD+ueBU8aJVHgxMZ0Kj7SMf2dXT9T4AWXUzW9OnHo9JK+IeAqAAXVHyzHOmbXChuRUYEoAMjAFsFjpmP4TNRynNFOzCoqP3E7kahcVNIXFH9yOydRzRE8mB9T996NK9dlTUchAoJSAAA4jvAyQKkEo14G2GHjJgCvu5xpXjw966iij1beB0BBI9/PtWYXbLljDXe6pJoRmAIgcH5mOoP/yFENi2cfMNIRr9zb9QrcbwwEOM5nij1URfgkAAXFNgXOynV0XYRlcEyHIdpdYApArrN7LQTPm87hN1Hb+dhox6iFG9zOo4LTYwvnNBVzbJ0zxEsA5H+Kl9S2ju3vyN5hOgrRvgSmAACAqHSazuA3qnoWABnpmP5M9teA6w16xiCaP6OYAzes3NADoN/lfETmCB4cM0aP7F+17jnTUYiGE6gCoLbdYTqD7wjmxNpSo1+fF7nF/WTWqPcc7IYveSI/UkCuybVmF3Tf2f2y6TBEIwlUAcitWv883P+mGkaj/mZuR+xbAdiuZlE9srktdVBRhwrf8UC+87IoTsl1dH2e1/vJDwJVAHbhKkCpRE8d7ZBNd6/vhQePWjpFlA0AUFgsAOQnv4fqu/o6sw+aDkJUrMAVALUtFoDSzYqlWw4b/TDNuJ1IRU8r5rj6Qv434Bap5AeKG+rEPjbX2c03WZKvBK4A9K9a95wHu9eFUGTUVYBItLASQMHlRIc3LZ45Z7SDNqzasBnASy7nIqqk1xQ4K9eZ/WRPpme76TBEpQpcAQAAUV1lOoPvKBaMdkjvXb2bAHG/46JjfbTITLwMQLXqWUfsI/iIH/lZIAuAFZVbTWfwoSNHezcAAKhipduJROWkog60eCMg1RwF9LsNMvHYgUzPGtNhiNwIZAHYuCL7ZwF+ZTqHz1iW6imjHRStizzgfip9T+q81NhRj4KwAFAt2QzVj+Y6uj+3OrN6yHQYIrcCWQAAACKud68LHZFR7wPovful9RC43dxk3Patzj+MdtD4CfJ/APIu5yJyTSFPRJ3CO3Kd3febzkLklcAWAGtw6B4AfzOdw1dU39+8oHn86MfBg1UAOWG0I7pu7hoENwQis/IAvtgvXe/btUMlUWAEtgD03t+7TaB3mc7hM+Od+rr5ox2kjnrxrPO7izpK+ZpnMma1ozg615G9GhmXm2AR1aDAFgAAEMH1pjP4jQPMH+2Y/obGZ+D+FcFHIo3IqEdZeNTlPESlckTxnXET5V0Dndn/Mx2GqFICXQA2ZrqfFYD/Ay6BiB4/6kHLn80D8pTLqSbF0HLIaAeNmyBPARh0ORdRsbrFwYl9ndlLdl2CIgqsQBcAAHBErjOdwV/kiIZTD5w0+nH6uOuZnOgRox2z61/CbssG0agEcuuQRA7vW5nlZScKhcAXABm7/VYAW0zn8JFotH7wPaMdpI7+wu1EDrS1yEP5L2SqpJwCbX0dXee+nFnLG4cpNAJfAHK35V4X4Iemc/iJQka9DLDf9vrfAnD1LLQIRr0EsDMP7wOgyhDIrXViH9LfkXW9wRWR3wS+AACA2tEfAOBe3UXT+aMdseahNTtU8LzLiYoqAP1TG34D4DWXcxHtrtsRObmvo+vcnkwPVwgplEJRAHKrXuoXxc2mc/jIvGLuAxBHfutyngSWzqsb9ajlz+aVOzuSNxQqy+2hsYcOZLr+23QYIpNCUQAAwLbs7wB8lrdIUat+6JjRD3PcFoBI88svTy/yWF4GIFdE8aID5/hcZ9f/23TfC1xRotALTQEYyPSsUYBvCSySwHnXaMdYUNePWOZRSBR1oG097HYuCq0CINeMnSRvH+hY/4TpMES1IjQFAAAsx/mW6Qx+ocA7Rzsmnx//ws5Dy2ep1VLMcf2r1j0HoNvNXBQ+AvwKYh+R6+j6PJ/rJ3qrUBWAvpXrfwMuJRdFgHeMdsyuZdSNbuZRwZTiD8Z9buaiUOkXlfP6OrLH5TI9fzQdhqgWhaoAAICI9QW4/K01JOZMSc/ev4jjXnQziSgmF3usisU3sdFoHFHcFqnLt/Z1dt0C/m+daFihKwB9mXXPAMrfJEcnY219++iH6Qsu5ymmZAAAGmX84wBedTkfBZXIbyx1ju7rzJ7Te1fvJtNxiGpd6AoAAIjii+ATAaNyIvao9wEA4uq6vEInFnvs6szqIUD+x818FEgvq8qFudaud2/sXO/2yRSi0AhlAejr7F6tqreZzlHrVEe/EVAgru4BACClHKzi8DIAvcERxW2wowf1d3b9GMvgmA5E5CdR0wFMiVrRK221lwAYazpLrbIgh492jC3YaLm4yirQ0V8JvJu6gv1gIRItIMR/dwkQ0f+Bg0v6OrtXm85C5FehXAEAgN7M2m4A15rOUcsUmD3aMVJwuQKgVkkrABtWbdgM4ElXc5JvieJFgZ7el+k+iSd/IndCWwAAIFKXvxq8qWwk+7ekW6aOdIAdzbu62UpFCyV/B+BlgPDZLILP9k1rOLSvoztjOgxREIS6AOy8U1i+aTpHLbMdGXEVYEKdtc3dDLK11G84kQgLQHjkAf3umHp9W18m+wMsfzZvOhBRUIS6AABAg0z4dyj+bDpHrVKRWSN9Xv9yvasCINCS92TftGLtiwD+4GZeqnkKSMZRuzXX0f257ju7XzYdiChoQl8AVmdWD4ni0+CGIcMZsQCseWjNDrh6pLL0FYCdX5O7yp+TaprgQUfkiFxH1+kDnT1/NR2HKKhCXwAAoG9l9jEAd5jOUYuKuREQwPbyx9eBMr+5AixtwSJ40oFzXC6T/chApuv3puMQBR0LwC5aZ10K4BXTOWqNQJJFHFbSo3y7sxz0lvO9XCa7DsD/ljsv1ZQ/ALogl8m+h2/rI6oeFoBd+u9alxPgi6Zz1BoFGoo4rK7c8a2IVVYB2El5GcDPFC8pcFbu0Ow7cx3dPzUdhyhsWAB20yfZnwDgVqJvNeJjgNi5k1/Zm/LksXVDud91xMqAWzr7kP5VRD6e25w9qL8jewd38CMygwVgdxnYljoXgieV3Y1YAFrTrWX/9g9g40BmoLybAAEMZLr6IHjMxfxURQq8oKLn5KT74L5M1814HCXvAUFE3mEB2MPOl4nIv5nOUUP2R3r4a/wD0W1TXIz9JxfffcPdHoxBlfUnhZ7bvyl7aH+m+zZkWLCJagELwD7kpk77V/BSwBtkRmHG5GE/HULMxdiuC8COvHQC2OF2HKqI1Qo9NyfZw/s7um/lb/xEtYUFYF+WP5sX1fMADJqOUguGLBn2MoCI3VjuuCriegOmV+7teoWvCK41+owCbblDd534+Rs/UU1iARhGX2f3aqhcYTpHTbCiE4b9TKTsFYCIY/+m3O/ugU8DmKcAfmo51vG5ju6j+zuyK3lzH1FtYwEYQe6wru8B+LnpHMY5OsIb+yRR5qjbN05req7M775FnRT+C9zDwZQdAG4U0UNzHdkFG1eu+6XpQERUHBaAkSyDUxD7XABbTEcxqU4xbAEQxcFlDSr4nVcvdunJ9GxX7uRYba8C8v2oU5ib68h+oi/T7cUNnURURSwAo9ic6dkAlc+YzmGSijPs3xOFc1A5Y4p6u4ufKm7wcjwaVhYqF9tDY1tyHV0XbVi5ocd0ICIqDwtAEXKdXXeJ4jbTOUzR4VcABJCyCoAt8oiLSHsZ6Mz+nwp+5+WY9CYF8KgKFuUkOyfX2fUfm+57oeS3OBJRbSl7B7ewsYby/2iPrTscirebzlJ1keg+C0B8SSqpBd2vjBEH6waHKnCtWK4H9EfejxtaW0VxGyz9AZf4iYKHKwBF6r2/d5taThuA0L2X3HacfV6rd/LOe8obUZ7ovb93m5tM+5KHdScAz8cNH/0rRP95SCItfZ3ZT/HkTxRMLAAl6F+x/iUBzgTC9XiTZe37DnuB9d5yxlNoRZ7bfzmz9m8C6ajE2CHgAHjAETk519F9YC7T/b2XM2v/ZjoUEVUOC0CJ+jqyD6noV0znqKYxdbrvR+xEjytnPFFd5SrQiIPjxoqNHUy9gFwD1bflOrKnDGS6/hs7r/kTUcCN8Hw3DWsZrNjq1L1QXWA6ShVoTrJ1e+7m1rAoOT1iYQNK/zv021xH9kjv4u1F4m3Jv6jggArO4Xd5Ae6H4oY+K/s/3KmPKJx4E2A5lsGxTx1zZqRu8GlImc/B+8er+zpBRC0s1DIKpAju8SbWsBSiNwLyzQrP4zuieBGiNzp1kZtzd63Lmc5DRGaxAJRp030vvBZbOPN0RKxfA5hoOk8F7XP5X4FFZYylClT8Gr0t1i2W6tcAuHlVcVBsF0hGHLlh48p1T4DL+0S0C+8BcCG3av3zjkgagCc72tUiFc3u+bPmM5obABxf8mCCx3OZ7Dovco1kINPVB+ClSs9TwxwAPxeRj+fH1MX7OrrO3bVFL0/+RPQmrgC4NJDp+u94OrVUVW9EAO+pEJW9TqSFfH2bQEv/u+PIdZ6EGkVLumVqXpGqxlw1RfCcKm63xb5rc6Zng+k4RFTbWAA80JfpujmWTs6A4irTWTwne/8mLdBPlTHS5nGTULm7/3eTd6yzIBhbjbmMU10Pse6Ebd+eW7X+edNxiMg/WAA8kstkvx5vT7Qo5B9NZ/HUHisA0xfNOs6Bc3gZI93adXPXoEephhU7OzYB2+XySs9j2BYoVonI7X2HZX/J1+4SUTlYADzUJ92fiWliOiAfNZ3FK5baa3b/s205ny3jOocN1R94lWlE28d+DkBzVeaqrgEA9yqsjv6pUx97802K3PaIiMoUuGvWprWkW8blNfJzAMeYzuKBoXETZf83fnOPpZOzoHgRJRZHBTr6O7LpiiTcTTw9t1E1vwZAOe8nqEV9olilFjpyyP6Cz+sTkZe4AuCxnkzP9hkLZyzIR6JPCnCg6Twu/WH3ZXtx8BWV0v/OiMq/eRtr39TJfxni+5P/BgArLcfq2Hj4ul9xeZ+IKoUrABUyY9GMloIVfQzAXNNZyqXAj/o7sp8GgNjCmYciYj2HEh8dVcgT/R1dZW0ZXIqGxbMPiNj28/Djs/+C5+HoT9WS+/pbs0/zpE9E1cAVgArZsHJDz4xFM97n6xIg+r9v/t/RyNVQLX3fCHG+5mWk4UQc+4fwz8m/AMHTonq/JZF7ezPrXnjzk4zBVEQUKlwBqDA/rwRYjpXauHJdNtaeeD8gj5T6/Wr99t/UljhLRG6r9Dwu9QN4QIGfqmz72UBmYKvpQEQUbiwAVeDPEiB/zHV0Hb7zsbqxfwQwq+QRROb3Zbp+UYFwb9q56U/kzwCaKjlPGWyI/A6O/gwqP80d3vUMl/aJqJbwEkAV+PJygOp9AIDtY7+BMk7+EDxS6ZM/AOQ1cg1q5+S/URSPQPT+qDg/78n0bHnzk5UGUxER7QNXAKrITysBCvwDHBWx5Jco/Z0RjqXO0Rs71/+2Etne0JhOvMdS+SXM/T1+BcBjKvKwovDwQKZnzajfICKqESwAVeaLEqDoghM9GpHCMwCSJX9d9eb+zu6PVyDZm1rTrfWbdOvvALRWcp49bAfwtIo+BsjD/cg+w2fziciveAmgyjas3NDTmE6911L9KYB5pvPsi4jcohH7dpRx8gew1anTL3qdaU+bsPVfUPmT/2sCPKnAE47oL5sw6ZnVmdVDFZ6TiKgquAJgSOzs2AQMjr0Hig+bzrIHB8AKAGeU+f0v5jqyV3uYZy/N6VkH2ur8HvD8hT+v7Xo87xFb8CRP+EQUZCwAJi2dV9e0ZeA6gZxrOspuBgGMQTl/NxQvjZskh1b0pT/LYMWeTz4B4FivhhTg31TsW3OtPat5pz4RhQULgHkSb09dqdArTQdxS0U/2J/pfriSc8TSiYug8l0Ph3w815E9AYB6OCYRUc0rfWc38pr2dXQtg+ITAAqmw5RLobdU+uQ/fdGsJFSu8nDIbY7YF4AnfyIKIRaAGpHrzN4ISDuAbaazlGGzJfX/UuE5xLHs5QAmejaiypf46B4RhRULQA3JdXT9lwIfwM53v/uGAhf1ZdZUNHO8PXUeIB/0cMjf56yu73s4HhGRr7AA1Jj+juxTUadwBKDPmM5SFMG9/R3ZOyo5RcOi5HSF/ruHQ6rlWBfxGX4iCjMWgBq0YeWGnnETreMVeovpLKPoi0TzF1R6koiFHwKY4tV4Arlt48p1v/RqPCIiP+JTADUulk4shcp/Aqg3nWVPIjilL5N9oJJzxNKpxVC928MhX7MdHLhpZXajh2MSEfkOVwBqXC7TvVwdPQFATZ2wBPrjSp/8m89oboCqt9fpVa7kyZ+IiAXAF/pXdj9ZEPtIAE+bzrLLn3TcjksrPYmdr/s+vH3T3+rctGk/8HA8IiLfYgHwic2Zng2TXq87HirLDUd5XUTTudtyr1dyklh74hSUvx3xPomDz2L5s3kvxyQi8iveA+BD8XTqPN25ND6p2nOr6Dn9me7bKjlH4mOJKTuGZDWA6R4Oe3euI+tpoSAi8jOuAPhQX6brZonK4QL8qqoTK26o9MkfAAaH8B/w9uS/LSKRyz0cj4jI91gAfKrv7q6uvk3Z9wnwNaAqz7P/vs6yP1vpSRrTqZO8fzmSXNWbWdvt7ZhERP7GSwABEGtLHQ3R2wHMrdAUm6F6VK6ze22FxgcATD1z7n51O/J/BJDwbFDFS5O21bWueWjNDs/GJCIKAK4ABECus+vp/Ji6eRW6QbAgDtKVPvkDQN1g4dvw8uQPANDP8eRPRLQ3rgAETDydaFeVnwCY6sV4ovhMX2f2h16MNZL4ouT71MLP4eXfScEjuUz2A56NR0QUIFwBCJi+THeH5VhHAHjU9WCKG6px8o+dHZugFq6Ht4U0H3Gk4vcsEBH5FQtAAG1cuS6b68ieqNBuEV/bAAAH0klEQVRzAWwpdxzH0pu9SzWC7eOuBjDbyyEF+H5vZ9dfvByTiChIWACCS/s7um+NOoW3Ayhry15xrAaPM+2laVHiHwD9jMfD5nZI5Gsej0lEFCgsAAG3YeWGnlxH9hQFzgIwUNKXRQ+rTKqdWtIt42DJDfD676Hiipcza//m6ZhERAHDAhAS/R3ZO+rEPmjXkwJOMd8RwRGVzDSk0WUCHOjpoCK/yR2WvdnTMYmIAohPAYTQ9HRingPrWqgeOcqhW3KHZhuxrLjCUIp4etZRqs5TACIeDquO6HEDme7q7pBIRORDXAEIoY2Z7mdzA13HKnTZKIdOja1uafV6/tZ0a73CuQHenvwhkNt48iciKg4LQFg9jkK/dF8FYMNIhwkix3s99Wbd+iUoDvV42NcKUfsLHo9JRBRYLABhloEN4H9GOkRVjvNyyqaFs96uwOe9HBMABHrVprvX93o9LhFRULEAhJ3KI6MccBy8uldkPqJWxLkJQJ0n471J/zrx9frveTsmEVGwsQCEnNbLowB0hENi0xcnD/Jirlhj6lIF3unFWHu4mPv9ExGVhgUg5PrvWpcDdM1Ix9iOzHc7T2O6ZS5Uv+x2nD0p8FCuo/unXo9LRBR0LAAEVTw50uei6vaFOmIhci2AcS7H2dNQVKzPeTwmEVEosAAQRGTEAgDg/Vg6r+zr9rF08nwoTiz3+8NRxfd6M+te8HpcIqIwYAEgWJGRVwAA7Ne0aeCocsZuOmNWDIpvl/PdUeTyVuTrFRiXiCgUWAAIG1dk/wJg80jHWJZV1mUAyev3AUwp57sjjivyee73T0RUPhYAAnY+BfDrEQ8Q/VCpg8bbkh8G9PSyUw3v2b7WrlsrMC4RUWiwANAu8tSIHyuObEm3TC12tIZTD5yk0B+7jrWvJCqfrsT7CYiIwoQFgAAAljPqjYCRAqwTih0vUjd4NURmuoy1F1W9JdfZ9bTX4xIRhQ0LAAEAIpH8bwAMjXSMqnywmLGa0sljIPiUJ8He6jVH5YoKjEtEFDosAAQA6Mn0bIfIc6McNnoBWDqvToDlqMDfLYFetWlldqPX4xIRhRELAP2do6MtrScbFs8+YKQD4lsGLq7Am/4AYA33+yci8g4LAL1JLX1mtGOijj3sKkDzkjkzFfIlb1PtJIqLuN8/EZF3WADoTY4VHfXmOsXw9wE4hcJ3AUz0NNROD/R1Zh+swLhERKHFAkBv2rRi7V8xyoZAUD1h7slzx+z546a21IcUWFSBWEN2JHJxBcYlIgo1FgDanYrob0c5ZsLWiYV37/6DuSfPHWNBv1+ZRPqdTSvWvliRsYmIQowFgN7KsUa/DOC89e2AW8cXrlDBiDcHlqkvP7b+GxUYl4go9FgAaA+jPgkAWH+/D6Ax3TJXRS+rSBTBJVvuWPNqRcYmIgo5FgB6i4hTeBo73w0wPNV58fTcRgCwEPkegLGeBxE8mctk7/J8XCIiAgCI6QBUe2LtyZcAzB7xIJEl4jiqIisqEMGx1Dl6Y+f60e5HICKi/9/eHYRIWcZxHP/933faDJTskIq47OISgRJEp92LFB66eBBlUBDCbkFJgocIzSIP3fLSRe0WusS4eBKh0wpmeFqQuuQkO1tOM+uqUKnkzrx/D4G0zoz77s7zzK7M93Mefv/n9v7eeZ/3fZapsNILwKp0TYsVANfezGwsRoM01yku/gAQF48A0Mpy7AOQF03aEmH6vWRg/niEXADA/1AA0Kq5+JsAsbjZ0ep4dW6l5gNAv6AAoMW6h4UpSb3/7K7p59nb02d6PhcA+hAFAC3Kl8r/yux6r+ea7CNNqtHruQDQjygAaG/xkwHDcp2rlaYv93QmAPQxCgDaynMyYEAP0iT9tIfzAKDvUQDQVp6TAYMxO1Et3Zzp2TwAAAUA7eU6GTAE12/r/imcjD4HALAABQCd5DkZsGuW6OPypXLv3zgAgD5HAUBnOU4G7I7/UCtVLsadAQBohwKAzuJuBHzUTAuHIuYDAJ6BAoCOMvmjaOHuX899f/PXaPkAgGeiAKAjc/skUnRtfs3AV5GyAQA5UADQ1sY9w6OSdkYJNx25e7b8V5RsAEAuFAC0ZYl/HidYP9ZLlfEo2QCA3CgAaLF5z9BbLr0bITpLsuywJI+QDQBYAgoAWjRT+0KShc4116k/J36P/m0BAMDiKABY4NXi8Jty3xUh+m4yMH88Qi4AYBkoAFgglR9ThLt/NztWHa/Ohc4FACwPBQBPbNg3OOKu3aFzTZqa1fTp0LkAgOWjAOAJaySHJaWBY7PM9KFKagbOBQB0gQIASdL63cPrZToYOtfkp2dLlZ9C5wIAukMBgCTpxTR7T9LawLF3khcanwXOBAAEQAHAf8zeDx7pdoSNfwCwOgXf7Y3nz8biljfk6fWQmSZdqZ2v7BAf/QGAVYl/ACD3NPTO/3m5fyAu/gCwalEAIMmCPvt32cnaxMwvITMBAGFRACD3xreS/g4UN2MvPfwyUBYAIBIKAHR74o8bZj4q6WrXYZYdqn9Xv9/9qgAAMbEJEAtsKA6Nmdt+Se9Ivl1LKYmuc/WJyoFoiwMABEMBQEevFLe+XFA2ZvJtcm1NpBGXj0g2JGngqZ/XC83G9lsXbt1ZibUCAJaGAoClKyrdlA4PZs3stUT2uqS35fZN7fz05EovDQCQz2MVlgRu6LRBwAAAAABJRU5ErkJggg==;" parent="U1V3mUfAhHY3gY_KVcL6-5" vertex="1">
          <mxGeometry x="3" y="13" width="24" height="24" as="geometry" />
        </mxCell>
        <mxCell id="U1V3mUfAhHY3gY_KVcL6-11" value="" style="group;horizontal=1;" parent="1" vertex="1" connectable="0">
          <mxGeometry x="640" y="140" width="140" height="70" as="geometry" />
        </mxCell>
        <mxCell id="U1V3mUfAhHY3gY_KVcL6-7" value="&lt;div&gt;&lt;span style=&quot;background-color: initial;&quot;&gt;Nextcloud&lt;/span&gt;&lt;br&gt;&lt;/div&gt;" style="html=1;verticalLabelPosition=middle;align=center;labelBackgroundColor=none;verticalAlign=bottom;strokeWidth=2;strokeColor=#000000;shadow=0;dashed=0;shape=mxgraph.ios7.icons.cloud;fontSize=14;fontStyle=1;labelPosition=center;" parent="U1V3mUfAhHY3gY_KVcL6-11" vertex="1">
          <mxGeometry width="140" height="70" as="geometry" />
        </mxCell>
        <mxCell id="U1V3mUfAhHY3gY_KVcL6-10" value="" style="shape=image;aspect=fixed;image=data:image/png,iVBORw0KGgoAAAANSUhEUgAAAPAAAADwCAYAAAA+VemSAAAACXBIWXMAAAsTAAALEwEAmpwYAAAc6ElEQVR4nO2daXBj1ZmG1UCAWPKixXZ7lS3bksMWEmqqUsNMGEKApCpdmQQIAWaakB/5M0tmQoAUNTVNZiCW993uzXZbXlu25E66iqUJy4ROfqRYmybgK90rWbvU0NAQumloW1NXXtqStdzl3Cup/T5Vb5WrMZLu0fee75zvLFYoAAAAAAAAAAAAAAAAAAAAAAAAAAAAAAAAAAAAAAAAAAAAAAAAAAAAAAAAAAAAAAAAAAAAAAAAAAAAAAAAAAAAAAAAAAAAAAAAAAAAAAAAAAAAAAAAAAAAAAAAAAAAAAAAAAAAAAAAAAAAAAAAAAAAAAAAAAAAAAAAAAAAAAAAAAAAAAAAAAAAAAAAAAAAAAAAAAAAAAAAAACXGHuilxl/G6w3LYTvNNki/968EBlqXog8Y1qI/KnZHjnRvBChTfbwadNC+HxM9vBp9t/Y/xb7nYXw0yZ7ZDD2/9rDd5gWgnXsa2b7sQC4JKm2er78lYXQbc0L4SdXDRg517wQiaaUfatMmXXOaIv80WgLP2m0nfqWfsx1dbafG4C85dqFD2qaF8KPNdvDLzXbIp8JNCUHhVPpnNEeftG4EH600fZ+dbbbA4C8yLQme+Qeoy181GgLfyGBKS/KxkehZZMtdLx5PvQz05FThdluJwByCtORUyajLTxitEX+Kp8pt8rIQU220CdNtvDBZnvEmO12AyCrmBZC15vsIYvJHroghSG5mjKt5lMptGycDx9ttp66CWEEthVNC+Ebjbbw70zzoRXZTTlPWHOhlab58BHjXOiGbLcrAJJygyWoNM2HzCZb6II8WVIaNSVqLhxttIa+aLSGehsn3i9CGIFLjsb54C7jfNiTF4ZcM+VWhTKq0RoMNFnDuxXR6I5stzkAomGXYJps4d9n3ZQCDSlcwWOm6VOVCCGQtxjnQrcZ58KhXMuSxGRNrUZrKNpgDZ0yzAW+m+3vAQBe3PJS9IqmufATa5XaHM6S3E3ZKFSHgysN1lDvTfuiX0IYgZyn/reh8sa50PF8yZKy6HAo2nA49AeDLViW7e8HgJQYrcH6JmuQuuRNeViYGmaDdIM13IgQAjmHwRa8rnEu6MtLQ4ow5RaTxhRMrdlAsMnquzHb3xcAGzRaA7c0zQU/yilTEjVkBlOmNGsKzQQ/bJoNfBMhBHLCvI3W0Ln8MyVBQwrRTPAsTAyyisEaur7RGjqdbVNKkiUllGFN9bOBM/pJDKdBFmiaDxkarcHgJZ0leRpyQzN8FPDXWoP1CGIgG43WQGnj4eDitjHljLSqnw4466dD5QjhXCYa3dFsC15nOhJ+yLQQaTHZI/ZmW+REsy3CGG3h00Z7+HOjPXye/dlkj9BGW+SE0RaxmWyRFtNC+Cfs/5sL+2vZTRqNh4PHRRmSlClnAisNM4G3G2YCo4aZ4K8M0/4fsMN6djmrdmpJzW6euMZ68kr256apkIH9b4aZwA/Z362fDozVTwfeNkwHVqQ2aFJNswpskv9lhTV6eU7GqT1yotkeYdbuGfs87p4xW+SEKQfjlAgG6+likz3yU5MtfNhkj4R5HVZPdpRuPhw22cKzJlv4Ifa1s/FMDbMBc1az5Ezgo4aZwEjD4eCPDBbxGyPY12iYCd5bPx0YNUwHPiJrynjVZ1DdtP9JMt+SsDhtXggfbl6IhIVfW7QRv2GTPbtxKpxodIfRFv5O7AHs4XNCDqhzPEZ31jgfnjHNh++Uq8czzAS+G8t6cg9dpwMr9TPBZ1ijSXnZHHulj2E2+GPDTPDZWGaeTm/KeuLyL9fN+O9QyB6nkXO8b0LhHsuyx6kw9kQvM8WOzIVeFWxK4Rv9T8SOsEk4BGuc8FYbZoOnZC7wLBumA0cbpgKy33phmAxdXz/lt9RP+S8QNelUetVN+cM100uVksbpQnCX0RZ6VejtJ0LPacsRp4Jge5cmW+hdqc62pt7wH7+jqXEu9Jem+dC3pXjGhtnA72Uu8Dyrn/I3K7KMfibwlbrpwPNiTMlHdVOBqH4y8KxUcWqyhd6VO8EkqnEuLFmc8qLZFqlomgtZpDKk4G2Jh0NHDVZ/LannrJ/1PyBfgScQaJgK7FbkGPVTvl11U4EloabkrYngj4jGqS1kkdKUgmLaSjZOeWGcC32/aT50WjZT8tyK2GANnmmcC94j9jnZK2LYtUryVdek88kjbMVYkaOwbVE/5bcKMuQkX/mDJApAxoQ4zYkkExfTZOKUM41PU1exdx81WYMrchpS8G6m2eA+dilF6PPWzwT6pKi4xlVfpwKf1U35f57bRY6L1E0FfqafDJznb8o4g3JRp5g4Nc6HetlL97KRZPjHtbg45cQ11rCq0Rp8XnJTEt4cYZgNvCSkN2e3+Rmm/Bekq7rGijYf1U0FblHkGfrJ4K36Sf8ZAaZMKv26JjbJ4vuietJzPdE4nctioskc24LilBPsTpmGw8HXc8WUAtZP326yeqr4PHPdtP+olFXXukl/SD/t+5oiTzFYgtfVTfp9aQ2ZaEqeqrX47HzjtMkafD0nRn+CduLxj9OM6K3hnY3WoEPch5dnu2C66nD9TIDiumWvbtb71fop/4pkFddJf7DB4sn7w+1VU96mWosvJMakaWXxrVRbgteJilNrniWbWe5xyqlwEcu8snxw/qYUUOU9oR9zlWR67vpJ/2GpKq76Kf+ZfM68ibDD3NoJ/4fijJpatRbfFOc4tYo/8ZUbsc0tTtM3ytPUVYbZ4MukP7hka6hJCkspdvy8mK5gUDfhM9VP+i+IWgZJUbzRT7AFq/yb82ZCP+m9tdbiP8/VlBfNyUHjvgtspk8Xpw2zoZdzwZAk47t+OpA2TjNimA30Z9+UBLfvxe/46Ur13HVTgRHxyyApqq4T/n9TXKLoLd7/5GRI3vJFa8Z9B9LG6WEZsmQWkk66OE1L/Wxwl2FGgpMqnLMkma15KYe4k/4V/YT/B4nPXW4JKvUT/k8ILYPEF3Ym/L/Ll6UiQUSjO2osPjsXQ25onKMOef9aag2rEt+ycTa4S8j+dEl30pHcNz6VPE7TwlbBDDPBD7PygXmaUtQGgonA6cR9t3UTvgeJLYPEyyd6TpMHsBtRasd9fs7G5KCaNVUd8v5TYpw2zAQ/zJ2pmWSJZ0ucpsUwHbTmRJYUtauHm+lqJ33Tm5+9btL/AsllkE3LIfLttsky1Yf893ExJC8d8kWrx7zPbYnTmbw1Jd84j4vTlNRP+2+XPUsSNiVvc034blsNPE+V3uK7QH45xHdMsc2oHvf+PpMh+cu7XDXhrWZfv346dHveGVJknK/HaWqs0cvrJwPv5lKWFGpKXssW47532GNmtRb/Y8SXQcZ9F/Rj2T9VJDe1I4FrWMMJM2pqVY/5Ho7F6XTg3ZwwJcGtoxlHfJbVOE3Z6HWTvntzNUsKNRDnSuch7921Fv9LEiyDzCq2KdVjvjlRZl01bJyqxrzH6mZ89+ZqlqyTONZrJ7x3J2/taHSHfjLwpiymZIepFt8f9JO+h/UT3m+w17rctO/VL7Fif2b/rdbi+6Xe4nsllsGEGDJZ1TPtvMzzVq3Ff47o8se4b6V2wv91xTalasT71Zox70o6Q6aXd4uqRr3n6qYCb8mSJSd8F/STHOJ0wvcKkakXhwRRY/G/kXQlQ28JfIdnVZW/xv1n9eO+Vj53ObG/W2Pxt9XEmYvnEgSX4knsNXl2CJk/wzOKbU7VmO/ZTKbkKzYuJR26Wvxn9RP841Rv8bfVTvjPERsVpkhC1eOeO7d8AHaoJ1WvsdZzzFWO+mqEBoJh3F9bM+6z865ochyuxV5PYMeQpsO4V7HNqR713C/IqKOpxbatZENXi3+uYUZknPJZCxcUV97pLftIV3sdfqbk9CEPeVdqxr1PENnAEI3uqD3kfYxUcWTzkK6GVCZfU/W47yP2kjjFNqdin7+gatR7Jp0hN6uKg2JZmHTtZNy3oh/3E43T2nHvMpGYSozdMd9Zwz764rFD/bjvp6TmkvHyLldbfD9WSNCrb55bZSp8cBm+CVmXzLDkMUL6ufOVqhHPIS7G5COyBU2fNHE67rm/JpbASC2jbdK478GNN6od9x4mOp+8GMSPk26UjcYZ8/234DlVYs+/loEJL3kQu9Mp36kY8dzH2Zwj3FQ7Tq6gKXWcilgyS6mqsfVhNLt/9ZA3TGouuenN5yTd9xuN7qga9dozzZe4Bg5R8455V+oP4E+FrFNuCZZVHfSscDUnF8XqFhbxRc3qcenjtGbMZ+dWheeehKpGvcHY564e9VxPZD65uXcY9Z0VU7DiSsW4v7ZyxHtObM/OGp3vnDl97+g7IfWz5xuVI96T6b6Dyi3ypNZBTyyIa4XUJxLmknLFKbv8JbaAtzXpLF2rqD7ke0hYsKb7EB6zQiaqRrztXHvtVAFSFfvMwtcmt/SOY95RuZ4/X6g46BnPZEo+igXwuOikI2ucihkhpkhIuxXVo74WYnNJViOeC+yQSa6GKTtAl1eOeJbFBMV6ZZOUqsa8v5Lr+fOFioNLj/M1aVqNeMTNJUe9ssdp1ahnmcT8/2JC8jylqBr1LghJ36lUOer9P4XMVB70HBcSBBUHVrVayBK+LpnYThVjnn+Uuw1ynZ0HvXeJNe369xXTwXSjJk5zSNnjtGrEc5zfSDFDUjqwNK+oHPG8JSB1p+sVHpa7YSoPeh5J+iVz1Po8WGzntaFD3hvkboNcp3K/78aMpuSjtXlwtcBON2txKnLqENd2B5feUFSNetxCqoCpeomq/d5vyN0wFQfcN3P+4vcnailaNbo6jCaiEW9058GAXu42yHXK97vrBZs1iSrXR06jAjvZsezEKZHRx0UxiqqDnvfTFXj49hI7RwKlcjcMO79INCWrnRxFcl4Sy+YHPBq52yDXqdjn14ky7ZaON02ny+E7ylacih55bNLOA0unFBUHPOdJzk0k//MQSWjspa5Ka9J96UViXXJzB5iNNsh12O8okyETO+BMHXGVwFUHVtmKU7Gd1uY2Kd+/9FlKAwvtFbJm4AwmZVWeQqTWJtcFA6cIXg6m5KNKESPFrBk4TWfF9/ljBt65f+l9UkMa9kOUDzllK81vHppsMeZe7iK1NrkuDKGTD6EFGTVNh1wpYrSYrTgV+8zxCcl9SlGx3+NOV+Dh2zuU7XfJXhwoHXbfnNyc7tQadkfL1sQWRMROI+LqAAcZFLGSFLH4BCcXVYoYKZZlo9g67L6Z7zOmGjWy8V02vMQodu5zv0WiN7wol+zl+fK97kdYU64bkq9iVU2C1cGqA1hGSqRyv+tGYsG79t8rRIwYsxanGUzJS8NLbyjK9y7ZSTZs+bD7FbkbpnTI/SdOZh1KrooD8cMx0RXC/R5+F3FvA3YOu+/OGDs8gjlm4P2pCzyZ54/yx2n58NKfuJmT28ixbMg1x2bglp1EewX3BTnnF6UDrp1lQ67lZMYs5SjevXlGLWErZQJle5ce5x1L6bRP5Ihxr/xxWr7XtZzMlEJHjqXD7qfYXuEnYnuFrS/uapOtYYbcnWkNOrguV0oJMnC6ZZB97jG5nj9fKN+7ZBGdfRK0U+SosWzfkqxxKtSoqUaPpUPuf1aUD3muS5umhfQMQ+5zFfvoWqkbpXzYVacbdH2WzpybpUumAdfGPJjE2uRqz+9+W+pnzzfK9rre4WRMjjG2noXLRYway4aXZIvT0mH3Z1ymc3xGj5ph9zWxA8elw+6w2N4g8c11g2671AeldYOuI6lMyUexYTShtck1A6+wSwaSPXuewbZF2ZBrRVQGSjTwMJm5ZOmQ9HFaOuQ+wmdKx2X0qBtkVg/0s5QOuWdJ9AiJb64bcP+XVO2i7Xc9wdeoG+pflXZN7L+RrcTHAmjb30i5Ttmw+wGS5mXjUUz2Ltv6epLFaemg6wm+UzpuI0hmcvObPCSmN0ipAWZFN+C6j3SjaAfcD+j6Y68dZ0otJzFJRXJ9clVuHOpfo2zINS52VLdFBOeSZYOulTKJ4pT1AK8pHccRpGaQ2b3xRppeqkg3wHwqai6Z6o1XjWZO+zdduBKN7tD2M49p+5llLqaMU196sb236CW0+HnYmepOXCvLXitbNuj+mIspOY/ueJi/lPOI0bWiGyIYp0PMY7pBZlnotC6dtP3Mp9rWdwvj3lM7yEyLnUumF2NX9wgvGJQMMHpNH32Ejyk1PMR2TEQX2VkNeYhfVZpvaIfdD/CefmUaBRKeT5bGzy3t6n3i4lTX7zoidGrHZRSp6WOmtryxZpC5Q8o3ZQ2n6aPPafro9rIe7gUedv1M08t0aPqYz/iaUtPLXdo+F6E1yrg5Wdzfs92O6AZdx7gZi8f0jOhc0rUlYWn7mXO6ARfvONX1Mx3aAddnqWotQqZ2yUaSmn769lTD0zeIv2nS7Egva3uZ49o+5hF1r+NvYw215+SVil7qKvZndZ/zZnUf86imj/mjpo9eFmrKRKm3iI6qe1al6Xa+yS4riF2bTCyk6IaWblJsU0oHXDemmwMKkXaA+bRs0PUm1yVCnbhR47J2gDmuHWAeKR10b8Rp40acum/W9jGPavuZP26d1vEzJfeRJP16yqq5pp+5h/wbksuSmQ3JbBiSr4q7nT8sG3a/SHpNvGzYZVVsU3QDjE1wNkxtxGOl/cw9RKd3/VwTFpl6C2+PbPZJn/OHqVt8T/QybR/9DrE3I5wlial7VSVrKu6i32afvXTY/SjR5Y5VAy/vjC24by/UQ87r4oo4pLJjv+sX7HelG2DeSWdIKYaukhiSn2JxmrbhNX30tyU3pcSG5KviLue3Ys8+7KkqG3JdILY8sVEJdT2v2GboBpgXyBZBV4e07He0HqfaXM2SEiWv9TjNiKaXns21LClKXalV3OmcjD9b7Hpe0LpkhiqobpDZNhs7Yuv0hIa2cdm0j4n7e8vafnpW0iyZU6PJ+DhN/wX0L1Wqu52nc9aQGUy5KifbY2WQ44OCLnfF5mcvHVzaLXj3WVq5/MVDS2rFJU5Rp0ej7WcCZIa3Cep1P5AYp5pe+nQuZUlpvOL8QJcQpxkp6aG/p+52ruSSKTMbcpM6M6jDsVLS5fh+4nOXtweVuiHXJ/zXFzktaRyVdN9ttolGd2j6XEcEmTPDkFfTx3xSOnBSlfiWJf309zQ99EouFEIl8UqXM2mccqKki+7OfpbkYcoMKtqsDkfKo2SlA66DYtYZ01Zd+13/obhE0fYzv+RdHOI4R9X00vtTva+6h+7OVpaUIYGJOPK45+SVJd30C7lqyqItpuSmwg7H84p9r34p1WPr+mlj6QBzQdSmgNQV1/PaPje3YkQeESsq9TGfiykapZy39tIXSgccjSnffM/JK9U99As5N80T65fO9HHKCXbPZVGn87WsZEkepkwvx4YK26hXt+wjTfbcg8wMD1PyLc58rOt3f11xiaDrdd6k6WM+lqSyuzpvncj0GbSt7xaqe+jXsj3N4z3VS+0ZTnHKCWUPXV7c6aCIGLKTrCGL2i+qMINUbdSisp3bNSpl/fT1W048EZR2wBXS9TibFHkOO1pR9zJhQcbkVGSil9Vdjmu5xmlJF03l+1SvuNPBOU45wzZOUYfzNTmyJB9TclKbI6pqpV7l2yi6AddviS6DJG5K73eF8jkTs5k3o3nFV33n+XwmJWviTvq1XDMlV88Udjh5xyln2CpgYYfzuVwwJBep1tVKvcAemeT7vGWD9A26AdcXxJZBkhd4zmj7OC7Q59icV93LfCzWoGkrwz3M51yzb2KcFnc6n5M2S5JPZIUdDkFxyo89L11R2O54oqidWpbblCo+anVEVWZqRdXq6I0dlBCIto/pJrolL3mB5wttL/0EkbOociwV9TA/1/Qy50Uv12SoEpf0iKjA7nnpiuJOxxPFnY7l7E73OCSzNmpF1SYuTnlT2E7tUrU5PiCWJbkYMqmopFK2Ln6kaqPuEvucbCFB20f7xC6DcCzw/I7dCKHIUdT76GJ2SCvUkHxU0k17k6378qWwi9pV2OH4gKwhyY0wVe0UkTgVREGba6eqjbIUtlIrgrMkR0MmN2mCzGtqWTx69f86akg9p67PeZ+oZRAeUvfSQU0fszvXNnyU9NK7SnpojySbHJJI00XfTTJOizqclqJ2x0pWpnwpEpqqzXH06g5ycSoYZbvzW6o26iTfLJnRlGZ+KjAvvq1sddwqxTNqe5ljgpdBBBR41D3MC0Lmf6RR9zivU3fTL0pm1iQbIoq76bg9z6Qobnd+q6idOimlKTmNMFspyeJUOHuilxW2ULtUrdSfOWVJgipood4qaFncrbBGL5fq8WIHuFezo6R7bROXUDS9zFFtD/03Cpkp6aFvUHc7Lepu5wWhhhS4/hpm9zhLGqft7PSP+rPk077EUaaZequgzSFpnIonGt1R8BvqjgLz4pSyZfGsFIZd1eKnBS2Lk0ozdbtcw011N3Pnmqmkqbqmmk92O1dKup3PqXvo+6W8KI+9gK6ki36gpNt5LG4fvBTbBpPKuVzc47xNIQfR6I6iNuoOVatjqrCVOitVLUbVuvipyixvnBJDs4cqKjAvPlhgpqaVLYtB0aZtWQyyHQObbYntUuGJuof5jRQVVx7FnTPqbvqQutt5H3sPk9jnKW1z7VR30vcXd9Hjxd30x9IaNP3mieIu+teKLKDpZePU+aDK7JhWmamg6KlfDsSpJCjNjmvZh1KaqacKzIvzyhbqDaWZogtaqA+UZuo8q7WfaaV58fXY77C/27K4W/UUlRu3Wux56Qp1D/MHyTfLczV0D31S3UOPl3TRj2t66LuKu103FnctGmLVbHZZYs/JK9mf2X8r7qC+VtxD38X+bsywXfQ7cm4xTLehoqjL+WKuDC2VbJy2bYpTcx7GKUiNquM9XUmP8z3JDSrb0JWkKXnucFqVQ7LdRwAkQ93hqOG9rNK9rUzJaQdUUafTX9ztqkOUgewssXQ5T+ejIYmZUtRWRMdHJZ3MVxG6IGuUdDPfLO52nr2Us6QUKupwnFV10H+H0AVZR9Pp+kZJF/1+zmZJuUyZTps37bc7PlS10n+f7e8NgA3YXVPFnbT3UsqSfEzJWe2OAIbNICdhizHFnY73ctmUxA3J67ic01nURjVk+3sCICWqXqq0qMv5cl5nSRIndBIOBhS2Uy+yy28IHZD7WKOX8z2LytmUHbljSk4ndtpiJ9XMubJJAwDOFHc6bi3ucATyJUtKcIwuUtThuBMhA/KWL7e+W1nY7nw226YkdoSO60H1VuoZ9hxuttsfACKwR9gKOxxLOZgliZ5/LWxz+AvZI3MAXGqUt7+pjN0n1uE4nwtZkuv5V47nYr9g7x+7pE7fAJAMZSd9fWE7ZY8VeHLIlCpBopaVbQ4be4IH3zbYVrBBH7tTrN3xhUxZUpiSH2BfVpodRwtaqK9lux0ByCqFrc6mwjbqgKrN8Ykspkx5qwSH2z7N1MfKVmp/0W/S/K0iALYle1xXq9oc9yjbHEdjc0qZTJlZi8tKM3Vc1br4s9I94q96BWBbLD8pWx0Pq8yO51Vm6ix5U6a5eHD1Xm32zrFjSvN7vyh48i/8/rg0AGATvdRVyhbHPyhbF/9nLRN+KsiUmS4JNFOvKM2Lv1a1Urew74nvAAApiEZ3XN3O6NmbDpXmxX8tMFMDyhbq6QIzdVxppt5MfX8T9Wbsd9jfbaH6lS3v/Qv7Gleb6dq8uzERAAAAAAAAAAAAAAAAAAAAAAAAAAAAAAAAAAAAAAAAAAAAAAAAAAAAAAAAAAAAAAAAAAAAAAAAAAAAAAAAAAAAAAAAAAAAAAAAAAAAAAAAAAAAAAAAAAAAAAAAAAAAAAAAAAAAAAAAAAAAAAAAAAAAAAAAAAAAAAAAAAAAAAAAAAAAAAAAAAAAAAAAAAAAAAAAAAAAAAAAAKDIyP8DlPCA/RanHsIAAAAASUVORK5CYII=;" parent="U1V3mUfAhHY3gY_KVcL6-11" vertex="1">
          <mxGeometry x="45" y="10" width="50" height="50" as="geometry" />
        </mxCell>
        <mxCell id="U1V3mUfAhHY3gY_KVcL6-15" style="edgeStyle=orthogonalEdgeStyle;rounded=0;orthogonalLoop=1;jettySize=auto;html=1;exitX=0;exitY=0.25;exitDx=0;exitDy=0;endArrow=none;endFill=0;strokeColor=#999999;align=center;verticalAlign=middle;fontFamily=Helvetica;fontSize=12;fontColor=#666666;labelBackgroundColor=default;fillColor=#FAFAFA;curved=0;" parent="1" source="U1V3mUfAhHY3gY_KVcL6-13" edge="1">
          <mxGeometry relative="1" as="geometry">
            <mxPoint x="300" y="210" as="targetPoint" />
          </mxGeometry>
        </mxCell>
        <mxCell id="U1V3mUfAhHY3gY_KVcL6-13" value="MariaDB /&amp;nbsp;&lt;div&gt;ProstgreSQL&lt;br&gt;&lt;/div&gt;" style="rounded=1;whiteSpace=wrap;html=1;strokeColor=#999999;align=center;verticalAlign=middle;fontFamily=Helvetica;fontSize=12;fontColor=#999999;fillColor=default;" parent="1" vertex="1">
          <mxGeometry x="320" y="240" width="140" height="40" as="geometry" />
        </mxCell>
        <mxCell id="U1V3mUfAhHY3gY_KVcL6-17" style="edgeStyle=orthogonalEdgeStyle;rounded=0;orthogonalLoop=1;jettySize=auto;html=1;exitX=0;exitY=0.25;exitDx=0;exitDy=0;endArrow=none;endFill=0;entryX=0.5;entryY=1;entryDx=0;entryDy=0;strokeColor=#999999;align=center;verticalAlign=middle;fontFamily=Helvetica;fontSize=12;fontColor=#666666;labelBackgroundColor=default;fillColor=#FAFAFA;curved=0;" parent="1" source="U1V3mUfAhHY3gY_KVcL6-16" target="U1V3mUfAhHY3gY_KVcL6-1" edge="1">
          <mxGeometry relative="1" as="geometry">
            <mxPoint x="300" y="250" as="targetPoint" />
          </mxGeometry>
        </mxCell>
        <mxCell id="U1V3mUfAhHY3gY_KVcL6-16" value="&lt;div&gt;Redis&lt;/div&gt;" style="rounded=1;whiteSpace=wrap;html=1;strokeColor=#999999;align=center;verticalAlign=middle;fontFamily=Helvetica;fontSize=12;fontColor=#999999;fillColor=default;" parent="1" vertex="1">
          <mxGeometry x="320" y="300" width="140" height="40" as="geometry" />
        </mxCell>
        <mxCell id="U1V3mUfAhHY3gY_KVcL6-20" style="edgeStyle=orthogonalEdgeStyle;rounded=0;orthogonalLoop=1;jettySize=auto;html=1;exitX=0;exitY=0.25;exitDx=0;exitDy=0;endArrow=none;endFill=0;entryX=0.5;entryY=1;entryDx=0;entryDy=0;strokeColor=#999999;align=center;verticalAlign=middle;fontFamily=Helvetica;fontSize=12;fontColor=#666666;labelBackgroundColor=default;fillColor=#FAFAFA;curved=0;" parent="1" source="U1V3mUfAhHY3gY_KVcL6-18" target="U1V3mUfAhHY3gY_KVcL6-1" edge="1">
          <mxGeometry relative="1" as="geometry">
            <mxPoint x="300" y="310" as="targetPoint" />
            <mxPoint x="320" y="370" as="sourcePoint" />
          </mxGeometry>
        </mxCell>
        <mxCell id="U1V3mUfAhHY3gY_KVcL6-18" value="&lt;div&gt;Gothenberg&lt;/div&gt;" style="rounded=1;whiteSpace=wrap;html=1;align=center;verticalAlign=middle;fontFamily=Helvetica;fontSize=12;fontStyle=0;strokeColor=#999999;fontColor=#999999;fillColor=default;" parent="1" vertex="1">
          <mxGeometry x="320" y="360" width="140" height="40" as="geometry" />
        </mxCell>
        <mxCell id="U1V3mUfAhHY3gY_KVcL6-19" value="&lt;div&gt;Tika&lt;/div&gt;" style="rounded=1;whiteSpace=wrap;html=1;align=center;verticalAlign=middle;fontFamily=Helvetica;fontSize=12;fontStyle=0;strokeColor=#999999;fontColor=#999999;fillColor=default;" parent="1" vertex="1">
          <mxGeometry x="320" y="420" width="140" height="40" as="geometry" />
        </mxCell>
        <mxCell id="U1V3mUfAhHY3gY_KVcL6-21" style="edgeStyle=orthogonalEdgeStyle;rounded=0;orthogonalLoop=1;jettySize=auto;html=1;exitX=0;exitY=0.25;exitDx=0;exitDy=0;endArrow=none;endFill=0;entryX=0.5;entryY=1;entryDx=0;entryDy=0;strokeColor=#999999;align=center;verticalAlign=middle;fontFamily=Helvetica;fontSize=12;fontColor=#666666;labelBackgroundColor=default;fillColor=#FAFAFA;curved=0;" parent="1" source="U1V3mUfAhHY3gY_KVcL6-19" target="U1V3mUfAhHY3gY_KVcL6-1" edge="1">
          <mxGeometry relative="1" as="geometry">
            <mxPoint x="300" y="370" as="targetPoint" />
            <mxPoint x="320" y="430" as="sourcePoint" />
          </mxGeometry>
        </mxCell>
        <mxCell id="U1V3mUfAhHY3gY_KVcL6-22" value="paperless-nexcloud-sync" style="rounded=1;whiteSpace=wrap;html=1;strokeWidth=2;" parent="1" vertex="1">
          <mxGeometry x="320" y="480" width="140" height="40" as="geometry" />
        </mxCell>
        <mxCell id="U1V3mUfAhHY3gY_KVcL6-24" style="edgeStyle=orthogonalEdgeStyle;rounded=1;orthogonalLoop=1;jettySize=auto;html=1;exitX=1;exitY=0.5;exitDx=0;exitDy=0;entryX=0;entryY=0.714;entryDx=0;entryDy=0;entryPerimeter=0;curved=0;strokeWidth=2;" parent="1" source="U1V3mUfAhHY3gY_KVcL6-22" target="U1V3mUfAhHY3gY_KVcL6-7" edge="1">
          <mxGeometry relative="1" as="geometry">
            <Array as="points">
              <mxPoint x="560" y="500" />
              <mxPoint x="560" y="190" />
            </Array>
          </mxGeometry>
        </mxCell>
        <mxCell id="GStSzaK5uOd0SwK-tUhn-10" value="WebDAV" style="edgeLabel;html=1;align=center;verticalAlign=middle;resizable=0;points=[];fontSize=12;" parent="U1V3mUfAhHY3gY_KVcL6-24" vertex="1" connectable="0">
          <mxGeometry x="-0.2789" y="1" relative="1" as="geometry">
            <mxPoint y="-3" as="offset" />
          </mxGeometry>
        </mxCell>
        <mxCell id="adk3csDZQDhT7lCBnixr-2" value="data" style="shadow=0;dashed=0;html=1;strokeColor=none;fillColor=#A1C9E7;labelPosition=center;verticalLabelPosition=bottom;verticalAlign=top;align=center;outlineConnect=0;shape=mxgraph.veeam.2d.folder;fillStyle=auto;fontFamily=Helvetica;fontSize=12;fontColor=default;" parent="1" vertex="1">
          <mxGeometry x="160" y="390" width="40" height="30" as="geometry" />
        </mxCell>
        <mxCell id="adk3csDZQDhT7lCBnixr-3" value="media" style="shadow=0;dashed=0;html=1;strokeColor=none;fillColor=#A1C9E7;labelPosition=center;verticalLabelPosition=bottom;verticalAlign=top;align=center;outlineConnect=0;shape=mxgraph.veeam.2d.folder;fillStyle=auto;fontFamily=Helvetica;fontSize=12;fontColor=default;" parent="1" vertex="1">
          <mxGeometry x="160" y="460" width="40" height="30" as="geometry" />
        </mxCell>
        <mxCell id="adk3csDZQDhT7lCBnixr-4" value="export" style="shadow=0;dashed=0;html=1;strokeColor=none;fillColor=#4495D1;labelPosition=center;verticalLabelPosition=bottom;verticalAlign=top;align=center;outlineConnect=0;shape=mxgraph.veeam.2d.folder;" parent="1" vertex="1">
          <mxGeometry x="160" y="530" width="40" height="30" as="geometry" />
        </mxCell>
        <mxCell id="adk3csDZQDhT7lCBnixr-5" value="consume" style="shadow=0;dashed=0;html=1;strokeColor=none;fillColor=#A1C9E7;labelPosition=center;verticalLabelPosition=bottom;verticalAlign=top;align=center;outlineConnect=0;shape=mxgraph.veeam.2d.folder;fillStyle=auto;fontFamily=Helvetica;fontSize=12;fontColor=default;" parent="1" vertex="1">
          <mxGeometry x="160" y="590" width="40" height="30" as="geometry" />
        </mxCell>
        <mxCell id="adk3csDZQDhT7lCBnixr-6" value="dbdata" style="shadow=0;dashed=0;html=1;strokeColor=none;fillColor=#A1C9E7;labelPosition=center;verticalLabelPosition=bottom;verticalAlign=top;align=center;outlineConnect=0;shape=mxgraph.veeam.2d.folder;fillStyle=auto;fontFamily=Helvetica;fontSize=12;fontColor=default;" parent="1" vertex="1">
          <mxGeometry x="160" y="250" width="40" height="30" as="geometry" />
        </mxCell>
        <mxCell id="adk3csDZQDhT7lCBnixr-7" value="redisdata" style="shadow=0;dashed=0;html=1;strokeColor=none;fillColor=#A1C9E7;labelPosition=center;verticalLabelPosition=bottom;verticalAlign=top;align=center;outlineConnect=0;shape=mxgraph.veeam.2d.folder;fillStyle=auto;fontFamily=Helvetica;fontSize=12;fontColor=default;" parent="1" vertex="1">
          <mxGeometry x="160" y="320" width="40" height="30" as="geometry" />
        </mxCell>
        <mxCell id="adk3csDZQDhT7lCBnixr-11" style="edgeStyle=orthogonalEdgeStyle;rounded=0;orthogonalLoop=1;jettySize=auto;html=1;exitX=0.25;exitY=1;exitDx=0;exitDy=0;strokeColor=#A1C9E7;startArrow=classic;startFill=1;" parent="1" source="U1V3mUfAhHY3gY_KVcL6-1" target="adk3csDZQDhT7lCBnixr-2" edge="1">
          <mxGeometry relative="1" as="geometry">
            <Array as="points">
              <mxPoint x="265" y="400" />
            </Array>
          </mxGeometry>
        </mxCell>
        <mxCell id="adk3csDZQDhT7lCBnixr-12" style="edgeStyle=orthogonalEdgeStyle;rounded=0;orthogonalLoop=1;jettySize=auto;html=1;exitX=0.25;exitY=1;exitDx=0;exitDy=0;strokeColor=#A1C9E7;startArrow=classic;startFill=1;" parent="1" source="U1V3mUfAhHY3gY_KVcL6-1" target="adk3csDZQDhT7lCBnixr-3" edge="1">
          <mxGeometry relative="1" as="geometry">
            <Array as="points">
              <mxPoint x="265" y="470" />
            </Array>
          </mxGeometry>
        </mxCell>
        <mxCell id="adk3csDZQDhT7lCBnixr-13" style="edgeStyle=orthogonalEdgeStyle;rounded=0;orthogonalLoop=1;jettySize=auto;html=1;exitX=0.25;exitY=1;exitDx=0;exitDy=0;strokeColor=#A1C9E7;startArrow=none;startFill=0;" parent="1" source="U1V3mUfAhHY3gY_KVcL6-1" target="adk3csDZQDhT7lCBnixr-4" edge="1">
          <mxGeometry relative="1" as="geometry">
            <Array as="points">
              <mxPoint x="265" y="540" />
            </Array>
          </mxGeometry>
        </mxCell>
        <mxCell id="adk3csDZQDhT7lCBnixr-14" style="edgeStyle=orthogonalEdgeStyle;rounded=0;orthogonalLoop=1;jettySize=auto;html=1;exitX=0.25;exitY=1;exitDx=0;exitDy=0;endArrow=none;endFill=0;startArrow=classic;startFill=1;strokeColor=#A1C9E7;" parent="1" source="U1V3mUfAhHY3gY_KVcL6-1" target="adk3csDZQDhT7lCBnixr-5" edge="1">
          <mxGeometry relative="1" as="geometry">
            <Array as="points">
              <mxPoint x="265" y="600" />
            </Array>
          </mxGeometry>
        </mxCell>
        <mxCell id="U1V3mUfAhHY3gY_KVcL6-26" style="edgeStyle=orthogonalEdgeStyle;rounded=0;orthogonalLoop=1;jettySize=auto;html=1;exitX=0;exitY=0.25;exitDx=0;exitDy=0;endArrow=none;endFill=0;entryX=0.5;entryY=1;entryDx=0;entryDy=0;" parent="1" source="U1V3mUfAhHY3gY_KVcL6-22" target="U1V3mUfAhHY3gY_KVcL6-1" edge="1">
          <mxGeometry relative="1" as="geometry">
            <mxPoint x="300" y="430" as="targetPoint" />
            <mxPoint x="320" y="490" as="sourcePoint" />
          </mxGeometry>
        </mxCell>
        <mxCell id="adk3csDZQDhT7lCBnixr-8" style="edgeStyle=orthogonalEdgeStyle;rounded=0;orthogonalLoop=1;jettySize=auto;html=1;exitX=0;exitY=0.75;exitDx=0;exitDy=0;entryX=1;entryY=0.667;entryDx=0;entryDy=0;entryPerimeter=0;strokeColor=#A1C9E7;startArrow=classic;startFill=1;" parent="1" source="U1V3mUfAhHY3gY_KVcL6-13" target="adk3csDZQDhT7lCBnixr-6" edge="1">
          <mxGeometry relative="1" as="geometry">
            <mxPoint x="230" y="270" as="targetPoint" />
          </mxGeometry>
        </mxCell>
        <mxCell id="adk3csDZQDhT7lCBnixr-9" style="edgeStyle=orthogonalEdgeStyle;rounded=0;orthogonalLoop=1;jettySize=auto;html=1;exitX=0;exitY=0.75;exitDx=0;exitDy=0;strokeColor=#A1C9E7;startArrow=classic;startFill=1;" parent="1" source="U1V3mUfAhHY3gY_KVcL6-16" target="adk3csDZQDhT7lCBnixr-7" edge="1">
          <mxGeometry relative="1" as="geometry">
            <Array as="points">
              <mxPoint x="230" y="330" />
              <mxPoint x="230" y="330" />
            </Array>
          </mxGeometry>
        </mxCell>
        <mxCell id="adk3csDZQDhT7lCBnixr-17" style="edgeStyle=orthogonalEdgeStyle;rounded=0;orthogonalLoop=1;jettySize=auto;html=1;entryX=0;entryY=0.75;entryDx=0;entryDy=0;strokeColor=#4495D1;strokeWidth=2;" parent="1" source="adk3csDZQDhT7lCBnixr-4" target="U1V3mUfAhHY3gY_KVcL6-22" edge="1">
          <mxGeometry relative="1" as="geometry">
            <Array as="points">
              <mxPoint x="280" y="550" />
              <mxPoint x="280" y="510" />
            </Array>
          </mxGeometry>
        </mxCell>
      </root>
    </mxGraphModel>
  </diagram>
  <diagram name="Seite-2" id="a9XCad6bPwpBA-aRmyDs">
    <mxGraphModel dx="955" dy="720" grid="1" gridSize="10" guides="1" tooltips="1" connect="1" arrows="1" fold="1" page="1" pageScale="1" pageWidth="1169" pageHeight="827" math="0" shadow="0">
      <root>
        <mxCell id="loVLZ2iteedALe1XScku-0" />
        <mxCell id="loVLZ2iteedALe1XScku-1" parent="loVLZ2iteedALe1XScku-0" />
        <mxCell id="loVLZ2iteedALe1XScku-2" value="" style="group;fontSize=14;fontStyle=1;strokeColor=none;fillColor=none;" parent="loVLZ2iteedALe1XScku-1" vertex="1" connectable="0">
          <mxGeometry x="230" y="160" width="140" height="50" as="geometry" />
        </mxCell>
        <mxCell id="loVLZ2iteedALe1XScku-3" value="&lt;span style=&quot;white-space: pre;&quot;&gt;&#x9;&lt;/span&gt;Paperless-ngx&lt;br&gt;&lt;span style=&quot;font-weight: normal;&quot;&gt;&lt;span style=&quot;white-space: pre;&quot;&gt;&#x9;&lt;/span&gt;(Webserver)&lt;/span&gt;" style="rounded=1;whiteSpace=wrap;html=1;verticalAlign=middle;align=left;fontSize=14;fontStyle=1;strokeWidth=1;" parent="loVLZ2iteedALe1XScku-2" vertex="1">
          <mxGeometry width="140" height="50" as="geometry" />
        </mxCell>
        <mxCell id="loVLZ2iteedALe1XScku-4" value="" style="shape=image;aspect=fixed;image=data:image/png,iVBORw0KGgoAAAANSUhEUgAAAgAAAAIACAYAAAD0eNT6AAAABHNCSVQICAgIfAhkiAAAAAlwSFlzAAAIZgAACGYBOpMpHQAAABl0RVh0U29mdHdhcmUAd3d3Lmlua3NjYXBlLm9yZ5vuPBoAACAASURBVHic7N17YFxlnT7w53tmkt6hlyQzTdOZ6UVuAVQqIKxCRVRQirTJ0CJXUfpbvCwrsKDoSlVE0V1XXRUt9ztlkpYFgV1BQBFcUFxRqoKlzaRpmknaglDaNDPnfH9/tGBpm2Rmzpl555zzfP5xmznzvg9r5Tx5zznvAYiIiIiIiIhoH5bBMh3BS4H6hyEiIqqExvaZ7238Y/LtpnN4iQWAiIhoFBasyyKQw03n8FLUdAAiIqJa1tyWOsiGfhjQF01n8RJXAIiIiEZQEOfzACy1EKgVABYAIiKiYUxLt8wQyBkAAAXvASAiIgqDOidyMYD6XX9sbFiUnG4yj5dYAIiIiPZh8mmpySq4YPefWRKcGwFZAIiIiPZhTFQvATBp959Z4gTmMgALABER0R7i6bmNAC7a8+caoEcBWQCIiIj2oE7hi9jjt/+dglMAxHQAIiKiWtKcnp2w1X4RwJh9fFyY9HrdxDUPrdlR7Vxe4woAERHRbmy1r8S+T/4AEP3bxMLB1cxTKSwAREREuzQsnn0AgHNGOkbUCcRlABYAIiKiXSK2cxVG2SbfCsh9ACwAREREABrTifcA2j7acQocWI08lcYCQERElEbEgvwARdwcr8DbqpCo4lgAiIgo9OJIXljsXv8CzMJ8/79NlwWAiIhCrSXdMlUVy0r4Sn1sWiJRqTzVwgJAREShltfINwFMK+U7Csv3lwFYAIiIKLSaFyWPAHB+qd+zLPV9AfD9NQwiIqKypBGxFT8CECn1q6o4oAKJqoorAEREFEpNmvxnAEeX810F5nocp+pYAIiIKHRi6eQsAb5S7vclAI8CsgAQEVHYCIDlACa4GCPVmm6t9yiPESwAREQUKk3p1D9CcaLLYaL9zt+SngQyhAWAiIhCY1q6ZYaoXu3FWBFEfH0ZgAWAiIjCQqKILAcw2YvBVMTXTwKwABARUSjE25MXQvFhr8ZTqK+fBGABICKiwIu3JVoV+DePh53t8XhVxQJARESBNvfkuWPUkjsAjPNyXIG0eDletbEAEBFRoL02If/tYt/0Vxr1dQEY9b3HREREftWYTp1kqT6ISp3vxg1OzN2We70iY1cYVwCIiCiQYgvnNFmqN6GCv+zaQxNmVGrsSmMBICKi4JmPKCKFuwDEKzlNxLF9exmABYCIiAKnaVryagAnVHoehfp2BYCvAyYiokCJtac+Cuil1ZhL1OIKABERkWkNi2cfAOgtqNJN7lwBICIiMqwx3TjRsu2VAPav1pzi40cBuQJARERBIJZOuAFAa5Wn9e0KAAsAERH5Xrw9cRmgpxuY2rcrANwIiIiIfK2pPblIgAzM/FLrNMjEcaszq4cMzO0KVwCIiMi3mhcljxDgVpg7n1lb7G3TDc3tCgsAERH50oxFM1psC/cDmGAyhw1/bgbEAkBERL7TvKB5fCFStxJAs+ksiEiT6QjlYAEgIiJ/WQbLHhO9E6pHmo4CAKKYZjpDObgPABER+Urs+eR3AXzUdI43CHSq6Qzl4AoAERH5Riyd/CKAz5rOsTsHli9XAFgAiIjIF5raE+dA8TXTOfbk1xUAXgIgIqKaF2tLLADkBtTm/jW+XAFgASAioprWlE4eA8XdqNFzloqyABAREXkptnDmoVA8AGC86SzDEYgvLwHwHgAiIqpJDYtnH4CI9TMAU0xnGREfAyQiIvLG9EWzko5t/wyAH7bZ9WUB4AoAERHVlOYlc2Y6lvMYgKTpLEWqb0w3TjQdolQsAEREVDNmLJrRYucLjwGYZTpLKeowyXf3AbAAEBFRTWg6Y1asINGfQTDHdJZS5R3bd5cBWACIiMi4pjNmxWTIeQyCg01nKYcl/tsMiAWAiIiMakyn4lJwHvHryR/w5wuBWACIiMiY5vTshKXOL6E41HQWN1RkP9MZSsUCQERERsSXpFK22o8B8jbTWdzTcaYTlIoFgIiIqq45PetAp6BPAJhtOosXBGABICIiGsn0xcmDbXUeFaDFdBbvWDW7VfFwWACIiKhqpqcT8xwbvwTQbDqLlxyuABAREe1bfFHyfY7KowAaTGfxmvAeACIior01taVOUwsPAvDd3fJFYgEgIiLaXbw99XERzQAYazpLBbEAEBERvSHenrhcoTci+G+f9d1NgEH/L4SIiMyQWHvy3xX4nOkg1eDHxwBZAIiIyFNzT5475rXxQ7cAWGw6S7UoCwAREYXZjIUzpm2N5O8F5D2ms1SVCC8BEBFRODUtnjnHLlgPKnCA6SzVx8cAiYgohJrSyWPEtn6tEsaTPwDHf5cAWACIiMiVprZkmyh+DqDRdBZjxH9PAbAAEBFRuSTWnvqCCDLw4U1wHhtjOkCpeA8AERGVbO7Jc8dsnVBYrtBzTGepEWI6QKlYAIiIqCQNi5LTX7PyqwAcbToLlY8FgIiIita0cNbbxXLuA5AwnYXc4T0ARERUlHg60S4R5ynw5B8ILABERDQaibenlqnKPfDhnvdVwnsAiIgoOBpOPXBStH7wZoUuMp2lxqnpAKViASAion1qWDz7gIg9uEqBQ0xnIe/xEgAREe0l1p44JWLbz4An/2L57hIACwAREe1O4u2JywH5LwD7mw5DlcNLAEREBABIfCwxZXBI7lDgZNNZqPJYAIiICNPTiXk7dsgKEcwxnYWqg5cAiIhCLpZOLHVUngJP/qHCFQAiopCaeubc/ep2FK6D6umms1D1sQAQEYVQ86LkEfZg/h7+1h9evARARBQyTe2Jc2wLv+LJP9y4AkBEFBINpx44KVI/uBzAEtNZAqhgOkCpWACIiEKgsS35TksG7wEw13SWQFLdbjpCqXgJgIgo4JraE+dYgifBk3/FCMR3BYArAEREAbVryf8nAM4wnSXo1AILABERmRdPJw5RHcyAe/lXh2Kb6Qil4iUAIqJgkVhb4p9U5Vnw5F89gkHTEUrFFQAiooCILZzThEjhBgCnmM4SOj5cAWABICIKgMZ06iRo4SYAcdNZwkjBewCIiKiKWtIt4/Ia/SZUPwsfvpM+KCxlASAioiqZ3jbzXUNq3S7QA01nCTsV9d0lAN4ESETkPxJLJy5yxHpSAJ78awNXAIiIqHKa07MTttq3QnG86Sz0Fr4rAFwBICLyiXh7Im2r/XuAJ/9ao9wJkIiIvDb1zLn71Q0Wvq3Qpaaz0LBYAIiIyDuxRal3YzB/O1/dW9sscB8AIiLyQOq81NhtW/EVQC8BEDGdh0amyp0AiYjIpaa2WYdv3+rcIsA7TGeh4qiFl01nKBULABFRrZiPaLwhcYnC+SqAetNxqHgR29psOkOpWACIiGpAvC3RqiK3KDDPdBYqnYrNAkBERCV487d++QqAMabjUHkKKltMZygVCwARkSFNi2fOgR25SaHvNZ2F3Jm8vW7LJtMhSsSNgIiIqk9i6cRSsa3nhCf/INi65qE1O0yHKBVXAIiIqii+JJXSgt4ExXzTWcgzvrv+D3AFgIioWiSWTizVgv4R4Mk/SFT8WQC4AkBEVGHN6dkJG/YNUJxoOgt5TwDf3QAIcAWAiKiSJJZOLLXV/iNP/gHmKFcAiIhop/iSVEptvY4n/uBTEV8WAK4AEBF56+/X+nnyDwXLpzcBcgWAiMgjTYtnzhHbup53+IeLwn+bAAEsAERE7i2DFVud+CRs+Q6ACabjUHWpOFwBICIKm3hbolWfx42AHGU6C5lhOf68B4AFgIioHEvn1cW2bLpcgS+Be/iHmvrwPQAACwARUcma2mYdLls23QDgXaazkHkWZKPpDOVgASAiKtbSeXXxLQMXK5yvAqg3HYdqgk7YHukzHaIcYjoAEZEfxNpSR0P0BgCtprNQTdmU68g2mg5RDq4AEBGNoCXdMi6v0SsBvRRAxHQeqjGCDaYjlIsFgIhoGI3tM99bcKzrIXqA6SxUm1TRazpDuVgAiIj2MCU9e/96db4K6GdUuGMqDU/AFQAiokCIp5MfUadwLURmms5CtU9UuAJARORnsYVzmmDlv6+KxRDeH03FcQBfPgIIsAAQESHenkgrCj8ExJd3c5M5FrTbdIZysQAQUWg1LEpOj0TwI1WcZjoL+ZVmTScoF29uIaIwklg6sTRi4S/gyZ9cKOTHcQWAiMgPYm2J2RC5DooTTGch39u86b4XXjMdolwsAEQUDvMRjTckLlbIMgDjTMch/1OBb5f/ARYAIgqBWLrlMCB6g6oeaToLBYel6DKdwQ0WACIKrjde3qPyVUD58h7ylIIrAERENaepPXmsbN50vYocbDoLBZT49wkAgAWAiAKmeUHzeHtM/ZcBvRTCl/dQBSleMh3BDRYAIgqMeDp1vK3OdYC+zXQWCr6IWmtMZ3CDBYCIfG/yaanJYyK4RlUvAPfxpepwxm+LrjMdwg0WACLytVhbYgFErwUww3QWCpXsmofW7DAdwg0WACLypaYzZsUkr/8JaNp0Fgoj8fXyP8CtgInIh+Lp1HmSd/7Mkz+ZIqq+LwBcASAi32hYlJweseTHqnqq6SwUbgr5q+kMbnEFgIj84O8v7wFP/lQLHK4AEBFVUnxJKqW2XgfFiaazEL3BgfMX0xnc4goAEdUqiaUTS7Wgf+DJn2rM0MDmHl8/AghwBYCIalCsLTEbllwPxftMZyHam7yAx1EwncItrgAQUS2RWDqxFCLP8eRPNezPpgN4gSsARFQTmhbPnCO2dQMUx5vOQjQSYQEgIvLAfERjjYlPw5arAYw3HYdoVOr8yXQEL7AAEJEx8bZEqwpuhMpRprMQFUsthysARERlmY9orCF5mQJfBjDGdByiEtjjJkR9vwkQwAJARFXWtHjmHMu2blbgPaazEJXhr103dw2aDuEFPgVARNUisXRiqdjWczz5k2+pPmc6gle4AkBEFbdrN78b+Wgf+Z5YgSkAXAEgoopqak+cs2s3P578yfcE+nvTGbzCFQAiqojGdCpuAcuhusB0FiKvFKJOYFYAxHQAIgqeeHsirZBrAUwznYXIQ5tzHdkG0yG8whUAIvJMPD23EZr/sQKLTGchqoDA/PYPsAAQkUfibckPq+avBzDddBaiShBFYK7/AywAROTS5NNSk8dG9PsqONt0FqJKcqzg3AAIsAAQkQuxdPIEVb1FgRbTWYgqLWLJb01n8BILABGVbj6i8YbUl1T1X4WPE1M4vLbx4OwLpkN4iQWAiErSnJ51YAHOnap6hOksRFUj+C2WwTEdw0ts7kRUtFhb4gJbnWdFwZM/hYoofmc6g9e4AkBEo5p8WmrymKheC2CJ6SxEJqjIb0xn8BoLABGNKJZOngDVWwHMMJ2FyBjHCVwB4E6ARLRPrenW+s269esKXAxeLqRw27JrB0A1HcRLXAEgor00t6UO2qxb71TgnaazEJkmor9BwE7+AFs9Ee2hqT1xji36W578iXZygKdMZ6gErgAQEQCg+YzmBjsfvR6Qj5rOQlRLRPGk6QyVwAJARIinU8fbeb0TQLPpLEQ1xraHxj1jOkQl8BIAUbhJLJ24SFUfBk/+RHsR4A+b7nvhNdM5KoErAEQhNWPhjGmFaPRWKD5sOgtRrQrq9X+ABYAolOKLZh5ZsKwVUMwynYWoxv3adIBK4SUAonCRpnTyYrWsJwGe/IlGI6qBLQDcCIgoJBIfS0zZMYSbeJc/UdF6cx3ZwO6AyUsARCEwvW3mu3YMyT3gb/1EpfiF6QCVxEsARAHX1J44xxHrl+DJn6g0oo+bjlBJXAEgCqiGUw+cFKkfXA6+wY+oLLYVfdx0hkriPQBEAdS0cNbbLcu5RwUHmM5C5FMbcx3ZQO+NwUsARAETa0ueLxHn1zz5E7kS6Ov/AC8BEAXHfERjDamrAL3cdBQiv1MVFgAiqn3x9NxGRX4FVN9nOgtREESBx01nqDTeA0Dkc7G21NEQ7QQQ2OeViaps467n/9V0kEriPQBEPhZrS54P0V+AJ38izwjkYQT85A/wEgCRPy2dV9e0ZdN3AXzKdBSioHGgPzOdoRpYAIh8piXdMjX/8qYOALzeT+Q9RZ31iOkQ1cACQOQjjemWuXmN3A/gINNZiIJIgN/n7lqXM52jGngPAJFPxNoSJ1oaeQY8+RNVjEJCsfwPsAAQ+UJTOnUhRB4CMMV0FqJAUycUy/8ALwEQ1bY0IjFNfR3KzX2IqmB7neU8aTpEtbAAENWoxnTjRNHx9wB6suksRGGgwOM9mZ7tpnNUCwsAUQ1qTKfilupPAcwznYUoLCzgp6YzVBMLAFGNiacTh6jqgwCSprMQhUpUHjQdoZp4EyBRDWlqTx676yUkPPkTVdcf+u7u6jIdoppYAIhqRKwtdYYAjwJoMJ2FKHR2rrqFCgsAUQ2Itycug+gdAMaYzkIURqrhuv4P8B4AItOkqS15jQL/YjoIUYht6Y90/6/pENXGAkBkShqRmCZ/DOCTpqMQhZkoHkAHbNM5qo0FgMiA1Hmpsdtf17sAnGY6CxFp6Jb/ARYAoqprTDdO3L4VKwF8wHQWIsJgIT/uIdMhTGABIKqieHpuo2r+QUDfZToLEQEQeXjTfS+8ZjqGCSwARFXSsGRmsxbyPwff5kdUM8RBp+kMpvAxQKIqaF4yZ2akII+DJ3+iWpKPWoX7TYcwhSsARBU2fdGspF0oPArIbNNZiGg3gl/0ZHq2mI5hClcAiCooviSVciznMQA8+RPVGHUktMv/AAsAUcU0LJ59gFPQJwDMMp2FiPbiOKr/ZTqESbwEQFQB0xcnD3Zs++cAppvOQkR7U8iTm1Z2bTSdwySuABB5rDHdMtex8Qh48ieqXYK7TEcwjQWAyEPNS+bMtJzIwwCaTWchomEVpBAJ9fV/gAWAyDNNZ8yKFQqFhyFImc5CRMMT0Z/nVr3UbzqHaSwARB6Ip+c2St55VIADTWchotFYd5tOUAtYAIhcmnxaarKD/H8DOMR0FiIa1Y7BPO41HaIWsAAQudBw6oGTxkSd/xHFEaazEFERBA+9cm/XK6Zj1AIWAKIytaZb6yP1g6sAOcp0FiIqlnD5fxcWAKJyLIO1SbfeAuD9pqMQUdFejQwOhXbv/z2xAOxDU9usw01noNoWez7x7wCWmM5BRCVQZHrv791mOkatYAHYQ8Pi2QcI7CtM56DaFW9PXA7IP5vOQUSlcSy92XSGWsKtgPcQte1vqEjCdA6qTbF08mOq+IbpHERUsnUDme4nTYeoJSwAu4m1pY5W6EIAm01nodrT1Jb6EFRvBiCmsxBRaRS4aed/0Bt4CWB3oldj57/cG2YsnDHNdByqHc1tqYNE9G4AdaazEFHJVAS3mw5Ra1gAdomnkx8BcMIbf3akvtVgHKohMxbOmGaL3g9gsuksRFSWx3KZ7DrTIWoNC8BOAsXXdv+BinOYqTBUO1rTrfX5aGQlgLmmsxBReRR6i+kMtYj3AACItSVOUeCdu/9MRVkACJt067UCOc50DiIq299k3I7Qv/lvX7gCAACW9a97/1COrn4QqiVN7clLAZxvOgcRlU+BO3K35V43naMWhb4ANKZTJ0H1yH18dFhjunFi1QNRTYinkx8R4JumcxCRS7a13HSEWhX6AhBR/eJwH0Xs8fsqBhRw8SWplCpuBRAxnYWIXHm6f9W650yHqFWhLgCx9sT7FXjPcJ87lvLab8i0pFvGaUFXAZhqOgsRuSS4znSEWhbqAgDIl0b8VOQD1UpCtSGvkR8CeIfpHETk2qsYO8g3/40gtAVgejoxD8D8EQ9SHD0lPXv/qgQi42LpxFIAHzedg4jcU+B23vw3stAWAMeRi4s4LFqnNl/3GgLNi5JHQOV7pnMQkTdUhMv/owhlAWheMmcmBOnijtZTK5uGTEt8LDHFttABYKzpLETkiacGMl2/Nx2i1oWyABTyhc+iyD3dBfLR1nRrfYUjkUE7hqwfA5hlOgcReUTk+6Yj+EHoCkDDqQdOEsEFJXxl8gBeO75igcioWDr5CUBPN52DiDzTm5sybaXpEH4QugIQGbP9fJT4UhdxrPYKxSGDGtMtc6H4rukcROSpa7H82bzpEH4QtgIgUHy69G9pOnVeiteHg2Q+opZGbgfA3R6JgmMH7Ch3/itSqApArC3xfkDeVsZXpwy+7pzieSAyJt6Q/DIAvu+BKEAUendu1Uv9pnP4RagKAMRaWu5XFdY5XkYhc5oWJf5BgStM5yAib0VUf2A6g5+I6QDV0nTGrJjknfUo8u7/fbAtx5qzceW6rJe5qLpiZ8cmYPvYPwCYbToLEXnqqVxH9h9Mh/CT0KwASF7PR/knfwCI2OKUfv8A1ZbtY64CT/5EgaOK75jO4DdhKQACqOv3uovggtjZsQleBKLqi7Wljgbks6ZzEJHn1vZb2XtNh/CbUBSAprbUBwHM9WCoybp93FkejENV1ppurYfoDeArfokCR1W+jQxs0zn8JhQFQETP82ws6D8hRPdOBMVmff0KAK2mcxCR5wbqrcItpkP4UeALwNQz5+4HwMv9/A9pSidO9HA8qrDmttRBCv286RxE5D0F/rMn07PddA4/CnwBqN9RaAMw3ssxReUiL8ejCloGy7b0JgBjTEchIs9ti9blrzUdwq8CXwAUWonn9z8cXzTzyAqMSx5rej51ARTvNp2DiCpAcWPvXb2bTMfwq0AXgOb07ASA4yowtKhlXVmBcclDk09LTRbo10znIKKKKAD6H6ZD+FmgC4AN52Oo3D/jR2KLUvzNsoaNiTpXAmg0nYOIvCeQO3Od3WtN5/CzQBcAqJ5d0fEj/O2yVk1fnDwYEG7cRBRMtiVytekQfhfYAhBvS7QCOKSikyhOjLen5ld0DiqL2vgO3O38SES1657ezLoXTIfwu8AWABVZWI15HOCr1ZiHihdrSyxQ4CTTOYioIhxR/brpEEEQ2AIgwKLqzKPvbWqf9cFqzEWj27njH/7ddA4iqgwRrOrr7F5tOkcQBLIAxNLJWQq8s1rzCZz/wNJ5XG6uAZt16ycBeZvpHERUESrQb5gOERSBLAACtFd5ykNimwcurPKctIfUeamxDvAF0zmIqFL0vo2Z7mdNpwiKQBYAVZxW9UlFlsXTc/nImUHbXtdPCdBiOgcRVYRGHOE9Vx4KXAFoWDKzGTCy89sUdQpXGZiXADSmGyeK4nLTOYioMhTo7F2Z/Z3pHEESuAIQKVgfhql/LtFPcotgMyyMvwhAk+kcRFQRdiSCL5sOETSBKwAiRh//stSyvge+LriqpqRn7w/FxaZzEFFlqOptG1dk/2w6R9AEqwDMR1QV7zec4pim9kRldyCktxij9iUApprOQUQVMSQWr/1XQqAKQGPDzGMATDadQyDfaTpjVsx0jjBoXtA8XoFPmc5BRJWhwHW5THad6RxBFKgCYMGqld3fpsmQ/T3TIcLAro9+EsA00zmIqCIGbbH53H+FBKoAqNnr/28lsjiWnnmq6RiBlkYEIheZjkFElaGK/9yc6dlgOkdQBaYAxNNzG0XxDtM53kKtHyc+lphiOkZQxZ1EG4DZpnMQUUW8XG/Z3zQdIsgCUwDUKZyI2vvnmb5jSL5lOkRQqQjv/CcKLPlqT6Zni+kUQVZrJ8yyiTjHmc4wjE80pRMfMB0iaKYvmnUcgKNN5yCiilg76fXotaZDBF1gCoBC3ms6wzBEVH4y9cy5+5kOEiSOZfO3f6KAEtHL1zy0ZofpHEEXiAIwY+GMaQAOMZ1jBLOig0N8KsAjMxbNaAHkFNM5iKginurLdHeaDhEGgSgAeavuvajx3fdE5LxYOrXYdI4gyEci5wOImM5BRJ5TdfQyAGo6SBgEogBY0Fpd/n8r1R83L5kz03QMX1sGS1TONx2DiCpA9Z7+ld1Pmo4RFoEoAGrV7PX/PU22C/YNqPHVilrW9MfUBwAkTecgIs8NArjCdIgw8X0BiJ0dmwDVd5rOUTz9QKw9xc1ryiX6SdMRiMh7Anw719m91nSOMPF9AXC21x8BIGo6R2n0G7F0y2GmU/hNbOGcJgG4uyJR8HRbO/Lc9KfKfF8ARKwjTWcow1ho5O7mBc3jTQfxE4kWzgVQbzoHEXlLoJf23t+7zXSOsPF/AVAcYTpDmQ6xx9T9wHQIP1EVvmaZKGgEj/V1dGdMxwgj3xcAAPNMB3Dh403tiXNMh/CD5vSsAwHlZROiYCmg4PyT6RBh5esCsGt3vQNM53BDID+avjh5sOkctc5WJ206AxF5TX6UW7X+edMpwsrXBaB+R+EI+PyfAcAEx5YVLemWcaaD1DRBu+kIROSp/h0FXGk6RJj5++Qp6scbAPdBD8trhFsFD6Nh8ewDoHi76RxE5B1VveSVe7teMZ0jzHxdAFRxuOkMHrqgqT15pukQtShiO22mMxCRhwSP9Hd23246Rtj5uwBITb8AqGQCXNfYlvTRpkbVoqebTkBEntkRgfUZ0yHI3wVARHGg6RAeG2eJrpiSnr2/6SC1ItaWmA3gHaZzEJFHBF/rzax7wXQM8nEBmL5oVgLABNM5vCdvq4dzG/i+AACAiJxkOgMReWZ1AyZ+23QI2sm3BaAQ0eA+Oqe6INae+rzpGLVABR8wnYGIPOE4ov+4OrN6yHQQ2sm3BcByENwCAADQq5raUh8yncKo+YhC8T7TMYjIC3rdQKb7V6ZT0N/5tgBAArwCsJMlonfG0slZpoOY0tSQPAoA74cg8r/eMfX4gukQ9Fa+LQAKOch0hiqYCsiK1HmpsaaDmKFc/icKAFFc0H1n98umc9Bb+bYACHSO6QxVoXrk4Gu63HQME0SEBYDI5xR6S19n9kHTOWhvviwArenWegBx0zmqRQVnx9pSnzOdo5qmnjl3PyiOMp2DiFzZOLYeofp3l5/4sgAMWK/OhE+zl030W7H2xPtNx6iWuh1DxwGoM52DiNzQpVz6r12+PIlaeSthOoMBUUDuaVo8MxyXPiBHm05AROVT6C25ju6fms5Bw/NlAUBEkqYjGDJVCtb9u16DHHDK5X8iLPOZpQAAIABJREFU/9pYL87FpkPQyHxZABw4YVwB2ElwcHRH/gYEe6dAAeRdpkMQUVlUBBf0ZHq2mA5CI/NlARAN7QoAAECA9lg6eYXpHJXSsHj22wBMNZ2DiEqnwLV9mewDpnPQ6HxZAACZaTqBcYqvxtoTp5iOUQmWbR9pOgMRleUv0R35fzEdgorj0wKgMdMJaoAFyJ3xtkSr6SBeE4A3ABL5T17EOrf3/t5tpoNQcXxaANBgOkCNmATIysmnpSabDuIx3gBI5DciX+7LrHvGdAwqnl8LAK8P76KCA8ZE9XYs8+1/l2+VRgTA203HIKLiqegvc61d3zKdg0rju5NGY7pxIoCQ7o0/rI/Enk9+zXQIL8ScRBL875fIT/4WsSPnYBkc00GoNL4rAFF74jTTGWrUF+LpRLvpEG6JyIGmMxBRCVQu3LhyXdZ0DCqd7woApNBoOkKNElW5tXlR8gjTQdxwBEF/zTNRkFyX6+y6y3QIKo/vCoAtUV7/H94420JmxsIZvl0lEdUDTGcgomLIH+vEvsh0Ciqf7wqAqPr25FYlswvR6N2Yj6jpIOWRg0wnIKJRbY0oTu/J9Gw3HYTK57sCAEvHm45Q8xQnxqclrzEdo0wsAEQ1TqGf7u3s+ovpHOSO7wqAAONMZ/ADFVwcb0993HSOUuzaz4CbPBHVthv7O7pvNR2C3PNdAXCUj4gVS6E/nJ5OzDOdo1hjLfttpjMQ0YhWR3bkP2s6BHnDdwVA+Ix4KcY5DlbFFs5pMh2kGGpFmk1nIKJhbRXR07nVb3D4rgCAlwBKIzITkcKq1nRrvekoo1EBCwBRbVJR/URfpvtPpoOQd3xXACR8lwB2eDDGsQO69T88GKeiLAdx0xmIaG8K+XZfZ/c9pnOQt3xXABC+FYACVFe4HUSAT8XSyU94EahSVHS66QxEtAfBI/3SdYXpGOQ93xUAFYwxnaHKJgCyVRTfcT2S4odN6eQxHmSqFBYAolqi6IoWCkuQgW06CnnPdwUACjUdoeoEH7eB2wFc7XKkMaJYOWPRjBYvYnmN9wAQ1ZRBy9L2Das2bDYdhCrDfwVAtGA6ggGWJfrNXEf2i6r4tsux4gUrek8t3hQoynsAiGqFii7dmOl+1nQOqhzfFQCFhHQpSj7YmE6d1N+ZvQwqy10OdsyAbnV/ScFLy2AB8MXjikTBp9/tz3TfZjoFVZbvCoAgvNeiLOi3kUYkt7nr0wAecDOWAJ9uak+e6VE016asnj0J8Ov7C4iCQ4GHctJ9qekcVHm+KwCAhrYAQHFozEmcj8dRiOzInw7gaTfDCXBdY1vynR6lcyUSyU8wnYEo9BR/zkvkDN70Fw6+KwAS2ksAu4hcNfXMufv13t+7TaRuAYA1LkYbZwnumZKevb9X8coleWUBIDJrs0adBS9n1v7NdBCqDt8VACfsBQBoqt+RvxQA+jJrBqwITgWwxcV4c+vh3AZAPElXLivKAkBkzpCItPWvWP+S6SBUPb4rAIJQPgXwFgpcMi3dMgMANq7I/lkctAMo//8vqgvi7YnLvMpXDlG+5pnIEFXRT/Zlun5hOghVlx8LwKumM9SA8RHHuuqNP/StzD4mAlc7dSnk67F08gT30cplTTQ3N1GIKa7mHf/h5LsC4IjFAgBARM5pTKfe8caf+zLZfxNBp4shI6q4pfmM5gYP4pWOKwBE1ae6IteZ/VfTMcgM3xUAcfCK6Qw1wrIUX9ntz2pj23kAyn5blwAthXzdrTByP4DDFQCi6vrFpG315wIh3F2VAPixAFi8BPB3uiC+aOaRb/xpIDOwVUTTALaWO6IAJze1Jy/xJF5p84btJU9EBskfhyTy0TUPrfHibaPkU74rAI6tXAH4O3Esa/dVAPRluv+kgnPgotUL8I2m9uSxrtOVNKnwtxCi6tgQiUY+wsf9yHcFQCIOVwB2s+s39recrPsz2VUK/MjFsFFR3JH4WGKKy3hFC/3+DkTV8bKofqj37pfWmw5C5vmuAERQz9a6BwG+uufPojvylwH4i4tBU0NDcr2bXKVw4LAAEFXWoAPno32d3atNB6Ha4LsCMFhv8RLA3t4fT6eO3/0Hvff3brPUORtAvtxBFVgUa0ue7zpdUbgCQFRBjirOGuhY/4TpIFQ7fFcAttyx5lW4uMktqBw4e60CbOxc/1sFvuZqYMF3Y22J2a7GKGoaFgCiClGIXtjfmXXzmDAFkO8KAAAosMF0hlojKsfF2hPv3/Pn/Zuy3wDwaxdDT4LIbUgj4mKMUYk6TiXHJworgX4+l+l2+wpxCiBfFgABekxnqE2y92/7j6MA1bMAvOZi4GNjmrzcxfdHxXc8EHlPVL7a19H9LdM5qDb5tAAIVwD27ZjGdOqkPX+Y6+xeq5B/cTn2V3bfc8B7LABEnlL8oK+z60rTMah2+bIAKJQrAMOwdj4RsNdOfv0dXcsBPOpi6KiKdUtLuqUiG/ZYlpZ9syIR7eWmXGf2n0yHoNrmywIgvAdgeKpHNqZTH9rXJ3YkciGA8nf+EhxccCJXjX5g6WwoH+8k8oRkcpK9ANzil0bhywKg4nAFYASW6j6X+zetWPuiQL7pZmwVXBRPzzrKzRj7YhW4wyORBx5okAlnIQNeUqNR+bIARGyLBWBkJ0xPJ+bt64OxE/FNUbzoYuyIql6PpfPqXIyxl6g4LABE7jww6fW6ttWZ1UOmg5A/+LIADI6rWwMub43IcbDPVYCum7sGVfRT7kbXw5q2bPq8uzHeaigyxAJAVL4HJr1e18aX+1ApDLz21Rux9uQGAM2mc9Qw2xH7oIFMz5p9fRhrT94O4EwX4+8Q0SP6Mt1lv354H5mGAHi6skAUdAo8NH6iLOq6uWvQdBbyF1+uAOzyZ9MBalxENPLPw32oddYlAF52Mf4YhdyAZZ7+HeKNgEQl4Mmf3PBtAVA3L7oJCQE+3nxGc8O+Puu/a11OgC+5mkDx7vjqpMvLCW/BywBExRK5v1EmnsaTP5XLtwXAEhaAIox38vWfGe7DPsn+BICrJXxVXN2wKDndzRi7YQEgKobgwUlbo2ne8Edu+LYAqCovARRBoZ9uXtA8fp8fZmCruFwFACZFxOULh94kbi5JEIWE3JOb0nAab/gjt3xbAAricAWgOA3O2LphX+nbn8muEuBXrmYQfNyLbYIVTq/bMYiCTBS35TZ1nYnlz3LnTHLNtwVgc6anF8CrpnP4gSo+N9Lb/BzBZXD3WKUFy/oOXD5VIpD1br5PFGSi+E5fZ/ZcPI6C6SwUDL4tANh5wvqd6RA+MTumiZOH+7A/k/21CFa6mUCB98TaUkvcjAFRFgCifZJr+jqzl4D7n5CH/FwAoJBnTGfwDZELR/q4YEWuAOByWdG5Ztj7DYogyhUAoj0oRP8519Hl6cZbRIDPCwBUWQCKpTgplk7OGu7jTSvWvqjAcldziMx06usvL/frajssAER/ZwvkE7lM9/dMB6Fg8nUBiNZFWQCKZ8HRpSMdoCJXAdjuZhIVvTienttYzneHonUsAEQ7DSpwel9H102mg1Bw+boA9N790noAvHO8WCKfmHvy3DHDfTyQ6epTwO2/cCY6Wri0nC++nFn7N/DGTqKXHTgf7O/Iurovh2g0vi4AO+lvTCfwkcbXJhQWjnRAVCLXwOW9AAL9dNMZs2Jlfp2rABReiq6IyrEDHeufMB2Fgi8ABYA3ApZCxRnxZsDezNpuUdztcpoJ1pBzWTlfVKDb5dxEviTA/9mKY3s7u7jHCVWF/wsAbwQsiagcF29LtI58lF4Dl48bqeDCMrcIXutmXiJ/0p8VhsYev2lldqPpJBQevi8AkaHCUwC4JWYJVOT/jfR5X2f3akDvcznNuIhIyU8E8B0PFDYCuTU3tfGUTfe98JrpLBQuvi8Avff3bgPwa9M5fOac2NmxCSMeodY3XM8i+v8alsxsLuk7Nla7npfIH1RUvtrX0XUet/YlE3xfAHZ52HQAn9lft40Z8WbAXGfX0wAedTnP2EjBGvGegz3ZEeFLnigMBqFyZl9n15Xg7n5kSCAKgIj1iOkMfmOJnDnaMaryLQ+mWjrSo4d7Gsh09QHY4sG8RLVqI1Tm5zq77jIdhMItEAWgD+ueBU8aJVHgxMZ0Kj7SMf2dXT9T4AWXUzW9OnHo9JK+IeAqAAXVHyzHOmbXChuRUYEoAMjAFsFjpmP4TNRynNFOzCoqP3E7kahcVNIXFH9yOydRzRE8mB9T996NK9dlTUchAoJSAAA4jvAyQKkEo14G2GHjJgCvu5xpXjw966iij1beB0BBI9/PtWYXbLljDXe6pJoRmAIgcH5mOoP/yFENi2cfMNIRr9zb9QrcbwwEOM5nij1URfgkAAXFNgXOynV0XYRlcEyHIdpdYApArrN7LQTPm87hN1Hb+dhox6iFG9zOo4LTYwvnNBVzbJ0zxEsA5H+Kl9S2ju3vyN5hOgrRvgSmAACAqHSazuA3qnoWABnpmP5M9teA6w16xiCaP6OYAzes3NADoN/lfETmCB4cM0aP7F+17jnTUYiGE6gCoLbdYTqD7wjmxNpSo1+fF7nF/WTWqPcc7IYveSI/UkCuybVmF3Tf2f2y6TBEIwlUAcitWv883P+mGkaj/mZuR+xbAdiuZlE9srktdVBRhwrf8UC+87IoTsl1dH2e1/vJDwJVAHbhKkCpRE8d7ZBNd6/vhQePWjpFlA0AUFgsAOQnv4fqu/o6sw+aDkJUrMAVALUtFoDSzYqlWw4b/TDNuJ1IRU8r5rj6Qv434Bap5AeKG+rEPjbX2c03WZKvBK4A9K9a95wHu9eFUGTUVYBItLASQMHlRIc3LZ45Z7SDNqzasBnASy7nIqqk1xQ4K9eZ/WRPpme76TBEpQpcAQAAUV1lOoPvKBaMdkjvXb2bAHG/46JjfbTITLwMQLXqWUfsI/iIH/lZIAuAFZVbTWfwoSNHezcAAKhipduJROWkog60eCMg1RwF9LsNMvHYgUzPGtNhiNwIZAHYuCL7ZwF+ZTqHz1iW6imjHRStizzgfip9T+q81NhRj4KwAFAt2QzVj+Y6uj+3OrN6yHQYIrcCWQAAACKud68LHZFR7wPovful9RC43dxk3Patzj+MdtD4CfJ/APIu5yJyTSFPRJ3CO3Kd3febzkLklcAWAGtw6B4AfzOdw1dU39+8oHn86MfBg1UAOWG0I7pu7hoENwQis/IAvtgvXe/btUMlUWAEtgD03t+7TaB3mc7hM+Od+rr5ox2kjnrxrPO7izpK+ZpnMma1ozg615G9GhmXm2AR1aDAFgAAEMH1pjP4jQPMH+2Y/obGZ+D+FcFHIo3IqEdZeNTlPESlckTxnXET5V0Dndn/Mx2GqFICXQA2ZrqfFYD/Ay6BiB4/6kHLn80D8pTLqSbF0HLIaAeNmyBPARh0ORdRsbrFwYl9ndlLdl2CIgqsQBcAAHBErjOdwV/kiIZTD5w0+nH6uOuZnOgRox2z61/CbssG0agEcuuQRA7vW5nlZScKhcAXABm7/VYAW0zn8JFotH7wPaMdpI7+wu1EDrS1yEP5L2SqpJwCbX0dXee+nFnLG4cpNAJfAHK35V4X4Iemc/iJQka9DLDf9vrfAnD1LLQIRr0EsDMP7wOgyhDIrXViH9LfkXW9wRWR3wS+AACA2tEfAOBe3UXT+aMdseahNTtU8LzLiYoqAP1TG34D4DWXcxHtrtsRObmvo+vcnkwPVwgplEJRAHKrXuoXxc2mc/jIvGLuAxBHfutyngSWzqsb9ajlz+aVOzuSNxQqy+2hsYcOZLr+23QYIpNCUQAAwLbs7wB8lrdIUat+6JjRD3PcFoBI88svTy/yWF4GIFdE8aID5/hcZ9f/23TfC1xRotALTQEYyPSsUYBvCSySwHnXaMdYUNePWOZRSBR1oG097HYuCq0CINeMnSRvH+hY/4TpMES1IjQFAAAsx/mW6Qx+ocA7Rzsmnx//ws5Dy2ep1VLMcf2r1j0HoNvNXBQ+AvwKYh+R6+j6PJ/rJ3qrUBWAvpXrfwMuJRdFgHeMdsyuZdSNbuZRwZTiD8Z9buaiUOkXlfP6OrLH5TI9fzQdhqgWhaoAAICI9QW4/K01JOZMSc/ev4jjXnQziSgmF3usisU3sdFoHFHcFqnLt/Z1dt0C/m+daFihKwB9mXXPAMrfJEcnY219++iH6Qsu5ymmZAAAGmX84wBedTkfBZXIbyx1ju7rzJ7Te1fvJtNxiGpd6AoAAIjii+ATAaNyIvao9wEA4uq6vEInFnvs6szqIUD+x818FEgvq8qFudaud2/sXO/2yRSi0AhlAejr7F6tqreZzlHrVEe/EVAgru4BACClHKzi8DIAvcERxW2wowf1d3b9GMvgmA5E5CdR0wFMiVrRK221lwAYazpLrbIgh492jC3YaLm4yirQ0V8JvJu6gv1gIRItIMR/dwkQ0f+Bg0v6OrtXm85C5FehXAEAgN7M2m4A15rOUcsUmD3aMVJwuQKgVkkrABtWbdgM4ElXc5JvieJFgZ7el+k+iSd/IndCWwAAIFKXvxq8qWwk+7ekW6aOdIAdzbu62UpFCyV/B+BlgPDZLILP9k1rOLSvoztjOgxREIS6AOy8U1i+aTpHLbMdGXEVYEKdtc3dDLK11G84kQgLQHjkAf3umHp9W18m+wMsfzZvOhBRUIS6AABAg0z4dyj+bDpHrVKRWSN9Xv9yvasCINCS92TftGLtiwD+4GZeqnkKSMZRuzXX0f257ju7XzYdiChoQl8AVmdWD4ni0+CGIcMZsQCseWjNDrh6pLL0FYCdX5O7yp+TaprgQUfkiFxH1+kDnT1/NR2HKKhCXwAAoG9l9jEAd5jOUYuKuREQwPbyx9eBMr+5AixtwSJ40oFzXC6T/chApuv3puMQBR0LwC5aZ10K4BXTOWqNQJJFHFbSo3y7sxz0lvO9XCa7DsD/ljsv1ZQ/ALogl8m+h2/rI6oeFoBd+u9alxPgi6Zz1BoFGoo4rK7c8a2IVVYB2El5GcDPFC8pcFbu0Ow7cx3dPzUdhyhsWAB20yfZnwDgVqJvNeJjgNi5k1/Zm/LksXVDud91xMqAWzr7kP5VRD6e25w9qL8jewd38CMygwVgdxnYljoXgieV3Y1YAFrTrWX/9g9g40BmoLybAAEMZLr6IHjMxfxURQq8oKLn5KT74L5M1814HCXvAUFE3mEB2MPOl4nIv5nOUUP2R3r4a/wD0W1TXIz9JxfffcPdHoxBlfUnhZ7bvyl7aH+m+zZkWLCJagELwD7kpk77V/BSwBtkRmHG5GE/HULMxdiuC8COvHQC2OF2HKqI1Qo9NyfZw/s7um/lb/xEtYUFYF+WP5sX1fMADJqOUguGLBn2MoCI3VjuuCriegOmV+7teoWvCK41+owCbblDd534+Rs/UU1iARhGX2f3aqhcYTpHTbCiE4b9TKTsFYCIY/+m3O/ugU8DmKcAfmo51vG5ju6j+zuyK3lzH1FtYwEYQe6wru8B+LnpHMY5OsIb+yRR5qjbN05req7M775FnRT+C9zDwZQdAG4U0UNzHdkFG1eu+6XpQERUHBaAkSyDUxD7XABbTEcxqU4xbAEQxcFlDSr4nVcvdunJ9GxX7uRYba8C8v2oU5ib68h+oi/T7cUNnURURSwAo9ic6dkAlc+YzmGSijPs3xOFc1A5Y4p6u4ufKm7wcjwaVhYqF9tDY1tyHV0XbVi5ocd0ICIqDwtAEXKdXXeJ4jbTOUzR4VcABJCyCoAt8oiLSHsZ6Mz+nwp+5+WY9CYF8KgKFuUkOyfX2fUfm+57oeS3OBJRbSl7B7ewsYby/2iPrTscirebzlJ1keg+C0B8SSqpBd2vjBEH6waHKnCtWK4H9EfejxtaW0VxGyz9AZf4iYKHKwBF6r2/d5taThuA0L2X3HacfV6rd/LOe8obUZ7ovb93m5tM+5KHdScAz8cNH/0rRP95SCItfZ3ZT/HkTxRMLAAl6F+x/iUBzgTC9XiTZe37DnuB9d5yxlNoRZ7bfzmz9m8C6ajE2CHgAHjAETk519F9YC7T/b2XM2v/ZjoUEVUOC0CJ+jqyD6noV0znqKYxdbrvR+xEjytnPFFd5SrQiIPjxoqNHUy9gFwD1bflOrKnDGS6/hs7r/kTUcCN8Hw3DWsZrNjq1L1QXWA6ShVoTrJ1e+7m1rAoOT1iYQNK/zv021xH9kjv4u1F4m3Jv6jggArO4Xd5Ae6H4oY+K/s/3KmPKJx4E2A5lsGxTx1zZqRu8GlImc/B+8er+zpBRC0s1DIKpAju8SbWsBSiNwLyzQrP4zuieBGiNzp1kZtzd63Lmc5DRGaxAJRp030vvBZbOPN0RKxfA5hoOk8F7XP5X4FFZYylClT8Gr0t1i2W6tcAuHlVcVBsF0hGHLlh48p1T4DL+0S0C+8BcCG3av3zjkgagCc72tUiFc3u+bPmM5obABxf8mCCx3OZ7Dovco1kINPVB+ClSs9TwxwAPxeRj+fH1MX7OrrO3bVFL0/+RPQmrgC4NJDp+u94OrVUVW9EAO+pEJW9TqSFfH2bQEv/u+PIdZ6EGkVLumVqXpGqxlw1RfCcKm63xb5rc6Zng+k4RFTbWAA80JfpujmWTs6A4irTWTwne/8mLdBPlTHS5nGTULm7/3eTd6yzIBhbjbmMU10Pse6Ebd+eW7X+edNxiMg/WAA8kstkvx5vT7Qo5B9NZ/HUHisA0xfNOs6Bc3gZI93adXPXoEephhU7OzYB2+XySs9j2BYoVonI7X2HZX/J1+4SUTlYADzUJ92fiWliOiAfNZ3FK5baa3b/s205ny3jOocN1R94lWlE28d+DkBzVeaqrgEA9yqsjv6pUx97802K3PaIiMoUuGvWprWkW8blNfJzAMeYzuKBoXETZf83fnOPpZOzoHgRJRZHBTr6O7LpiiTcTTw9t1E1vwZAOe8nqEV9olilFjpyyP6Cz+sTkZe4AuCxnkzP9hkLZyzIR6JPCnCg6Twu/WH3ZXtx8BWV0v/OiMq/eRtr39TJfxni+5P/BgArLcfq2Hj4ul9xeZ+IKoUrABUyY9GMloIVfQzAXNNZyqXAj/o7sp8GgNjCmYciYj2HEh8dVcgT/R1dZW0ZXIqGxbMPiNj28/Djs/+C5+HoT9WS+/pbs0/zpE9E1cAVgArZsHJDz4xFM97n6xIg+r9v/t/RyNVQLX3fCHG+5mWk4UQc+4fwz8m/AMHTonq/JZF7ezPrXnjzk4zBVEQUKlwBqDA/rwRYjpXauHJdNtaeeD8gj5T6/Wr99t/UljhLRG6r9Dwu9QN4QIGfqmz72UBmYKvpQEQUbiwAVeDPEiB/zHV0Hb7zsbqxfwQwq+QRROb3Zbp+UYFwb9q56U/kzwCaKjlPGWyI/A6O/gwqP80d3vUMl/aJqJbwEkAV+PJygOp9AIDtY7+BMk7+EDxS6ZM/AOQ1cg1q5+S/URSPQPT+qDg/78n0bHnzk5UGUxER7QNXAKrITysBCvwDHBWx5Jco/Z0RjqXO0Rs71/+2Etne0JhOvMdS+SXM/T1+BcBjKvKwovDwQKZnzajfICKqESwAVeaLEqDoghM9GpHCMwCSJX9d9eb+zu6PVyDZm1rTrfWbdOvvALRWcp49bAfwtIo+BsjD/cg+w2fziciveAmgyjas3NDTmE6911L9KYB5pvPsi4jcohH7dpRx8gew1anTL3qdaU+bsPVfUPmT/2sCPKnAE47oL5sw6ZnVmdVDFZ6TiKgquAJgSOzs2AQMjr0Hig+bzrIHB8AKAGeU+f0v5jqyV3uYZy/N6VkH2ur8HvD8hT+v7Xo87xFb8CRP+EQUZCwAJi2dV9e0ZeA6gZxrOspuBgGMQTl/NxQvjZskh1b0pT/LYMWeTz4B4FivhhTg31TsW3OtPat5pz4RhQULgHkSb09dqdArTQdxS0U/2J/pfriSc8TSiYug8l0Ph3w815E9AYB6OCYRUc0rfWc38pr2dXQtg+ITAAqmw5RLobdU+uQ/fdGsJFSu8nDIbY7YF4AnfyIKIRaAGpHrzN4ISDuAbaazlGGzJfX/UuE5xLHs5QAmejaiypf46B4RhRULQA3JdXT9lwIfwM53v/uGAhf1ZdZUNHO8PXUeIB/0cMjf56yu73s4HhGRr7AA1Jj+juxTUadwBKDPmM5SFMG9/R3ZOyo5RcOi5HSF/ruHQ6rlWBfxGX4iCjMWgBq0YeWGnnETreMVeovpLKPoi0TzF1R6koiFHwKY4tV4Arlt48p1v/RqPCIiP+JTADUulk4shcp/Aqg3nWVPIjilL5N9oJJzxNKpxVC928MhX7MdHLhpZXajh2MSEfkOVwBqXC7TvVwdPQFATZ2wBPrjSp/8m89oboCqt9fpVa7kyZ+IiAXAF/pXdj9ZEPtIAE+bzrLLn3TcjksrPYmdr/s+vH3T3+rctGk/8HA8IiLfYgHwic2Zng2TXq87HirLDUd5XUTTudtyr1dyklh74hSUvx3xPomDz2L5s3kvxyQi8iveA+BD8XTqPN25ND6p2nOr6Dn9me7bKjlH4mOJKTuGZDWA6R4Oe3euI+tpoSAi8jOuAPhQX6brZonK4QL8qqoTK26o9MkfAAaH8B/w9uS/LSKRyz0cj4jI91gAfKrv7q6uvk3Z9wnwNaAqz7P/vs6yP1vpSRrTqZO8fzmSXNWbWdvt7ZhERP7GSwABEGtLHQ3R2wHMrdAUm6F6VK6ze22FxgcATD1z7n51O/J/BJDwbFDFS5O21bWueWjNDs/GJCIKAK4ABECus+vp/Ji6eRW6QbAgDtKVPvkDQN1g4dvw8uQPANDP8eRPRLQ3rgAETDydaFeVnwCY6sV4ovhMX2f2h16MNZL4ouT71MLP4eXfScEjuUz2A56NR0QUIFwBCJi+THeH5VhHAHjU9WCKG6px8o+dHZugFq6Ht4U0H3Gk4vcsEBH5FQtAAG1cuS6b68ieqNBuEV/bAAAH0klEQVRzAWwpdxzH0pu9SzWC7eOuBjDbyyEF+H5vZ9dfvByTiChIWACCS/s7um+NOoW3Ayhry15xrAaPM+2laVHiHwD9jMfD5nZI5Gsej0lEFCgsAAG3YeWGnlxH9hQFzgIwUNKXRQ+rTKqdWtIt42DJDfD676Hiipcza//m6ZhERAHDAhAS/R3ZO+rEPmjXkwJOMd8RwRGVzDSk0WUCHOjpoCK/yR2WvdnTMYmIAohPAYTQ9HRingPrWqgeOcqhW3KHZhuxrLjCUIp4etZRqs5TACIeDquO6HEDme7q7pBIRORDXAEIoY2Z7mdzA13HKnTZKIdOja1uafV6/tZ0a73CuQHenvwhkNt48iciKg4LQFg9jkK/dF8FYMNIhwkix3s99Wbd+iUoDvV42NcKUfsLHo9JRBRYLABhloEN4H9GOkRVjvNyyqaFs96uwOe9HBMABHrVprvX93o9LhFRULEAhJ3KI6MccBy8uldkPqJWxLkJQJ0n471J/zrx9frveTsmEVGwsQCEnNbLowB0hENi0xcnD/Jirlhj6lIF3unFWHu4mPv9ExGVhgUg5PrvWpcDdM1Ix9iOzHc7T2O6ZS5Uv+x2nD0p8FCuo/unXo9LRBR0LAAEVTw50uei6vaFOmIhci2AcS7H2dNQVKzPeTwmEVEosAAQRGTEAgDg/Vg6r+zr9rF08nwoTiz3+8NRxfd6M+te8HpcIqIwYAEgWJGRVwAA7Ne0aeCocsZuOmNWDIpvl/PdUeTyVuTrFRiXiCgUWAAIG1dk/wJg80jHWJZV1mUAyev3AUwp57sjjivyee73T0RUPhYAAnY+BfDrEQ8Q/VCpg8bbkh8G9PSyUw3v2b7WrlsrMC4RUWiwANAu8tSIHyuObEm3TC12tIZTD5yk0B+7jrWvJCqfrsT7CYiIwoQFgAAAljPqjYCRAqwTih0vUjd4NURmuoy1F1W9JdfZ9bTX4xIRhQ0LAAEAIpH8bwAMjXSMqnywmLGa0sljIPiUJ8He6jVH5YoKjEtEFDosAAQA6Mn0bIfIc6McNnoBWDqvToDlqMDfLYFetWlldqPX4xIRhRELAP2do6MtrScbFs8+YKQD4lsGLq7Am/4AYA33+yci8g4LAL1JLX1mtGOijj3sKkDzkjkzFfIlb1PtJIqLuN8/EZF3WADoTY4VHfXmOsXw9wE4hcJ3AUz0NNROD/R1Zh+swLhERKHFAkBv2rRi7V8xyoZAUD1h7slzx+z546a21IcUWFSBWEN2JHJxBcYlIgo1FgDanYrob0c5ZsLWiYV37/6DuSfPHWNBv1+ZRPqdTSvWvliRsYmIQowFgN7KsUa/DOC89e2AW8cXrlDBiDcHlqkvP7b+GxUYl4go9FgAaA+jPgkAWH+/D6Ax3TJXRS+rSBTBJVvuWPNqRcYmIgo5FgB6i4hTeBo73w0wPNV58fTcRgCwEPkegLGeBxE8mctk7/J8XCIiAgCI6QBUe2LtyZcAzB7xIJEl4jiqIisqEMGx1Dl6Y+f60e5HICKi/9/eHYRIWcZxHP/933faDJTskIq47OISgRJEp92LFB66eBBlUBDCbkFJgocIzSIP3fLSRe0WusS4eBKh0wpmeFqQuuQkO1tOM+uqUKnkzrx/D4G0zoz77s7zzK7M93Mefv/n9v7eeZ/3fZapsNILwKp0TYsVANfezGwsRoM01yku/gAQF48A0Mpy7AOQF03aEmH6vWRg/niEXADA/1AA0Kq5+JsAsbjZ0ep4dW6l5gNAv6AAoMW6h4UpSb3/7K7p59nb02d6PhcA+hAFAC3Kl8r/yux6r+ea7CNNqtHruQDQjygAaG/xkwHDcp2rlaYv93QmAPQxCgDaynMyYEAP0iT9tIfzAKDvUQDQVp6TAYMxO1Et3Zzp2TwAAAUA7eU6GTAE12/r/imcjD4HALAABQCd5DkZsGuW6OPypXLv3zgAgD5HAUBnOU4G7I7/UCtVLsadAQBohwKAzuJuBHzUTAuHIuYDAJ6BAoCOMvmjaOHuX899f/PXaPkAgGeiAKAjc/skUnRtfs3AV5GyAQA5UADQ1sY9w6OSdkYJNx25e7b8V5RsAEAuFAC0ZYl/HidYP9ZLlfEo2QCA3CgAaLF5z9BbLr0bITpLsuywJI+QDQBYAgoAWjRT+0KShc4116k/J36P/m0BAMDiKABY4NXi8Jty3xUh+m4yMH88Qi4AYBkoAFgglR9ThLt/NztWHa/Ohc4FACwPBQBPbNg3OOKu3aFzTZqa1fTp0LkAgOWjAOAJaySHJaWBY7PM9KFKagbOBQB0gQIASdL63cPrZToYOtfkp2dLlZ9C5wIAukMBgCTpxTR7T9LawLF3khcanwXOBAAEQAHAf8zeDx7pdoSNfwCwOgXf7Y3nz8biljfk6fWQmSZdqZ2v7BAf/QGAVYl/ACD3NPTO/3m5fyAu/gCwalEAIMmCPvt32cnaxMwvITMBAGFRACD3xreS/g4UN2MvPfwyUBYAIBIKAHR74o8bZj4q6WrXYZYdqn9Xv9/9qgAAMbEJEAtsKA6Nmdt+Se9Ivl1LKYmuc/WJyoFoiwMABEMBQEevFLe+XFA2ZvJtcm1NpBGXj0g2JGngqZ/XC83G9lsXbt1ZibUCAJaGAoClKyrdlA4PZs3stUT2uqS35fZN7fz05EovDQCQz2MVlgRu6LRBwAAAAABJRU5ErkJggg==;" parent="loVLZ2iteedALe1XScku-2" vertex="1">
          <mxGeometry x="3" y="13" width="24" height="24" as="geometry" />
        </mxCell>
        <mxCell id="loVLZ2iteedALe1XScku-5" value="" style="group;horizontal=1;" parent="loVLZ2iteedALe1XScku-1" vertex="1" connectable="0">
          <mxGeometry x="640" y="140" width="140" height="70" as="geometry" />
        </mxCell>
        <mxCell id="loVLZ2iteedALe1XScku-6" value="&lt;div&gt;&lt;span style=&quot;background-color: initial;&quot;&gt;Nextcloud&lt;/span&gt;&lt;br&gt;&lt;/div&gt;" style="html=1;verticalLabelPosition=middle;align=center;labelBackgroundColor=none;verticalAlign=bottom;strokeWidth=2;strokeColor=#000000;shadow=0;dashed=0;shape=mxgraph.ios7.icons.cloud;fontSize=14;fontStyle=1;labelPosition=center;" parent="loVLZ2iteedALe1XScku-5" vertex="1">
          <mxGeometry width="140" height="70" as="geometry" />
        </mxCell>
        <mxCell id="loVLZ2iteedALe1XScku-7" value="" style="shape=image;aspect=fixed;image=data:image/png,iVBORw0KGgoAAAANSUhEUgAAAPAAAADwCAYAAAA+VemSAAAACXBIWXMAAAsTAAALEwEAmpwYAAAc6ElEQVR4nO2daXBj1ZmG1UCAWPKixXZ7lS3bksMWEmqqUsNMGEKApCpdmQQIAWaakB/5M0tmQoAUNTVNZiCW993uzXZbXlu25E66iqUJy4ROfqRYmybgK90rWbvU0NAQumloW1NXXtqStdzl3Cup/T5Vb5WrMZLu0fee75zvLFYoAAAAAAAAAAAAAAAAAAAAAAAAAAAAAAAAAAAAAAAAAAAAAAAAAAAAAAAAAAAAAAAAAAAAAAAAAAAAAAAAAAAAAAAAAAAAAAAAAAAAAAAAAAAAAAAAAAAAAAAAAAAAAAAAAAAAAAAAAAAAAAAAAAAAAAAAAAAAAAAAAAAAAAAAAAAAAAAAAAAAAAAAAAAAAAAAAAAAAAAAAACXGHuilxl/G6w3LYTvNNki/968EBlqXog8Y1qI/KnZHjnRvBChTfbwadNC+HxM9vBp9t/Y/xb7nYXw0yZ7ZDD2/9rDd5gWgnXsa2b7sQC4JKm2er78lYXQbc0L4SdXDRg517wQiaaUfatMmXXOaIv80WgLP2m0nfqWfsx1dbafG4C85dqFD2qaF8KPNdvDLzXbIp8JNCUHhVPpnNEeftG4EH600fZ+dbbbA4C8yLQme+Qeoy181GgLfyGBKS/KxkehZZMtdLx5PvQz05FThdluJwByCtORUyajLTxitEX+Kp8pt8rIQU220CdNtvDBZnvEmO12AyCrmBZC15vsIYvJHroghSG5mjKt5lMptGycDx9ttp66CWEEthVNC+Ebjbbw70zzoRXZTTlPWHOhlab58BHjXOiGbLcrAJJygyWoNM2HzCZb6II8WVIaNSVqLhxttIa+aLSGehsn3i9CGIFLjsb54C7jfNiTF4ZcM+VWhTKq0RoMNFnDuxXR6I5stzkAomGXYJps4d9n3ZQCDSlcwWOm6VOVCCGQtxjnQrcZ58KhXMuSxGRNrUZrKNpgDZ0yzAW+m+3vAQBe3PJS9IqmufATa5XaHM6S3E3ZKFSHgysN1lDvTfuiX0IYgZyn/reh8sa50PF8yZKy6HAo2nA49AeDLViW7e8HgJQYrcH6JmuQuuRNeViYGmaDdIM13IgQAjmHwRa8rnEu6MtLQ4ow5RaTxhRMrdlAsMnquzHb3xcAGzRaA7c0zQU/yilTEjVkBlOmNGsKzQQ/bJoNfBMhBHLCvI3W0Ln8MyVBQwrRTPAsTAyyisEaur7RGjqdbVNKkiUllGFN9bOBM/pJDKdBFmiaDxkarcHgJZ0leRpyQzN8FPDXWoP1CGIgG43WQGnj4eDitjHljLSqnw4466dD5QjhXCYa3dFsC15nOhJ+yLQQaTHZI/ZmW+REsy3CGG3h00Z7+HOjPXye/dlkj9BGW+SE0RaxmWyRFtNC+Cfs/5sL+2vZTRqNh4PHRRmSlClnAisNM4G3G2YCo4aZ4K8M0/4fsMN6djmrdmpJzW6euMZ68kr256apkIH9b4aZwA/Z362fDozVTwfeNkwHVqQ2aFJNswpskv9lhTV6eU7GqT1yotkeYdbuGfs87p4xW+SEKQfjlAgG6+likz3yU5MtfNhkj4R5HVZPdpRuPhw22cKzJlv4Ifa1s/FMDbMBc1az5Ezgo4aZwEjD4eCPDBbxGyPY12iYCd5bPx0YNUwHPiJrynjVZ1DdtP9JMt+SsDhtXggfbl6IhIVfW7QRv2GTPbtxKpxodIfRFv5O7AHs4XNCDqhzPEZ31jgfnjHNh++Uq8czzAS+G8t6cg9dpwMr9TPBZ1ijSXnZHHulj2E2+GPDTPDZWGaeTm/KeuLyL9fN+O9QyB6nkXO8b0LhHsuyx6kw9kQvM8WOzIVeFWxK4Rv9T8SOsEk4BGuc8FYbZoOnZC7wLBumA0cbpgKy33phmAxdXz/lt9RP+S8QNelUetVN+cM100uVksbpQnCX0RZ6VejtJ0LPacsRp4Jge5cmW+hdqc62pt7wH7+jqXEu9Jem+dC3pXjGhtnA72Uu8Dyrn/I3K7KMfibwlbrpwPNiTMlHdVOBqH4y8KxUcWqyhd6VO8EkqnEuLFmc8qLZFqlomgtZpDKk4G2Jh0NHDVZ/LannrJ/1PyBfgScQaJgK7FbkGPVTvl11U4EloabkrYngj4jGqS1kkdKUgmLaSjZOeWGcC32/aT50WjZT8tyK2GANnmmcC94j9jnZK2LYtUryVdek88kjbMVYkaOwbVE/5bcKMuQkX/mDJApAxoQ4zYkkExfTZOKUM41PU1exdx81WYMrchpS8G6m2eA+dilF6PPWzwT6pKi4xlVfpwKf1U35f57bRY6L1E0FfqafDJznb8o4g3JRp5g4Nc6HetlL97KRZPjHtbg45cQ11rCq0Rp8XnJTEt4cYZgNvCSkN2e3+Rmm/Bekq7rGijYf1U0FblHkGfrJ4K36Sf8ZAaZMKv26JjbJ4vuietJzPdE4nctioskc24LilBPsTpmGw8HXc8WUAtZP326yeqr4PHPdtP+olFXXukl/SD/t+5oiTzFYgtfVTfp9aQ2ZaEqeqrX47HzjtMkafD0nRn+CduLxj9OM6K3hnY3WoEPch5dnu2C66nD9TIDiumWvbtb71fop/4pkFddJf7DB4sn7w+1VU96mWosvJMakaWXxrVRbgteJilNrniWbWe5xyqlwEcu8snxw/qYUUOU9oR9zlWR67vpJ/2GpKq76Kf+ZfM68ibDD3NoJ/4fijJpatRbfFOc4tYo/8ZUbsc0tTtM3ytPUVYbZ4MukP7hka6hJCkspdvy8mK5gUDfhM9VP+i+IWgZJUbzRT7AFq/yb82ZCP+m9tdbiP8/VlBfNyUHjvgtspk8Xpw2zoZdzwZAk47t+OpA2TjNimA30Z9+UBLfvxe/46Ur13HVTgRHxyyApqq4T/n9TXKLoLd7/5GRI3vJFa8Z9B9LG6WEZsmQWkk66OE1L/Wxwl2FGgpMqnLMkma15KYe4k/4V/YT/B4nPXW4JKvUT/k8ILYPEF3Ym/L/Ll6UiQUSjO2osPjsXQ25onKMOef9aag2rEt+ycTa4S8j+dEl30pHcNz6VPE7TwlbBDDPBD7PygXmaUtQGgonA6cR9t3UTvgeJLYPEyyd6TpMHsBtRasd9fs7G5KCaNVUd8v5TYpw2zAQ/zJ2pmWSJZ0ucpsUwHbTmRJYUtauHm+lqJ33Tm5+9btL/AsllkE3LIfLttsky1Yf893ExJC8d8kWrx7zPbYnTmbw1Jd84j4vTlNRP+2+XPUsSNiVvc034blsNPE+V3uK7QH45xHdMsc2oHvf+PpMh+cu7XDXhrWZfv346dHveGVJknK/HaWqs0cvrJwPv5lKWFGpKXssW47532GNmtRb/Y8SXQcZ9F/Rj2T9VJDe1I4FrWMMJM2pqVY/5Ho7F6XTg3ZwwJcGtoxlHfJbVOE3Z6HWTvntzNUsKNRDnSuch7921Fv9LEiyDzCq2KdVjvjlRZl01bJyqxrzH6mZ89+ZqlqyTONZrJ7x3J2/taHSHfjLwpiymZIepFt8f9JO+h/UT3m+w17rctO/VL7Fif2b/rdbi+6Xe4nsllsGEGDJZ1TPtvMzzVq3Ff47o8se4b6V2wv91xTalasT71Zox70o6Q6aXd4uqRr3n6qYCb8mSJSd8F/STHOJ0wvcKkakXhwRRY/G/kXQlQ28JfIdnVZW/xv1n9eO+Vj53ObG/W2Pxt9XEmYvnEgSX4knsNXl2CJk/wzOKbU7VmO/ZTKbkKzYuJR26Wvxn9RP841Rv8bfVTvjPERsVpkhC1eOeO7d8AHaoJ1WvsdZzzFWO+mqEBoJh3F9bM+6z865ochyuxV5PYMeQpsO4V7HNqR713C/IqKOpxbatZENXi3+uYUZknPJZCxcUV97pLftIV3sdfqbk9CEPeVdqxr1PENnAEI3uqD3kfYxUcWTzkK6GVCZfU/W47yP2kjjFNqdin7+gatR7Jp0hN6uKg2JZmHTtZNy3oh/3E43T2nHvMpGYSozdMd9Zwz764rFD/bjvp6TmkvHyLldbfD9WSNCrb55bZSp8cBm+CVmXzLDkMUL6ufOVqhHPIS7G5COyBU2fNHE67rm/JpbASC2jbdK478GNN6od9x4mOp+8GMSPk26UjcYZ8/234DlVYs+/loEJL3kQu9Mp36kY8dzH2Zwj3FQ7Tq6gKXWcilgyS6mqsfVhNLt/9ZA3TGouuenN5yTd9xuN7qga9dozzZe4Bg5R8455V+oP4E+FrFNuCZZVHfSscDUnF8XqFhbxRc3qcenjtGbMZ+dWheeehKpGvcHY564e9VxPZD65uXcY9Z0VU7DiSsW4v7ZyxHtObM/OGp3vnDl97+g7IfWz5xuVI96T6b6Dyi3ypNZBTyyIa4XUJxLmknLFKbv8JbaAtzXpLF2rqD7ke0hYsKb7EB6zQiaqRrztXHvtVAFSFfvMwtcmt/SOY95RuZ4/X6g46BnPZEo+igXwuOikI2ucihkhpkhIuxXVo74WYnNJViOeC+yQSa6GKTtAl1eOeJbFBMV6ZZOUqsa8v5Lr+fOFioNLj/M1aVqNeMTNJUe9ssdp1ahnmcT8/2JC8jylqBr1LghJ36lUOer9P4XMVB70HBcSBBUHVrVayBK+LpnYThVjnn+Uuw1ynZ0HvXeJNe369xXTwXSjJk5zSNnjtGrEc5zfSDFDUjqwNK+oHPG8JSB1p+sVHpa7YSoPeh5J+iVz1Po8WGzntaFD3hvkboNcp3K/78aMpuSjtXlwtcBON2txKnLqENd2B5feUFSNetxCqoCpeomq/d5vyN0wFQfcN3P+4vcnailaNbo6jCaiEW9058GAXu42yHXK97vrBZs1iSrXR06jAjvZsezEKZHRx0UxiqqDnvfTFXj49hI7RwKlcjcMO79INCWrnRxFcl4Sy+YHPBq52yDXqdjn14ky7ZaON02ny+E7ylacih55bNLOA0unFBUHPOdJzk0k//MQSWjspa5Ka9J96UViXXJzB5iNNsh12O8okyETO+BMHXGVwFUHVtmKU7Gd1uY2Kd+/9FlKAwvtFbJm4AwmZVWeQqTWJtcFA6cIXg6m5KNKESPFrBk4TWfF9/ljBt65f+l9UkMa9kOUDzllK81vHppsMeZe7iK1NrkuDKGTD6EFGTVNh1wpYrSYrTgV+8zxCcl9SlGx3+NOV+Dh2zuU7XfJXhwoHXbfnNyc7tQadkfL1sQWRMROI+LqAAcZFLGSFLH4BCcXVYoYKZZlo9g67L6Z7zOmGjWy8V02vMQodu5zv0WiN7wol+zl+fK97kdYU64bkq9iVU2C1cGqA1hGSqRyv+tGYsG79t8rRIwYsxanGUzJS8NLbyjK9y7ZSTZs+bD7FbkbpnTI/SdOZh1KrooD8cMx0RXC/R5+F3FvA3YOu+/OGDs8gjlm4P2pCzyZ54/yx2n58NKfuJmT28ixbMg1x2bglp1EewX3BTnnF6UDrp1lQ67lZMYs5SjevXlGLWErZQJle5ce5x1L6bRP5Ihxr/xxWr7XtZzMlEJHjqXD7qfYXuEnYnuFrS/uapOtYYbcnWkNOrguV0oJMnC6ZZB97jG5nj9fKN+7ZBGdfRK0U+SosWzfkqxxKtSoqUaPpUPuf1aUD3muS5umhfQMQ+5zFfvoWqkbpXzYVacbdH2WzpybpUumAdfGPJjE2uRqz+9+W+pnzzfK9rre4WRMjjG2noXLRYway4aXZIvT0mH3Z1ymc3xGj5ph9zWxA8elw+6w2N4g8c11g2671AeldYOuI6lMyUexYTShtck1A6+wSwaSPXuewbZF2ZBrRVQGSjTwMJm5ZOmQ9HFaOuQ+wmdKx2X0qBtkVg/0s5QOuWdJ9AiJb64bcP+XVO2i7Xc9wdeoG+pflXZN7L+RrcTHAmjb30i5Ttmw+wGS5mXjUUz2Ltv6epLFaemg6wm+UzpuI0hmcvObPCSmN0ipAWZFN+C6j3SjaAfcD+j6Y68dZ0otJzFJRXJ9clVuHOpfo2zINS52VLdFBOeSZYOulTKJ4pT1AK8pHccRpGaQ2b3xRppeqkg3wHwqai6Z6o1XjWZO+zdduBKN7tD2M49p+5llLqaMU196sb236CW0+HnYmepOXCvLXitbNuj+mIspOY/ueJi/lPOI0bWiGyIYp0PMY7pBZlnotC6dtP3Mp9rWdwvj3lM7yEyLnUumF2NX9wgvGJQMMHpNH32Ejyk1PMR2TEQX2VkNeYhfVZpvaIfdD/CefmUaBRKeT5bGzy3t6n3i4lTX7zoidGrHZRSp6WOmtryxZpC5Q8o3ZQ2n6aPPafro9rIe7gUedv1M08t0aPqYz/iaUtPLXdo+F6E1yrg5Wdzfs92O6AZdx7gZi8f0jOhc0rUlYWn7mXO6ARfvONX1Mx3aAddnqWotQqZ2yUaSmn769lTD0zeIv2nS7Egva3uZ49o+5hF1r+NvYw215+SVil7qKvZndZ/zZnUf86imj/mjpo9eFmrKRKm3iI6qe1al6Xa+yS4riF2bTCyk6IaWblJsU0oHXDemmwMKkXaA+bRs0PUm1yVCnbhR47J2gDmuHWAeKR10b8Rp40acum/W9jGPavuZP26d1vEzJfeRJP16yqq5pp+5h/wbksuSmQ3JbBiSr4q7nT8sG3a/SHpNvGzYZVVsU3QDjE1wNkxtxGOl/cw9RKd3/VwTFpl6C2+PbPZJn/OHqVt8T/QybR/9DrE3I5wlial7VSVrKu6i32afvXTY/SjR5Y5VAy/vjC24by/UQ87r4oo4pLJjv+sX7HelG2DeSWdIKYaukhiSn2JxmrbhNX30tyU3pcSG5KviLue3Ys8+7KkqG3JdILY8sVEJdT2v2GboBpgXyBZBV4e07He0HqfaXM2SEiWv9TjNiKaXns21LClKXalV3OmcjD9b7Hpe0LpkhiqobpDZNhs7Yuv0hIa2cdm0j4n7e8vafnpW0iyZU6PJ+DhN/wX0L1Wqu52nc9aQGUy5KifbY2WQ44OCLnfF5mcvHVzaLXj3WVq5/MVDS2rFJU5Rp0ej7WcCZIa3Cep1P5AYp5pe+nQuZUlpvOL8QJcQpxkp6aG/p+52ruSSKTMbcpM6M6jDsVLS5fh+4nOXtweVuiHXJ/zXFzktaRyVdN9ttolGd2j6XEcEmTPDkFfTx3xSOnBSlfiWJf309zQ99EouFEIl8UqXM2mccqKki+7OfpbkYcoMKtqsDkfKo2SlA66DYtYZ01Zd+13/obhE0fYzv+RdHOI4R9X00vtTva+6h+7OVpaUIYGJOPK45+SVJd30C7lqyqItpuSmwg7H84p9r34p1WPr+mlj6QBzQdSmgNQV1/PaPje3YkQeESsq9TGfiykapZy39tIXSgccjSnffM/JK9U99As5N80T65fO9HHKCXbPZVGn87WsZEkepkwvx4YK26hXt+wjTfbcg8wMD1PyLc58rOt3f11xiaDrdd6k6WM+lqSyuzpvncj0GbSt7xaqe+jXsj3N4z3VS+0ZTnHKCWUPXV7c6aCIGLKTrCGL2i+qMINUbdSisp3bNSpl/fT1W048EZR2wBXS9TibFHkOO1pR9zJhQcbkVGSil9Vdjmu5xmlJF03l+1SvuNPBOU45wzZOUYfzNTmyJB9TclKbI6pqpV7l2yi6AddviS6DJG5K73eF8jkTs5k3o3nFV33n+XwmJWviTvq1XDMlV88Udjh5xyln2CpgYYfzuVwwJBep1tVKvcAemeT7vGWD9A26AdcXxJZBkhd4zmj7OC7Q59icV93LfCzWoGkrwz3M51yzb2KcFnc6n5M2S5JPZIUdDkFxyo89L11R2O54oqidWpbblCo+anVEVWZqRdXq6I0dlBCIto/pJrolL3mB5wttL/0EkbOociwV9TA/1/Qy50Uv12SoEpf0iKjA7nnpiuJOxxPFnY7l7E73OCSzNmpF1SYuTnlT2E7tUrU5PiCWJbkYMqmopFK2Ln6kaqPuEvucbCFB20f7xC6DcCzw/I7dCKHIUdT76GJ2SCvUkHxU0k17k6378qWwi9pV2OH4gKwhyY0wVe0UkTgVREGba6eqjbIUtlIrgrMkR0MmN2mCzGtqWTx69f86akg9p67PeZ+oZRAeUvfSQU0fszvXNnyU9NK7SnpojySbHJJI00XfTTJOizqclqJ2x0pWpnwpEpqqzXH06g5ycSoYZbvzW6o26iTfLJnRlGZ+KjAvvq1sddwqxTNqe5ljgpdBBBR41D3MC0Lmf6RR9zivU3fTL0pm1iQbIoq76bg9z6Qobnd+q6idOimlKTmNMFspyeJUOHuilxW2ULtUrdSfOWVJgipood4qaFncrbBGL5fq8WIHuFezo6R7bROXUDS9zFFtD/03Cpkp6aFvUHc7Lepu5wWhhhS4/hpm9zhLGqft7PSP+rPk077EUaaZequgzSFpnIonGt1R8BvqjgLz4pSyZfGsFIZd1eKnBS2Lk0ozdbtcw011N3Pnmqmkqbqmmk92O1dKup3PqXvo+6W8KI+9gK6ki36gpNt5LG4fvBTbBpPKuVzc47xNIQfR6I6iNuoOVatjqrCVOitVLUbVuvipyixvnBJDs4cqKjAvPlhgpqaVLYtB0aZtWQyyHQObbYntUuGJuof5jRQVVx7FnTPqbvqQutt5H3sPk9jnKW1z7VR30vcXd9Hjxd30x9IaNP3mieIu+teKLKDpZePU+aDK7JhWmamg6KlfDsSpJCjNjmvZh1KaqacKzIvzyhbqDaWZogtaqA+UZuo8q7WfaaV58fXY77C/27K4W/UUlRu3Wux56Qp1D/MHyTfLczV0D31S3UOPl3TRj2t66LuKu103FnctGmLVbHZZYs/JK9mf2X8r7qC+VtxD38X+bsywXfQ7cm4xTLehoqjL+WKuDC2VbJy2bYpTcx7GKUiNquM9XUmP8z3JDSrb0JWkKXnucFqVQ7LdRwAkQ93hqOG9rNK9rUzJaQdUUafTX9ztqkOUgewssXQ5T+ejIYmZUtRWRMdHJZ3MVxG6IGuUdDPfLO52nr2Us6QUKupwnFV10H+H0AVZR9Pp+kZJF/1+zmZJuUyZTps37bc7PlS10n+f7e8NgA3YXVPFnbT3UsqSfEzJWe2OAIbNICdhizHFnY73ctmUxA3J67ic01nURjVk+3sCICWqXqq0qMv5cl5nSRIndBIOBhS2Uy+yy28IHZD7WKOX8z2LytmUHbljSk4ndtpiJ9XMubJJAwDOFHc6bi3ucATyJUtKcIwuUtThuBMhA/KWL7e+W1nY7nw226YkdoSO60H1VuoZ9hxuttsfACKwR9gKOxxLOZgliZ5/LWxz+AvZI3MAXGqUt7+pjN0n1uE4nwtZkuv5V47nYr9g7x+7pE7fAJAMZSd9fWE7ZY8VeHLIlCpBopaVbQ4be4IH3zbYVrBBH7tTrN3xhUxZUpiSH2BfVpodRwtaqK9lux0ByCqFrc6mwjbqgKrN8Ykspkx5qwSH2z7N1MfKVmp/0W/S/K0iALYle1xXq9oc9yjbHEdjc0qZTJlZi8tKM3Vc1br4s9I94q96BWBbLD8pWx0Pq8yO51Vm6ix5U6a5eHD1Xm32zrFjSvN7vyh48i/8/rg0AGATvdRVyhbHPyhbF/9nLRN+KsiUmS4JNFOvKM2Lv1a1Urew74nvAAApiEZ3XN3O6NmbDpXmxX8tMFMDyhbq6QIzdVxppt5MfX8T9Wbsd9jfbaH6lS3v/Qv7Gleb6dq8uzERAAAAAAAAAAAAAAAAAAAAAAAAAAAAAAAAAAAAAAAAAAAAAAAAAAAAAAAAAAAAAAAAAAAAAAAAAAAAAAAAAAAAAAAAAAAAAAAAAAAAAAAAAAAAAAAAAAAAAAAAAAAAAAAAAAAAAAAAAAAAAAAAAAAAAAAAAAAAAAAAAAAAAAAAAAAAAAAAAAAAAAAAAAAAAAAAAAAAAAAAAKDIyP8DlPCA/RanHsIAAAAASUVORK5CYII=;" parent="loVLZ2iteedALe1XScku-5" vertex="1">
          <mxGeometry x="45" y="10" width="50" height="50" as="geometry" />
        </mxCell>
        <mxCell id="loVLZ2iteedALe1XScku-8" style="edgeStyle=orthogonalEdgeStyle;rounded=0;orthogonalLoop=1;jettySize=auto;html=1;exitX=0;exitY=0.25;exitDx=0;exitDy=0;endArrow=none;endFill=0;strokeColor=#999999;align=center;verticalAlign=middle;fontFamily=Helvetica;fontSize=12;fontColor=#666666;labelBackgroundColor=default;fillColor=#FAFAFA;curved=0;" parent="loVLZ2iteedALe1XScku-1" source="loVLZ2iteedALe1XScku-9" edge="1">
          <mxGeometry relative="1" as="geometry">
            <mxPoint x="300" y="210" as="targetPoint" />
          </mxGeometry>
        </mxCell>
        <mxCell id="loVLZ2iteedALe1XScku-9" value="MariaDB /&amp;nbsp;&lt;div&gt;ProstgreSQL&lt;br&gt;&lt;/div&gt;" style="rounded=1;whiteSpace=wrap;html=1;strokeColor=#999999;align=center;verticalAlign=middle;fontFamily=Helvetica;fontSize=12;fontColor=#999999;fillColor=default;" parent="loVLZ2iteedALe1XScku-1" vertex="1">
          <mxGeometry x="320" y="240" width="140" height="40" as="geometry" />
        </mxCell>
        <mxCell id="loVLZ2iteedALe1XScku-10" style="edgeStyle=orthogonalEdgeStyle;rounded=0;orthogonalLoop=1;jettySize=auto;html=1;exitX=0;exitY=0.25;exitDx=0;exitDy=0;endArrow=none;endFill=0;entryX=0.5;entryY=1;entryDx=0;entryDy=0;strokeColor=#999999;align=center;verticalAlign=middle;fontFamily=Helvetica;fontSize=12;fontColor=#666666;labelBackgroundColor=default;fillColor=#FAFAFA;curved=0;" parent="loVLZ2iteedALe1XScku-1" source="loVLZ2iteedALe1XScku-11" target="loVLZ2iteedALe1XScku-3" edge="1">
          <mxGeometry relative="1" as="geometry">
            <mxPoint x="300" y="250" as="targetPoint" />
          </mxGeometry>
        </mxCell>
        <mxCell id="loVLZ2iteedALe1XScku-11" value="&lt;div&gt;Redis&lt;/div&gt;" style="rounded=1;whiteSpace=wrap;html=1;strokeColor=#999999;align=center;verticalAlign=middle;fontFamily=Helvetica;fontSize=12;fontColor=#999999;fillColor=default;" parent="loVLZ2iteedALe1XScku-1" vertex="1">
          <mxGeometry x="320" y="300" width="140" height="40" as="geometry" />
        </mxCell>
        <mxCell id="loVLZ2iteedALe1XScku-12" style="edgeStyle=orthogonalEdgeStyle;rounded=0;orthogonalLoop=1;jettySize=auto;html=1;exitX=0;exitY=0.25;exitDx=0;exitDy=0;endArrow=none;endFill=0;entryX=0.5;entryY=1;entryDx=0;entryDy=0;strokeColor=#999999;align=center;verticalAlign=middle;fontFamily=Helvetica;fontSize=12;fontColor=#666666;labelBackgroundColor=default;fillColor=#FAFAFA;curved=0;" parent="loVLZ2iteedALe1XScku-1" source="loVLZ2iteedALe1XScku-13" target="loVLZ2iteedALe1XScku-3" edge="1">
          <mxGeometry relative="1" as="geometry">
            <mxPoint x="300" y="310" as="targetPoint" />
            <mxPoint x="320" y="370" as="sourcePoint" />
          </mxGeometry>
        </mxCell>
        <mxCell id="loVLZ2iteedALe1XScku-13" value="&lt;div&gt;Gothenberg&lt;/div&gt;" style="rounded=1;whiteSpace=wrap;html=1;align=center;verticalAlign=middle;fontFamily=Helvetica;fontSize=12;fontStyle=0;strokeColor=#999999;fontColor=#999999;fillColor=default;" parent="loVLZ2iteedALe1XScku-1" vertex="1">
          <mxGeometry x="320" y="360" width="140" height="40" as="geometry" />
        </mxCell>
        <mxCell id="loVLZ2iteedALe1XScku-14" value="&lt;div&gt;Tika&lt;/div&gt;" style="rounded=1;whiteSpace=wrap;html=1;align=center;verticalAlign=middle;fontFamily=Helvetica;fontSize=12;fontStyle=0;strokeColor=#999999;fontColor=#999999;fillColor=default;" parent="loVLZ2iteedALe1XScku-1" vertex="1">
          <mxGeometry x="320" y="420" width="140" height="40" as="geometry" />
        </mxCell>
        <mxCell id="loVLZ2iteedALe1XScku-15" style="edgeStyle=orthogonalEdgeStyle;rounded=0;orthogonalLoop=1;jettySize=auto;html=1;exitX=0;exitY=0.25;exitDx=0;exitDy=0;endArrow=none;endFill=0;entryX=0.5;entryY=1;entryDx=0;entryDy=0;strokeColor=#999999;align=center;verticalAlign=middle;fontFamily=Helvetica;fontSize=12;fontColor=#666666;labelBackgroundColor=default;fillColor=#FAFAFA;curved=0;" parent="loVLZ2iteedALe1XScku-1" source="loVLZ2iteedALe1XScku-14" target="loVLZ2iteedALe1XScku-3" edge="1">
          <mxGeometry relative="1" as="geometry">
            <mxPoint x="300" y="370" as="targetPoint" />
            <mxPoint x="320" y="430" as="sourcePoint" />
          </mxGeometry>
        </mxCell>
        <mxCell id="loVLZ2iteedALe1XScku-16" value="paperless-nexcloud-sync" style="rounded=1;whiteSpace=wrap;html=1;strokeWidth=1;strokeColor=#999999;align=center;verticalAlign=middle;fontFamily=Helvetica;fontSize=12;fontColor=#999999;fontStyle=0;fillColor=default;" parent="loVLZ2iteedALe1XScku-1" vertex="1">
          <mxGeometry x="320" y="480" width="140" height="40" as="geometry" />
        </mxCell>
        <mxCell id="loVLZ2iteedALe1XScku-17" style="edgeStyle=orthogonalEdgeStyle;rounded=1;orthogonalLoop=1;jettySize=auto;html=1;exitX=1;exitY=0.5;exitDx=0;exitDy=0;strokeWidth=1;strokeColor=#999999;align=center;verticalAlign=middle;fontFamily=Helvetica;fontSize=12;fontColor=#666666;labelBackgroundColor=default;endArrow=classic;fillColor=#FAFAFA;" parent="loVLZ2iteedALe1XScku-1" source="loVLZ2iteedALe1XScku-16" target="n3mtn9T0NU22_CLiPq3a-0" edge="1">
          <mxGeometry relative="1" as="geometry">
            <Array as="points">
              <mxPoint x="560" y="500" />
              <mxPoint x="560" y="240" />
            </Array>
          </mxGeometry>
        </mxCell>
        <mxCell id="loVLZ2iteedALe1XScku-18" value="WebDAV" style="edgeLabel;html=1;align=center;verticalAlign=middle;resizable=0;points=[];rounded=1;strokeColor=#999999;fontFamily=Helvetica;fontSize=12;fontColor=#666666;labelBackgroundColor=default;fillColor=#FAFAFA;" parent="loVLZ2iteedALe1XScku-17" vertex="1" connectable="0">
          <mxGeometry x="-0.2789" y="1" relative="1" as="geometry">
            <mxPoint y="-3" as="offset" />
          </mxGeometry>
        </mxCell>
        <mxCell id="loVLZ2iteedALe1XScku-19" style="edgeStyle=orthogonalEdgeStyle;rounded=0;orthogonalLoop=1;jettySize=auto;html=1;exitX=0;exitY=0.75;exitDx=0;exitDy=0;strokeColor=#4495D1;strokeWidth=2;align=center;verticalAlign=middle;fontFamily=Helvetica;fontSize=11;fontColor=default;labelBackgroundColor=default;endArrow=classic;" parent="loVLZ2iteedALe1XScku-1" source="loVLZ2iteedALe1XScku-20" target="loVLZ2iteedALe1XScku-34" edge="1">
          <mxGeometry relative="1" as="geometry">
            <Array as="points">
              <mxPoint x="280" y="570" />
              <mxPoint x="280" y="610" />
            </Array>
          </mxGeometry>
        </mxCell>
        <mxCell id="loVLZ2iteedALe1XScku-20" value="ProFTPD" style="rounded=1;whiteSpace=wrap;html=1;align=center;verticalAlign=middle;fontFamily=Helvetica;fontSize=12;strokeColor=default;fontColor=default;fillColor=default;strokeWidth=2;" parent="loVLZ2iteedALe1XScku-1" vertex="1">
          <mxGeometry x="320" y="540" width="140" height="40" as="geometry" />
        </mxCell>
        <mxCell id="loVLZ2iteedALe1XScku-22" style="edgeStyle=orthogonalEdgeStyle;rounded=1;orthogonalLoop=1;jettySize=auto;html=1;entryX=1;entryY=0.25;entryDx=0;entryDy=0;align=center;verticalAlign=middle;fontFamily=Helvetica;fontSize=12;fontColor=default;strokeColor=default;labelBackgroundColor=default;endArrow=classic;fillColor=#FAFAFA;strokeWidth=2;curved=0;" parent="loVLZ2iteedALe1XScku-1" source="n3mtn9T0NU22_CLiPq3a-1" target="loVLZ2iteedALe1XScku-20" edge="1">
          <mxGeometry relative="1" as="geometry">
            <mxPoint x="780" y="190" as="sourcePoint" />
            <Array as="points">
              <mxPoint x="820" y="240" />
              <mxPoint x="820" y="550" />
            </Array>
          </mxGeometry>
        </mxCell>
        <mxCell id="loVLZ2iteedALe1XScku-23" value="FTP/&lt;br&gt;SFTP" style="edgeLabel;html=1;align=center;verticalAlign=middle;resizable=0;points=[];rounded=1;strokeColor=default;fontFamily=Helvetica;fontSize=12;fontColor=default;fillColor=#FAFAFA;labelBackgroundColor=default;strokeWidth=2;" parent="loVLZ2iteedALe1XScku-22" vertex="1" connectable="0">
          <mxGeometry x="-0.2944" y="3" relative="1" as="geometry">
            <mxPoint x="-3" y="-2" as="offset" />
          </mxGeometry>
        </mxCell>
        <mxCell id="loVLZ2iteedALe1XScku-24" value="" style="group;" parent="loVLZ2iteedALe1XScku-1" vertex="1" connectable="0">
          <mxGeometry x="600" y="350.14" width="190" height="50" as="geometry" />
        </mxCell>
        <mxCell id="loVLZ2iteedALe1XScku-25" value="" style="sketch=0;aspect=fixed;pointerEvents=1;shadow=0;dashed=0;html=1;labelPosition=center;verticalLabelPosition=bottom;verticalAlign=middle;align=left;shape=mxgraph.azure.mobile;rounded=1;fontFamily=Helvetica;fontSize=12;fillColor=#1A1A1A;fontColor=#999999;strokeColor=#1A1A1A;" parent="loVLZ2iteedALe1XScku-24" vertex="1">
          <mxGeometry width="35" height="50" as="geometry" />
        </mxCell>
        <mxCell id="loVLZ2iteedALe1XScku-26" value="&lt;span style=&quot;white-space: pre;&quot;&gt;&#x9;&lt;/span&gt;Genius Scan &lt;span style=&quot;white-space: pre;&quot;&gt;&#x9;&lt;/span&gt;Enterprise" style="rounded=1;whiteSpace=wrap;html=1;align=left;verticalAlign=middle;fontFamily=Helvetica;fontSize=12;" parent="loVLZ2iteedALe1XScku-24" vertex="1">
          <mxGeometry x="50" width="130" height="50" as="geometry" />
        </mxCell>
        <mxCell id="loVLZ2iteedALe1XScku-27" value="" style="shape=image;verticalLabelPosition=bottom;labelBackgroundColor=default;verticalAlign=top;aspect=fixed;imageAspect=0;image=data:image/png,iVBORw0KGgoAAAANSUhEUgAAAPAAAADwCAIAAACxN37FAAAAAXNSR0IArs4c6QAAAARnQU1BAACxjwv8YQUAAAAJcEhZcwAADsMAAA7DAcdvqGQAAB0fSURBVHhe7Z0HfBRVHsd/gRRCGikESARBUCnSRUUBBT09Fe+seLYDT0RsJ+opNuRUUEBPBUG5s5dTDg9FxcOGqEDooYaWAGmkZ9M2u+m5/9t5xrDZJLubnfb2fT/zWeZNwm525jv/+b8ybwIaZ0AiEYZO/F+JRAik0BKhkEJLhEIKLREKKbREKKTQEqGQQkuEQgotEQoptEQopNASoZBCS4RCCi0RCim0RCik0BKhkEJLhEIKLREKKbREKKTQEqGQQkuEQgotEQoptEQopNASoZBCS4RCCi0RCim0RCik0BKhkEJLhEIKLREKKbREKKTQEqGQQkuEQgotEQoptEQopNASoZBCS4RCPmPFdzQ6Xht+XaiovCrbiQDHQjFEeVVWlEXiI6TQXqFoWvfr0kQ40LM34s5BRCJbInshKBSdg9ApCAGdUFWOqjK2VOSi+BAsv8BiRRn/r4xAIAjoLC33Him059gd2kUNRf+RGHAhEgYjsiu6dUdUD69SuAZYslFeAqsdGbtx+AdkHkJFCvsUerNgh99evKu/IoX2kArggTUYOApRvfgWNSjJRmkZ0rZj38/IXIeCLBawQxwhXEbuNpFCu4LSiVpHXCSBmkM5MYXMlysR0pVv0QB7KSzFOLQJu35Bytsscoc6LhHSbFdIoU+GEmLlWj/+ETRYsOPtk5yuAS54AtPn86L2lOYjbRd2/4ItL8AK0GlFZkuaIbMzBxSSq4AC4LRLcddKLM3HXYvQJYGF5ObQ7wwdy9d1oVsPnP17TH8er1rw4BoMuhGFgK1ZQ4rf4/cRmpQlISgwX7cIF01BfG9+ktvK8Hg39qOmU56kqQZeyUVMT75FfxphycXmNfjPXSxHCpcByp93QD3VvRyv0z/G++WY8gjiT/1th+RnIufk3UO/eeZNiInnRUMQgJgEXDkD71Zj1lcsty46uRnR//BLoUnNMqD7YMz5Ge80YuJN6BLBf9TErnXMj+ZQAj3sAoPusc7BOHcyljRiwXb0vZR9O3/V2s+EJpXLgegBmP0DXkjB0Al8uxP11dj3tXN9ixQZdglfNyynn4053+LZbehzsX9q7TdCUwZsJZUH44GvsOgARl7Mt7uktBgpP5zUvkGpdsJZ6JnIiwbnjDGY+wPmbETieHYCO1VthcY/hKbKHNWZpr6H+dtx3mQEtNfWdSDJuQWa/vvgyxBM1S7zMOQCpvXdn7Lv4jctIaILTcGpGDjnHryYiUunIti9DpF9P7NuuebQKTHmar5uIii3nnA9FhbgyudZBkIZl+gI3WxnB7oAf92As8bxLe5Qbcf0rqxG2NQVR7GNktFXchFlnAY7zzm+D4uHsWaQML5BSASN0KRgAXDhQ1hq88xm4ugOFo+bdyxTYDv1QnPbTPQbipdrMPk51hwpblYtotA1jpRx7jrc8Q8EO7W9uUHKTucGuypgwj183dR0CsKfnsJre1lWTV9KRMQSmgJzBTDoBizLw4hJfKOnrHuQjUBqDuUbZw7n6wLQdyhercCYmawBRLiaokBC02WUjtBtb+LRlY6hyV6Rl4r8k/cKvW0kkHAmL4pBSDjuewN3/ptVM8SqKYoiNAVRSnwfX4/Lp/Mt3nFwt3OdiRKYSc/ydcGYdDOe2cXac+g7ioIQQlM6GBGJBYcw/CK+xWvWPcAaRppDbz7C8B2EXnPaCMw7gV7nsFAtBOYX2goMuRbPZ/ogK7CXYm8uu+WpORS9Th/J14UkOgHP/IRRt7KEzfyYXGg6BuPvwcMr0DWKb+kIafvZkPnm1ALjrkGgU9AWjqBQzPoAV/0dFr7BvJhZ6BLgstmY+Rq7rdonbFnhosHuvGl8XXACcPNc3Pwy63kxM6YVuhSYsgjTFvjuK9RjyzLnEXY2YPAYvu4PXPMgZrzNIoVpm/PMKXQZcNtyXP8IL/qE9AOsYuTUQTioF6JN3kHoKZf9BXd/Yt4mahMKTfFjyiuYfBcv+oqUJOfqYDVw/jMnO+4fTPwTpr3NooYJMZvQFDmufBzXzuJFH7JtlXMHIQXsIWfzdX/j93/BTa+YsY5oKqGtwISZmDqPF31IURayvj8pQjcAPYDeg3nRD7l6Fv74pOna8swjNOvguB4zlqjyNx9vkUCT0P2mwpLFpqLzW26dh3NvNVefi0nGQ9cB0adh3h50UeeekTdmYdti55SDKoX0uV2AiLNxSn/0HYs+oxAVjug4RPfmvyM8tXY8PRb5e8wyo40ZhKZgWQMsTEPP/nyLb7EW4/E4dgVoGfqVmj79AbSQ3LWOIkGxPBEYcCcGXIK4HoiORo9+CGlx67gYlORgdiLbA06VZkNieKFJKUrjnvgZw1q5Q7vjHEnGU6MRzUtuQX8VHWAK4aQ4iU4r1UA3UnwozrgZiUPQLRw9TkVMb3TuzCbSNTvH9mDOCDZsy/BNPoYXugK47S1cfgcvqsGKF7D2CecxSV5AlitZiqI4XVUopPUB+t6BPucjNhLdE9HzDHQJRWAgu9vPXKz/BP+6mY2kNTbGFprC3sjb8cA7vKgGNTb8fRIKtqp1PVUCuaK4Es7jgFMm4JSLEReP+B5IHITI7ggORChVD4x9UX/9fmxd6oMzX00MLDSpQEHu9WKExfAtapBzFLMGeJZvdBAlkNOi5OX0HUmReKDXNHTvh/g4Nmyw5+kICUJYhLEmTrCX4bFuqDT0eWdgofOBeb/grPG8qBLfvocPb9f5RmhSvCkpVwI5FaOA2HMROxzxsUg8E72HIzwc4RGI9PZmHJ9AyfQjI9hFxqgYVWgbMOlR3L6QF1WisQ4Lb0TqZ87TyhgBRXFloUBOllPWTfE6cgK698Ipg9CXdO+JyDDEJCJIwwnYV8zHmqcMOxeCIYWmKEVX4VdsbJyuqpQX4444qJnR+BJSnFAUbwrkdCoGUTiPQ9+JOG0iThmCqDDEJbDnFakERYG7gthHG7LxxpBCFwELduD00byoHkmfY+m1MHXzsWI5vSqKNzWwEAOAM+9B/0mIiUZsd/QY4M2kDi7JOIAHh6A7LxkK4wldBYx7GHe+xIuq8sYD2LbEuYNQGMhsxXLllRaqeva/BP0ns3ndY6NZRxVl5J07eXOHxCfz8b+nnG/wMQAGE1qJNC9ms7xQbWqqMDWUhWf/GR+q7F6K4k2BnFK7PoE49V42t2pMJHr2Q/xpCA5CcAg6O03vdzLWYjwUZ8DEw2BCVwC3f4Df3caLqnJgI/4+XtMGOwNCRioZubIoeTnlEgmXI2Es4qLRow8SB7MGxC4hCO3G/5fCpi+w9GqjdbUYSWjaofFj8MwvCNKk7f7j+fj2KYN3E+hDU72TXpUGljAgrhfir2ADV3omovcwxPVGYD2WTsOJDYZqljaS0OXAoz+0MxW5D5kawOZY8b/7UbyBwnbzWE6KU6ZBF7dOiag+Yah9aJgMiHZT35EYOZEX1SZrH7tdQNrsJrSjyJRAx9NsqSIYBVb3IK0NZjNhGKFJr5te0e7v2b/TgDV0jbA7LoY2R6VQySso+noBqWy8iGCMlIN2a9wgLDjAixowK4CNSTDM6awdVcAdKxDbD5n7kJ6ErEMo3Qu7lW0nghxhmHaLIqvxfG0XYwhtAZ7ZiMEX8KLaFGXg3r5s+LIfUgE8vw99z+JFos6GknxYbSjOQ8YONlqrMB8lX7IoTrFcUZyqfWS5IrqxMYDQdMkLBpZ5d9nziqQ1WHYVGxfhh1BqN38vmyK6bayFqKxkS9Ze5JLiFhTsQuFPLPSQ1oriymKwQG4AoSlm3LMK467lRQ1YdA0OrTbLTXI+hoSmCH1qswjtJrU22CtRXYv8NOSkoogUP4oT7yK3hqUrtDON0UWlt9AUl+nS9r4VIVoN37IWYVZ3U1w9VYGEXpDio+kZGlBtQ209yguZ3Mt/zy62eu9VOrC6Ug1cu1A7m4mMNFYd9E+bCfrinXz15TuxJwGERyFhAEZchj+8aYQJD/QWmsLzhTfwdW3Y+l/nZxD6GyrdtDv2CiPMHqar0LXAuJvZBACaUWPF/v/5afZMUILHIrQ6Bz06AROuY8dUV3QVmioT513P17UhJwu5B3W/LOmMSkITv7uXpXO6ot+xpWhBH+7pUzE7yO5v/Tc8K6gXoYlB57HBdxo2wLZEP6HrgHNmsnuHNKOhFnvXS6HRSbXRccGhGP8sv19GJ/QTmmrEYy537GCtKM7H4S8NNdZRH9QTmhgxTt+2Dp2EpqtSV7pCncuL2nBgA3vV8AwyIqqmHET/kWzwtH5Zh05CU74x8C/opu0UE3uT/L3BTkHVCB3WDWMe0rGtQyeh6QsP1Pbp2ZVl2L6UDULwc1TNoRWGX8D6y3RCP6GHavt41iNbWWXFz/MNggmt8ml95vnsVaesQw+hGxy3YcZpm2/s2ypvH+SoHaEjwtH3HHaU9UAPodndVn9GeCwvakBtNTY97e8NdgoUoTurHKGDw3HaJHaU9UAPoenSP3wSX9eGzBQU6/NdDYcGOTQxcLReabReEXoUX9eGlO3+ewdhSwLUrxr3G6lXdUVzoamuQLlslLbzyf04UzbYcZhn6rvWLRpxUbqk0XoIHdYX3fvwogYUHEOGzDd+RZvAGRaD2Ev9Q2j6kr2HaPq5B3bJfIND0USzHZ+QoEu9UHOhWZfK7/i6Nnx3C1SeZtpMqF8h5PQbzfqDNUcPofudw9c1wGbB/mo5IOk3NHv6Vu9h/iE0Ea5hD8fh3YZ9eII+dNYq/YoMYxVxzfsLdRFawxlYN30oOwh/g/QK1Cr9CovUpWVJW6GV8zUq3vGP+tTZkPye7CA8ic5and/h0Qg+xQ8iNOml2TOx04+wweY6tfAblECthA4IQtcE0YVuAFR7OJMLdnwh7PNTvEazCE3ExGovtLYzJ9UCZ12Fh77kRVVprMcj56A0WTZx/EYd0Pc8zNnMiy5JS0ZuZvvjPRob0DUCoya2dQV8615sel3jmKKt0DXAudMx801eVJUTqZh9ButSkSlHEyR0/4vwxHpedMl/F+Kjx9pvGqLYNPgqzP0cAa2r/9kirJ6tcSeA5pXCrlqNGk3ZyF6lzU4Ettf0EBjMpiIIdyykNUUElwv9KDi8nd1LvyB+Dh2m1bwFyT/IAUnOkF7tCt0E+2XHSDL6Hy0X2h5EUbpNQsJEF1qzCG3Jw5GPZfbsAvcrhZXAbWvxj0q8WOZiebkM979Lb8d/2SVBwgtNEVobodN2ygY7F3gUoelgdQlHcFeERrpe6KdtI36EJrQZS7B7g+wgdE3bz4d1orFjPoqfQ1PIrC7n6+pRWYpdC+WMBa4JcltoOlgdnEm6sV77i6T2QlfwdfXIPowiHa49JoClHG5fucKA/8zE8xMwf5zz8tx5eOkKVLUXm2wWfxDaytfVY88m1q4kcYn7KQepUZSCoxtwbFOLZSsyN6ChvQH8thLtw4pwEbquGtufkwOSXONRpZAgY2tbWeooMLWXIJPQMuXoKPkZOF4qG+xaxX2hydrRs3DdG7h2mfNy3VJcsbz97KWqVHSh6dMsR/i6SqTIGZJax6MIbQfGT8EfZ+Lqe5yXa+7F5LtYi17b2EpFTzno0/JX83WV2PwG68eSuMTTlKOuYzdRWTL8QWi+qgrlhdi1WTbYtYVH7dAdpCBf9JSDqAIaVHtmAeUbsn2jDShCu98OTXRk0rBaG2wH/aBSSJQXOP5RgS0fyQS6Hdxvhw4G0pNxOAkHNrhe9v+EimL+yy2xWlgTreZCa/5o5HJg0T709vxZ0+1SV4UbQqHV/YqmxArc/RXGTeZFl6x+BZ89xAcx0+WUltYoBJZtZk++ckn2YTw+kL2Ptk5rnnIQpeq03B3ZKW+4agdPK4UUzbu1vnSnjLz1nMRezRr+xM+hqcaWsZuv+5bta+QMSe3T7uCwGjvywMYOtLtkA/WtdxZm79elN0DzlIPO2qE34MGVvOhDpgWwCK15SDATlO/97ReMHs+LLqG02E65rxv7sbGBzUgR0ko1/K1Z2LhY+yZUzSM0nbVZKvStZOxj2Z60uV3a3UURsYg/lU0P2+4S37dVm4mcHF0itOZC0w6t2INyuqr5lL0b5fgNt9DmgFsLUfipLhU0PYSuBIpbb+7xjo3LZQdh+1Cl0J1couOUV+j1DBCdPjNtB1/3CfnHkbtXl69iPjo4Zt9NjiXzFc3RwwKquu3/ia/7hLQ9bMYJTY6U6dEmQh/WrQlVD6GprpCxHvZSXuw4Wz6XHYRuQSmHBhG61objm/QaUaNTylGQAYuFFztIWQFSP5ADktxFA6HLSpG+Qa8MUKePpb16pM0Z1twnKxUU62W+4SYaCH0oiU2BoNMR0UnoECC5zRnW3Gf7WplvuAtr5VD/iO/fpmOLk05CU4aw722UdHhwtL0c+9+XLdAe0EnlI24rx84XdTwi+qUc1UDqdl70mvxsZGXr9SXMB0XozirvrMyD+maA+rlAecKun/m61+xeJ/MNz1A7Qu/4Xt+nNOknNF2Vtr/EZjnymvoa7Fkj8w0PYM12ag6wqLFh/Rx9B/HqJzRdlaxAShIvekFJIVK+kw12nqGq0Ie3o0LPfIPQT2iCrk0/vumIG16RIgckeYjaETpplb75BqGr0BRct65GfjovekYjdn0jByR5jHo5dKUF37ym+01DugpNRACb1vB1j7Bbsek9mW94BmvlUG2XbfxK9/BM6C10F+DrvyI3FTXVqKtxzLLtHgc3szEhuqZrpkS9lOPf04wwh4TeQpORtIfvPwO3dMHfQvDSzVixGN+9j+S1yEmDtQxVVjS6mr9nz8+ywc5j1IvQVJ8xxh1Dmt9T2AYUneubLRSvSdkeQK9b0OMsxEQivjd6DUJ4BIICcV+cvIPQY/KBjwoQ3p0XfcizFyPjRyNkgEYSuiUUUWhpLjpZTte1aMdtL2rW18WEhP7EglDafT7l2G48MRJRvKQveqccbUMBmP5AOu9DHB5TDTLWEbZt0mavUCnl+HKxcSaQMLbQLlEsl3gBCd3J10JnHcL294zTISDV8CfUiNCrFhmqMmM8oSmdKHfMtk3pcp0jgabDIPEJtCcDfCr0kR3Y/K7unSnNMVKlkHZ3eAJmfAZ7FTKTkZOKQgtKd6I8jY36IOi6RqkzHRE6DWX7hhdkA1/7Ljw01mPBDUj93FADEAzWykHizliJC2/gRaKqDNZyVNWgKAs5B5CXjfRtKFiHEsdPFcWVhRSXlreNb4XetQ4LLmGzNhoJgwmt3Iu2MBfRPfmWltTaWb93dS3y01gULypB3iGceBu5jiyFLn+K3zKQtyQP+MJHQtvL8ViUARtPjdcOTdnzxXMw9VledIt6VNlRV4/SPJw4hCILu6s8fTUy9rC7J0IcciuK06s/V4OLqA7nI6E/exWrHkR7T/vWHkN2rFA68XwyBozkRe9oqEV9A+wVOHEQRUUoLkLa1zj2BXIcZitLU8biD5DJVNte4Quh847ivgGIMeIF0JBC1zt6T161e/D8BPepq0E+VTfzUVKOtO9x+HUcc6Q6Sq5CiiuBXLyMnEy2AR/5QujH+qPwGNtRxsOQQhO06y99ErfN40W1KctBUS7KbUjfgaM/IvM7VNSwqazp1KIURQnkSkZuXsvJZKpjvNdhob96DR//FZG8ZDSMKjRBlbyXd2DAaF7UmOpyFOfCameX1+NbkJ0GSzYqdrBqEFmuBHJS3ESWk8m0vNkxoU8cxn0DjfwgGwMLTWkAsaQUocYY9kJJeVk+U7y0EBk7kXMchQUo+hKWClaRbVK8KZYbDdqf9Be+0QGh66rw5DAUpRoz2VAwsNBENTDidsx6hxcNSKUFdjsqrcjai7x01oaYsxF5G2Bx2EML+a0sZLm+kNAhwNIOCP3B0/j+OYM/CdLYQhNUMb/9HVx6Oy8an1obqqpQXY3cw0zx4jLkJCPzA5xwXPF1bCYnoeky8rq3Qm/+Ekv+aNjUuQnDC037nyqIc3fgdJ2S6Y7TWI/aatQ1oCgdecdQXI7cQzj2EY5nsK9GiiuBXKl6qqc4CU3vv9wrobMP46mB7C/U/TrTHoYXmqBKGB3y+ZmI7c23CEBjAztXKSmnSqelFPkZbFBE6joU/Ko4LYrivgrkisn/8lxoazHmnIFyC/uTDI8ZhCZqgfjheDYJwcbO4DoOVbzyj7Jn0BQXIfV7HF3OBmAo9WOiqeqpREqPRCeT6X3e8lBourw8NxnHTDNjhEmEJuzA8Bvx8Cc+ilemoiQLliKUW3F8K9K3IucYKpL5CNvmuUrbsZxMprjwrodC//NebHjdCPMTuIl5hCaognjlk7hVq94WI2OzoLQYlXbkHERGMnJzYUlF6Ra2i8hYUrxLi3yXtlcD73si9KpFWDnbaOPp2sZUQhMlwJRFuP4RXpQ0UWdnaa69BkWZbJzt+sUoOXyS02QyBfUP3Rb6u3ew/A72QG9T4XQWG55o4JNHsfZNXpQ0ERiKmEQk9sPwC3H53Th9Irvfx4mmXLxdNqzCW+azmTCb0EQcJYIzsO5jXpS4j5tCb1qNN643V6bRhAmFJmhfv3kL1r7Ni5KWuLx3sJ7/2xY/r8Rr17CBzuase5tTaNrXkcB70/H5q3yLxInOgSxpbg7ttHYj9PfvY9mNbN+a02bCnEITtMcpTn/8ID56im+RNMfl/BttC/3pC1g+jdVSTGszYVqhFWKAr+dj8VTUVvEtEgWPhG6sx7I78d8nWP3E5JhcaIKujzs/wNNjUZrLt0gI93PoSgvmXYXNb5m0FuiE+YUmQoH83Xg0Acf38i2Sljk00TJCZ6TgyTgcXWuivsC2EUJoIshxtOYMx08r+RY/x5057DatxpyzUNEo0pM9RBGa6OyYofSfN2L5A2zWCD8ngHZH69TY8OFcLL2G9ZC7Yb6JEEhoQmnOS1qCJ3ohYz/f6J+4TDmU5ovMA5gdhe+eNXXzXGuIJbQCpdQVNjw0FJ8udK8vQURcphwxwDfLMWsIKuoMfieV14goNEHX2zjgi8dwdyCbwNgPcSk0neof381GaLSZj5gaQYVWoJp7LfDAIKxchEpldke/obWnXRlmqn2VEFpogg4rBaQvZ+PhGCR9gXoS3D/oFOQih/YDRBdagUI15dJLrsbzf8DhbXyj2ASpMIuaGfAPoQn6olFA+jeYey4WTkFaMt8uJMf3IuldkVqX3cdsd6z4BMo77MCoG3HdYzhtBN8oBge3YPVC7FvNcmWxGpjdxC+FVlC0JqGvW4RRl5i+SXbPj1hxP9IPMJWD+DY/xI+FVqDc2uqoO/75HYy9EpEGnofQJZUWJK3Bv6eykzNC5PY4N/F7oRUaf3361kU3YuKdGDwWIcbueKipwpHt2LgS3y5lVV76Y4Xr8/MOKfTJUB5S6WgVmTQPw85H/5EIM9KoSnsF69LftQE/zWY3wNPfGcx/IlGQQruCAnaNI8MmY0bPwvCxOHMcIiMQQhd1zamrQlkJUrciJRk7nmPPSaF4TB77TQOVR0ih24TMpphd7VjpMxz9L8PA0eg/GhER6mbblBmXlyH7EA5sxvEdbLxynWMyXKrtSY/bRArtNlR9pIUiN8kdDcRdjcRT0H8M+oxA1xCERyKqh5e6VRahooxNg5R3FOnbkXkceV+zeXjp40jiQMe7yhTZPaTQXtHg0JqEo/hNsVOZeqtLf0TEIyoWsX0QlYiuMQiLRWg0G8kZ0IkNrqixoaoc1RWwFqI0G2W5KM1HSSGqD6LKcaqQtfRWTQZLiT1HCu0LSG7lVVlI96ZF2aKgOEoL+dq0NImrvEo6hhRaIhQUIiQScZBCS4RCCi0RCim0RCik0BKhkEJLhEIKLREKKbREKKTQEqGQQkuEQgotEQoptEQopNASoZBCS4RCCi0RCim0RCik0BKhkEJLhEIKLREKKbREKKTQEqGQQkuEQgotEQoptEQopNASoZBCS4RCCi0RCim0RCik0BKhkEJLhEIKLREKKbREKKTQEqGQQkuEQgotEQoptEQggP8DzspFuuK7ZkEAAAAASUVORK5CYII=;" parent="loVLZ2iteedALe1XScku-24" vertex="1">
          <mxGeometry x="53" y="13" width="24" height="24" as="geometry" />
        </mxCell>
        <mxCell id="loVLZ2iteedALe1XScku-28" style="edgeStyle=orthogonalEdgeStyle;rounded=1;orthogonalLoop=1;jettySize=auto;html=1;exitX=0.75;exitY=0;exitDx=0;exitDy=0;strokeColor=default;align=center;verticalAlign=middle;fontFamily=Helvetica;fontSize=12;fontColor=default;fillColor=#FAFAFA;strokeWidth=2;labelBackgroundColor=default;endArrow=classic;curved=0;" parent="loVLZ2iteedALe1XScku-1" source="loVLZ2iteedALe1XScku-26" target="n3mtn9T0NU22_CLiPq3a-1" edge="1">
          <mxGeometry relative="1" as="geometry">
            <mxPoint x="715.0400000000002" y="240" as="targetPoint" />
            <Array as="points">
              <mxPoint x="748" y="305" />
              <mxPoint x="748" y="305" />
            </Array>
          </mxGeometry>
        </mxCell>
        <mxCell id="loVLZ2iteedALe1XScku-29" value="WebDAV" style="edgeLabel;html=1;align=center;verticalAlign=middle;resizable=0;points=[];rounded=1;strokeColor=default;fontFamily=Helvetica;fontSize=12;fontColor=default;fillColor=#FAFAFA;strokeWidth=2;labelBackgroundColor=default;" parent="loVLZ2iteedALe1XScku-28" vertex="1" connectable="0">
          <mxGeometry x="0.0764" y="2" relative="1" as="geometry">
            <mxPoint x="2" y="-1" as="offset" />
          </mxGeometry>
        </mxCell>
        <mxCell id="loVLZ2iteedALe1XScku-30" value="data" style="shadow=0;dashed=0;html=1;strokeColor=none;fillColor=#A1C9E7;labelPosition=center;verticalLabelPosition=bottom;verticalAlign=top;align=center;outlineConnect=0;shape=mxgraph.veeam.2d.folder;fillStyle=auto;fontFamily=Helvetica;fontSize=12;fontColor=default;" parent="loVLZ2iteedALe1XScku-1" vertex="1">
          <mxGeometry x="160" y="390" width="40" height="30" as="geometry" />
        </mxCell>
        <mxCell id="loVLZ2iteedALe1XScku-31" value="media" style="shadow=0;dashed=0;html=1;strokeColor=none;fillColor=#A1C9E7;labelPosition=center;verticalLabelPosition=bottom;verticalAlign=top;align=center;outlineConnect=0;shape=mxgraph.veeam.2d.folder;fillStyle=auto;" parent="loVLZ2iteedALe1XScku-1" vertex="1">
          <mxGeometry x="160" y="460" width="40" height="30" as="geometry" />
        </mxCell>
        <mxCell id="loVLZ2iteedALe1XScku-33" value="export" style="shadow=0;dashed=0;html=1;strokeColor=none;fillColor=#A1C9E7;labelPosition=center;verticalLabelPosition=bottom;verticalAlign=top;align=center;outlineConnect=0;shape=mxgraph.veeam.2d.folder;fillStyle=auto;fontFamily=Helvetica;fontSize=12;fontColor=default;" parent="loVLZ2iteedALe1XScku-1" vertex="1">
          <mxGeometry x="160" y="530" width="40" height="30" as="geometry" />
        </mxCell>
        <mxCell id="loVLZ2iteedALe1XScku-34" value="consume" style="shadow=0;dashed=0;html=1;strokeColor=none;fillColor=#4495D1;labelPosition=center;verticalLabelPosition=bottom;verticalAlign=top;align=center;outlineConnect=0;shape=mxgraph.veeam.2d.folder;fillStyle=auto;fontFamily=Helvetica;fontSize=12;fontColor=default;" parent="loVLZ2iteedALe1XScku-1" vertex="1">
          <mxGeometry x="160" y="590" width="40" height="30" as="geometry" />
        </mxCell>
        <mxCell id="loVLZ2iteedALe1XScku-35" value="dbdata" style="shadow=0;dashed=0;html=1;strokeColor=none;fillColor=#A1C9E7;labelPosition=center;verticalLabelPosition=bottom;verticalAlign=top;align=center;outlineConnect=0;shape=mxgraph.veeam.2d.folder;fillStyle=auto;fontFamily=Helvetica;fontSize=12;fontColor=default;" parent="loVLZ2iteedALe1XScku-1" vertex="1">
          <mxGeometry x="160" y="250" width="40" height="30" as="geometry" />
        </mxCell>
        <mxCell id="loVLZ2iteedALe1XScku-36" value="redisdata" style="shadow=0;dashed=0;html=1;strokeColor=none;fillColor=#A1C9E7;labelPosition=center;verticalLabelPosition=bottom;verticalAlign=top;align=center;outlineConnect=0;shape=mxgraph.veeam.2d.folder;fillStyle=auto;fontFamily=Helvetica;fontSize=12;fontColor=default;" parent="loVLZ2iteedALe1XScku-1" vertex="1">
          <mxGeometry x="160" y="320" width="40" height="30" as="geometry" />
        </mxCell>
        <mxCell id="loVLZ2iteedALe1XScku-37" style="edgeStyle=orthogonalEdgeStyle;rounded=0;orthogonalLoop=1;jettySize=auto;html=1;exitX=0.25;exitY=1;exitDx=0;exitDy=0;strokeColor=#A1C9E7;startArrow=classic;startFill=1;" parent="loVLZ2iteedALe1XScku-1" source="loVLZ2iteedALe1XScku-3" target="loVLZ2iteedALe1XScku-30" edge="1">
          <mxGeometry relative="1" as="geometry">
            <Array as="points">
              <mxPoint x="265" y="400" />
            </Array>
          </mxGeometry>
        </mxCell>
        <mxCell id="loVLZ2iteedALe1XScku-38" style="edgeStyle=orthogonalEdgeStyle;rounded=0;orthogonalLoop=1;jettySize=auto;html=1;exitX=0.25;exitY=1;exitDx=0;exitDy=0;strokeColor=#A1C9E7;startArrow=classic;startFill=1;" parent="loVLZ2iteedALe1XScku-1" source="loVLZ2iteedALe1XScku-3" target="loVLZ2iteedALe1XScku-31" edge="1">
          <mxGeometry relative="1" as="geometry">
            <Array as="points">
              <mxPoint x="265" y="470" />
            </Array>
          </mxGeometry>
        </mxCell>
        <mxCell id="loVLZ2iteedALe1XScku-39" style="edgeStyle=orthogonalEdgeStyle;rounded=0;orthogonalLoop=1;jettySize=auto;html=1;exitX=0.25;exitY=1;exitDx=0;exitDy=0;strokeColor=#A1C9E7;startArrow=none;startFill=0;" parent="loVLZ2iteedALe1XScku-1" source="loVLZ2iteedALe1XScku-3" target="loVLZ2iteedALe1XScku-33" edge="1">
          <mxGeometry relative="1" as="geometry">
            <Array as="points">
              <mxPoint x="265" y="540" />
            </Array>
          </mxGeometry>
        </mxCell>
        <mxCell id="loVLZ2iteedALe1XScku-41" style="edgeStyle=orthogonalEdgeStyle;rounded=0;orthogonalLoop=1;jettySize=auto;html=1;exitX=0;exitY=0.25;exitDx=0;exitDy=0;endArrow=none;endFill=0;entryX=0.5;entryY=1;entryDx=0;entryDy=0;strokeColor=#999999;align=center;verticalAlign=middle;fontFamily=Helvetica;fontSize=12;fontColor=#666666;labelBackgroundColor=default;curved=0;fillColor=#FAFAFA;" parent="loVLZ2iteedALe1XScku-1" source="loVLZ2iteedALe1XScku-16" target="loVLZ2iteedALe1XScku-3" edge="1">
          <mxGeometry relative="1" as="geometry">
            <mxPoint x="300" y="430" as="targetPoint" />
            <mxPoint x="320" y="490" as="sourcePoint" />
          </mxGeometry>
        </mxCell>
        <mxCell id="loVLZ2iteedALe1XScku-42" style="edgeStyle=orthogonalEdgeStyle;rounded=0;orthogonalLoop=1;jettySize=auto;html=1;exitX=0;exitY=0.75;exitDx=0;exitDy=0;entryX=1;entryY=0.667;entryDx=0;entryDy=0;entryPerimeter=0;strokeColor=#A1C9E7;startArrow=classic;startFill=1;" parent="loVLZ2iteedALe1XScku-1" source="loVLZ2iteedALe1XScku-9" target="loVLZ2iteedALe1XScku-35" edge="1">
          <mxGeometry relative="1" as="geometry">
            <mxPoint x="230" y="270" as="targetPoint" />
          </mxGeometry>
        </mxCell>
        <mxCell id="loVLZ2iteedALe1XScku-43" style="edgeStyle=orthogonalEdgeStyle;rounded=0;orthogonalLoop=1;jettySize=auto;html=1;exitX=0;exitY=0.75;exitDx=0;exitDy=0;strokeColor=#A1C9E7;startArrow=classic;startFill=1;" parent="loVLZ2iteedALe1XScku-1" source="loVLZ2iteedALe1XScku-11" target="loVLZ2iteedALe1XScku-36" edge="1">
          <mxGeometry relative="1" as="geometry">
            <Array as="points">
              <mxPoint x="230" y="330" />
              <mxPoint x="230" y="330" />
            </Array>
          </mxGeometry>
        </mxCell>
        <mxCell id="n3mtn9T0NU22_CLiPq3a-0" value="Paperless_export&amp;nbsp;&lt;div&gt;&lt;br&gt;&lt;/div&gt;&lt;div&gt;&lt;br&gt;&lt;/div&gt;" style="shadow=0;dashed=0;html=1;strokeColor=none;fillColor=#A1C9E7;labelPosition=left;verticalLabelPosition=middle;verticalAlign=middle;align=right;outlineConnect=0;shape=mxgraph.veeam.2d.folder;fillStyle=auto;fontFamily=Helvetica;fontSize=12;fontColor=default;" parent="loVLZ2iteedALe1XScku-1" vertex="1">
          <mxGeometry x="650" y="220" width="50" height="40" as="geometry" />
        </mxCell>
        <mxCell id="n3mtn9T0NU22_CLiPq3a-1" value="&amp;nbsp;Paperless_consume&lt;div&gt;&lt;br&gt;&lt;/div&gt;&lt;div&gt;&lt;br&gt;&lt;/div&gt;" style="shadow=0;dashed=0;html=1;strokeColor=none;fillColor=#4495D1;labelPosition=right;verticalLabelPosition=middle;verticalAlign=middle;align=left;outlineConnect=0;shape=mxgraph.veeam.2d.folder;fontColor=#000000;" parent="loVLZ2iteedALe1XScku-1" vertex="1">
          <mxGeometry x="720" y="220" width="50" height="40" as="geometry" />
        </mxCell>
        <mxCell id="loVLZ2iteedALe1XScku-21" style="edgeStyle=orthogonalEdgeStyle;rounded=0;orthogonalLoop=1;jettySize=auto;html=1;exitX=0;exitY=0.25;exitDx=0;exitDy=0;endArrow=none;endFill=0;entryX=0.5;entryY=1;entryDx=0;entryDy=0;strokeColor=default;align=center;verticalAlign=middle;fontFamily=Helvetica;fontSize=11;fontColor=default;labelBackgroundColor=default;fillColor=#FAFAFA;curved=0;" parent="loVLZ2iteedALe1XScku-1" source="loVLZ2iteedALe1XScku-20" target="loVLZ2iteedALe1XScku-3" edge="1">
          <mxGeometry relative="1" as="geometry">
            <mxPoint x="300" y="490" as="targetPoint" />
            <mxPoint x="320" y="550" as="sourcePoint" />
          </mxGeometry>
        </mxCell>
        <mxCell id="loVLZ2iteedALe1XScku-40" style="edgeStyle=orthogonalEdgeStyle;rounded=0;orthogonalLoop=1;jettySize=auto;html=1;exitX=0.25;exitY=1;exitDx=0;exitDy=0;endArrow=none;endFill=0;startArrow=classic;startFill=1;strokeColor=#4495D1;strokeWidth=1;align=center;verticalAlign=middle;fontFamily=Helvetica;fontSize=11;fontColor=default;labelBackgroundColor=default;" parent="loVLZ2iteedALe1XScku-1" source="loVLZ2iteedALe1XScku-3" target="loVLZ2iteedALe1XScku-34" edge="1">
          <mxGeometry relative="1" as="geometry">
            <Array as="points">
              <mxPoint x="265" y="600" />
            </Array>
          </mxGeometry>
        </mxCell>
        <mxCell id="loVLZ2iteedALe1XScku-32" style="edgeStyle=orthogonalEdgeStyle;rounded=0;orthogonalLoop=1;jettySize=auto;html=1;entryX=0;entryY=0.75;entryDx=0;entryDy=0;strokeColor=#A1C9E7;strokeWidth=1;align=center;verticalAlign=middle;fontFamily=Helvetica;fontSize=11;fontColor=default;labelBackgroundColor=default;startArrow=none;startFill=0;endArrow=classic;" parent="loVLZ2iteedALe1XScku-1" source="loVLZ2iteedALe1XScku-33" target="loVLZ2iteedALe1XScku-16" edge="1">
          <mxGeometry relative="1" as="geometry">
            <Array as="points">
              <mxPoint x="280" y="550" />
              <mxPoint x="280" y="510" />
            </Array>
          </mxGeometry>
        </mxCell>
        <mxCell id="pTDSic6gRh8UlJvJDKuk-1" style="edgeStyle=orthogonalEdgeStyle;rounded=1;orthogonalLoop=1;jettySize=auto;html=1;exitX=0;exitY=0.6;exitDx=0;exitDy=0;exitPerimeter=0;entryX=1;entryY=0.75;entryDx=0;entryDy=0;strokeWidth=2;curved=0;" parent="loVLZ2iteedALe1XScku-1" source="pTDSic6gRh8UlJvJDKuk-0" target="loVLZ2iteedALe1XScku-20" edge="1">
          <mxGeometry relative="1" as="geometry" />
        </mxCell>
        <mxCell id="pTDSic6gRh8UlJvJDKuk-2" value="&lt;font style=&quot;font-size: 12px;&quot;&gt;FTP/&lt;br&gt;SFTP&lt;/font&gt;" style="edgeLabel;html=1;align=center;verticalAlign=middle;resizable=0;points=[];" parent="pTDSic6gRh8UlJvJDKuk-1" vertex="1" connectable="0">
          <mxGeometry x="-0.0276" y="-1" relative="1" as="geometry">
            <mxPoint y="-3" as="offset" />
          </mxGeometry>
        </mxCell>
        <mxCell id="pTDSic6gRh8UlJvJDKuk-0" value="" style="fontColor=#0066CC;verticalAlign=top;verticalLabelPosition=bottom;labelPosition=center;align=center;html=1;outlineConnect=0;fillColor=#1A1A1A;strokeColor=none;gradientColor=none;gradientDirection=north;strokeWidth=2;shape=mxgraph.networks.scanner;" parent="loVLZ2iteedALe1XScku-1" vertex="1">
          <mxGeometry x="660" y="600" width="86.67" height="65" as="geometry" />
        </mxCell>
      </root>
    </mxGraphModel>
  </diagram>
</mxfile>
